<svg viewBox="0 0 285.75 21.167" height="80" width="1080"><defs id="defs2"><filter height="1" y="0" width="1" x="0" id="filter140" style="color-interpolation-filters:sRGB"><feGaussianBlur id="feGaussianBlur142" stdDeviation="0"/></filter></defs><g style="display:inline" id="layer3"><path id="path433" d="M37 18.868c.675-1.264 1.226-2.363 1.226-2.442 0-.08-.21-.457-.467-.838a37.366 37.366 0 0 1-.937-1.485l-.47-.792-.084-1.766c-.09-1.895-.235-2.481-.973-3.932-.964-1.898-3.7-4.85-5.477-5.912-.958-.572-2.355-.995-3.287-.995-.315 0-1.28.132-2.142.295-1.956.368-3.6.493-4.98.378-1.018-.085-1.09-.11-1.58-.562-1.254-1.156-2.115-1.104-4.522.277-.529.303-1.29.672-1.692.82-1.722.635-3.263 1.748-5.21 3.763-1.082 1.12-1.222 1.226-1.542 1.162-.455-.09-1.045.252-1.239.719-.179.432-.171 1.024.016 1.25.108.13.067.352-.182.974-.36.9-.43 1.888-.19 2.68.133.438.114.596-.167 1.459-.174.531-.316 1.089-.316 1.238 0 .285.334.476 1.649.946l.614.22.696-.445c.382-.245 1.148-.595 1.7-.777a8.402 8.402 0 0 0 1.948-.974c.52-.354.944-.606.944-.562 0 .044-.103.252-.229.46-.126.21-.296.59-.377.846-.139.431-.121.523.24 1.255.213.434.662 1.12.998 1.522.335.403.59.747.567.764-.442.333-.666.41-1.023.353-.366-.06-.416-.032-.492.27-.108.432.131.622 1.602 1.27 2.283 1.008 2.877.958 4.202-.357.77-.765 2.305-2.74 3.405-4.386l.556-.83c.014-.02.333.17.708.422l.683.46v.697c0 .383.057.85.128 1.035.105.277.07.5-.192 1.219-.275.753-.367.886-.634.918-.407.049-.63.386-.446.677.121.192.431.216 3.134.246l3 .032.58-.744c.935-1.2.965-1.265.778-1.725-.233-.574-.367-1.31-.239-1.31.278 0 1.045.413 1.728.93.774.586 1.928 1.172 2.589 1.314.371.08.376.09.28.593-.055.281-.102.553-.105.603-.003.05-.088.091-.188.091s-.294.111-.43.247c-.195.195-.22.296-.117.487.122.227.263.24 2.43.24h2.302zm-3.377 1.333-.888-.009.077-.457c.131-.78.177-.863.64-1.15l.45-.279-.547-.1c-1.497-.274-2.515-.638-3.345-1.195-1.004-.674-2.868-2.562-3.893-3.945l-.76-1.024c-.023-.028-.072-.02-.11.02-.101.1.484 1.335 1.177 2.484.329.545.598 1.028.598 1.074 0 .045-.096.054-.214.019-.117-.035-1.048-.15-2.068-.254-2.101-.215-3.257-.565-4.005-1.211l-.455-.393-.015-1.818c-.012-1.423-.063-1.944-.234-2.397-.12-.318-.254-.579-.298-.579-.044 0-.08.864-.08 1.919-.002 1.825-.018 1.957-.342 2.723a7.822 7.822 0 0 1-.913 1.523c-.315.394-1.027 1.3-1.582 2.012-1.272 1.631-2.455 2.785-2.858 2.785-.327 0-1.67-.436-1.828-.593-.055-.055.15-.305.457-.556.706-.579 1.008-1.176 1.294-2.559.34-1.648.312-2.058-.18-2.666-.498-.614-.682-.971-1.093-2.117-.334-.931-.859-1.862-1.05-1.862-.063 0-.147.206-.187.457-.14.896-.344 1.359-.852 1.94-.652.745-2.388 1.924-3.106 2.11-.301.077-.987.371-1.522.653-1.185.622-1.431.615-1.327-.037.061-.386.03-.493-.192-.648-.247-.173-.254-.221-.113-.693.131-.438.122-.592-.067-1.118-.354-.983.002-2.563.611-2.716.395-.099.391-.547-.009-.922-.316-.297-.363-.45-.21-.69.068-.107.254-.1.755.03.852.221 1.221.22 1.221-.003 0-.097-.118-.259-.263-.36-.26-.182-.248-.202.822-1.3 1.857-1.908 3.182-2.87 4.83-3.504.52-.2 1.37-.605 1.888-.902 1.09-.622 1.865-.944 2.268-.944.648 0 2.23 1.31 3.121 2.584.221.316.448.546.505.511.108-.067-.15-.776-.45-1.233-.097-.149-.176-.313-.176-.366 0-.052.836-.1 1.858-.104 1.37-.006 2.223-.078 3.253-.274 3.098-.589 4.352-.27 6.552 1.67 2.043 1.8 3.701 4.091 4.207 5.812.359 1.22.365 2.049.032 4.29a118.2 118.2 0 0 0-.313 2.186c0 .185.293-.25.664-.989l.405-.804.707 1.114.707 1.115-.602 1.162c-1.454 2.806-1.37 2.678-1.732 2.63a14.728 14.728 0 0 0-1.22-.052zM5.451 12.229c.48-.51.242-1.238-.376-1.15-.206.03-.291.132-.32.39-.096.836.26 1.224.696.76zm16.526 6.712c.173-.51.187-.52.663-.474.849.08.886-.03.23-.686-.549-.55-.598-.647-.598-1.178v-.579l.395.07c.347.061 1.244.176 3.106.398.477.057.518.09.518.418 0 .195.065.598.144.895.14.523.132.556-.274 1.094l-.418.555-1.972.004-1.972.004.178-.52zm-10.875-2.933-.434-.713.21-.444c.358-.753 1.053-1.844 1.176-1.844.064 0 .15.095.192.213.042.117.265.448.496.735l.42.522-.147 1.061c-.08.584-.255 1.308-.387 1.61l-.24.548-.427-.488a10.52 10.52 0 0 1-.86-1.2z" style="fill:#000;stroke-width:.121796"/></g><g style="display:inline" id="layer4"><path id="path458" d="M37.001 18.87c.674-1.262 1.225-2.355 1.225-2.428 0-.073-.294-.587-.654-1.141-1.26-1.941-1.338-2.151-1.308-3.548.06-2.845-1.03-5.028-3.992-7.992-2.877-2.878-4.586-3.427-8.28-2.658-1.16.24-1.759.291-3.493.292l-2.094.001-.522-.511c-.588-.576-1.235-.89-1.826-.885-.504.004-1.556.434-2.652 1.085-.467.277-1.21.64-1.648.805-1.885.71-3.22 1.656-5.194 3.683-1.26 1.292-1.325 1.34-1.73 1.275-.366-.06-.48-.011-.852.36-.36.362-.429.515-.429.965 0 .294.06.596.135.67.098.098.047.353-.19.944-.364.91-.432 1.89-.189 2.696.138.455.12.597-.176 1.488-.18.541-.31 1.101-.288 1.244.03.202.28.357 1.119.692 1.043.416 1.09.424 1.4.226.707-.454 1.968-1.048 2.523-1.188.337-.084.977-.423 1.497-.792.5-.354.926-.626.948-.605.021.022-.13.401-.338.844-.257.55-.35.893-.294 1.083.158.527.891 1.743 1.401 2.323.282.32.492.595.467.613-.452.313-.714.402-1.045.354-.343-.05-.399-.018-.473.276-.107.43.135.622 1.594 1.263 2.289 1.007 2.88.958 4.202-.346.88-.869 3.026-3.698 3.953-5.21.01-.018.329.172.707.421l.688.453v.696c0 .383.058.848.129 1.034.105.276.07.5-.192 1.218-.274.752-.366.885-.634.917-.406.049-.628.385-.444.676.122.193.41.213 3.158.213h3.023l.704-.913c.743-.964.804-1.152.54-1.679-.091-.18-.2-.512-.243-.737-.076-.395-.068-.406.256-.328.331.08.614.248 2.108 1.258a7.177 7.177 0 0 0 1.601.774c.651.197.818.295.772.452a8.51 8.51 0 0 0-.139.656c-.066.375-.132.456-.367.456-.35 0-.566.346-.4.642.104.187.366.21 2.414.21h2.297zm-4.179 1.167c.006-.115.02-.4.03-.633.018-.35.106-.48.508-.746.465-.308.666-.594.324-.463-.23.089-1.93-.28-2.584-.56-1.295-.555-3.261-2.332-4.748-4.29-.519-.683-.96-1.265-.983-1.293-.021-.028-.071-.018-.11.021-.095.094.581 1.502 1.246 2.597.59.972.62 1.065.315.976-.117-.035-.87-.124-1.672-.199-2.383-.222-3.754-.646-4.577-1.418-.315-.295-.317-.313-.258-1.663.035-.797.004-1.631-.076-2.002-.158-.735-.477-1.552-.57-1.459-.035.035-.004.56.07 1.166.16 1.31-.036 2.714-.528 3.796-.343.752-2.87 4.038-4.003 5.203-.408.42-.878.798-1.046.84-.308.077-1.905-.364-2.026-.56-.034-.057.184-.305.486-.553.873-.715 1.284-1.792 1.463-3.835.076-.866.064-.93-.233-1.25-.456-.49-.862-1.242-1.228-2.278-.327-.924-.834-1.825-1.028-1.825-.122 0-.251.42-.254.826-.006 1.094-2.255 3.181-4.016 3.73-.368.114-1.067.42-1.553.68-1.043.559-1.276.534-1.171-.123.06-.379.028-.49-.187-.64-.242-.17-.25-.222-.114-.728.123-.462.114-.624-.057-1.053-.268-.67-.256-1.203.044-2.006.187-.5.322-.68.548-.737.4-.1.397-.546-.004-.923-.323-.303-.364-.448-.198-.709.085-.134.216-.128.75.03.81.241 1.212.247 1.212.017 0-.096-.123-.263-.274-.37-.273-.195-.267-.202 1.247-1.683 1.6-1.565 2.834-2.477 3.913-2.893.733-.282 1.918-.852 3.265-1.57 1.03-.548 1.387-.59 2.064-.246.647.33 1.824 1.442 2.379 2.248.252.367.505.639.562.604.108-.067-.15-.775-.449-1.233-.097-.148-.176-.312-.175-.365 0-.052.835-.1 1.855-.105 1.4-.008 2.207-.079 3.292-.289 2.751-.533 4.222-.22 6.07 1.292 2.445 2 4.342 4.696 4.781 6.793.24 1.146.23 1.428-.122 3.785-.167 1.119-.283 2.056-.257 2.081.048.049.856-1.36.944-1.648.044-.141 1.442 1.918 1.442 2.123 0 .042-.444.924-.987 1.959l-.987 1.881-1.172-.045c-1.014-.04-1.171-.074-1.162-.255zm-27.344-7.79c.145-.155.264-.397.264-.539 0-.515-.733-.88-.9-.447-.134.35-.076.882.118 1.076.238.238.203.245.518-.09zm16.52 6.681c.181-.528.189-.534.657-.47.844.112.915-.025.306-.586-.56-.517-.827-1.114-.706-1.58.057-.217.13-.246.446-.183.208.042.926.131 1.595.198 2.087.209 2.006.18 2.014.698.004.248.074.643.156.877.14.403.125.456-.281.997l-.43.57-1.969.007-1.97.007zm-10.874-2.924-.438-.722.454-.86c.56-1.058.922-1.528 1.01-1.312.034.085.284.435.554.777l.492.622-.146 1.048c-.08.576-.256 1.294-.39 1.595l-.245.547-.426-.486a10.606 10.606 0 0 1-.865-1.209z" style="fill:#000;stroke-width:.121664"/></g><g style="display:inline" id="layer5"><path id="path474" d="M16.218 20.924c.075-.14.281-.687.46-1.217.262-.782 1.866-4.552 1.99-4.676.017-.019.367.168.776.414.41.247.872.481 1.028.52.245.062.283.155.283.687 0 .338.064.857.142 1.152.119.45.102.671-.101 1.357-.219.736-.282.826-.615.883-.289.05-.38.139-.41.402-.066.567.205.614 3.331.577l2.86-.034.793-1.039.794-1.039-.236-.537c-.245-.555-.308-.907-.274-1.53.019-.354.032-.36.555-.277.295.047.876.306 1.292.576 1.359.883 3.29 1.64 4.18 1.64.384 0 .422.106.277.785-.108.505-.172.592-.463.626-.283.032-.338.1-.338.417v.378l2.283.034c1.731.026 2.312-.004 2.406-.126.068-.088.34-.979.605-1.98.429-1.623.461-1.849.303-2.104a74.915 74.915 0 0 0-1.097-1.617c-1.135-1.64-1.286-1.992-1.286-3.01 0-1.17-.332-2.898-.747-3.886-.545-1.297-1.692-2.928-3.03-4.31-1.947-2.013-3.397-2.955-5.385-3.5-1.393-.382-2.919-.284-5.335.342-1.525.395-2.048.475-3.156.483-1.303.008-1.339.001-1.828-.384C15.44.274 14.78 0 14.032 0c-.898 0-1.546.242-2.675.997-.605.405-1.169.672-1.612.764-.89.184-2.255.848-3.046 1.48-.764.61-2.248 2.127-2.963 3.03-.485.612-.565.662-1.058.662-.645 0-1.013.3-1.221.996-.123.408-.113.56.059.903.195.39.191.452-.058 1.117-.324.86-.364 2.153-.087 2.797.183.427.177.52-.106 1.496-.394 1.36-.389 1.579.045 1.74.19.072.574.213.851.314.439.16.563.301.954 1.08.73 1.45.884 1.57 2.388 1.856 1.005.19 1.028.19 1.48-.09a9.499 9.499 0 0 0 1.043-.803c.353-.314.998-.685 1.63-.94.94-.38 1.106-.499 1.63-1.174l.582-.751.04.677c.07 1.203-.041 1.463-1.079 2.529-.525.54-1.059 1.014-1.187 1.055-.3.095-.307.64-.012.79.234.12 1.925.327 4.318.529 2.014.17 2.113.164 2.27-.13zm18.026-.9c0-.052.06-.378.135-.726.11-.514.217-.682.567-.899.238-.147.432-.322.432-.39s-.043-.097-.095-.064c-.151.093-3.067-.376-3.636-.586-2.16-.795-5.157-3.138-5.859-4.579-.214-.44-.312-.548-.346-.38-.071.358.317 1.256.934 2.156.306.447.556.831.556.854 0 .023-1.118.026-2.486.007-3.094-.044-3.916-.237-4.94-1.16l-.43-.386-.024-1.358c-.025-1.437-.35-2.717-.949-3.732-.26-.44-.6-.652-.46-.287.657 1.71.861 3.552.544 4.896-.11.466-.59 1.63-1.068 2.585-.477.955-1.057 2.247-1.288 2.871a33.144 33.144 0 0 1-.452 1.18c-.04.06-3.998-.247-4.071-.315-.03-.028.232-.348.584-.71.352-.363.713-.801.803-.974.369-.718.244-4.684-.155-4.93-.49-.301-1.26-1.01-1.933-1.78-.74-.848-1.51-1.44-1.627-1.25-.033.052-.054.269-.048.481.03 1.041-1.942 3.316-3.305 3.813-.42.153-1.118.521-1.55.817-.664.454-.833.52-1.073.412-.235-.105-.272-.193-.206-.495.062-.279.014-.438-.2-.666-.253-.27-.268-.352-.147-.83.115-.45.098-.603-.109-1.009-.453-.887-.17-2.648.464-2.889.402-.153.393-.62-.02-1.008-.292-.275-.384-.749-.15-.77.054-.005.47.061.924.147.635.12.86.122.974.007.114-.114.077-.203-.159-.38-.29-.22-.296-.248-.105-.53.349-.513 1.772-2.06 2.43-2.64C7.732 3.62 8.616 3.125 9.846 2.77a7.355 7.355 0 0 0 2.14-.982c1.884-1.242 2.903-1.06 5.334.955.9.746 1.174.91 1.162.693-.003-.052-.175-.293-.383-.536l-.378-.44.982-.1c.54-.054 1.833-.297 2.873-.54 2.356-.55 3.087-.628 4.128-.447 1.877.327 3.61 1.385 5.483 3.346 1.869 1.958 2.856 3.573 3.276 5.364.237 1.013.294 3.262.12 4.825-.05.468-.046.85.011.85.058 0 .229-.255.38-.567.278-.572.453-.699.566-.41.034.087.439.683.9 1.324l.838 1.165-.333 1.23c-.486 1.791-.388 1.693-1.637 1.652-.585-.019-1.063-.076-1.063-.128zM3.606 12.455c.323-.347.329-.755.014-1.04-.289-.26-.717-.169-.828.179-.086.273.24 1.137.43 1.137.07 0 .243-.124.384-.276zm18.044 7.367c.007-.121.052-.361.1-.533.077-.276.146-.308.605-.275.675.049.781-.154.294-.564-.55-.462-.901-1.196-.805-1.677l.077-.386h4.129v.76c0 .419.08.953.178 1.187.172.413.164.447-.284 1.064l-.462.637-1.922.004c-1.753.003-1.921-.016-1.91-.217zM5.205 18.078c-.4-.07-.55-.186-.851-.66-.2-.316-.365-.679-.365-.805 0-.304 1.362-1.183 2.218-1.432.507-.147.852-.38 1.531-1.036.483-.465 1.093-1.172 1.355-1.57l.478-.725 1.022.977c.563.537 1.009 1.018.992 1.068-.017.051-.37.571-.787 1.156-.607.855-.85 1.095-1.23 1.218-.26.084-.809.321-1.218.526l-.745.373-.47-.264c-.259-.145-.505-.264-.547-.264-.183 0-.053.328.26.654.185.193.313.37.283.393l-.423.321c-.246.186-.479.26-.694.217a44.136 44.136 0 0 0-.81-.147z" style="fill:#000;stroke-width:.126061"/></g><g style="display:inline" id="layer6"><path id="path490" d="M16.218 20.924c.075-.14.281-.687.46-1.217.262-.782 1.866-4.552 1.99-4.676.017-.019.367.168.776.414.41.247.871.481 1.027.52.246.062.284.155.284.687 0 .338.064.857.142 1.152.119.45.102.671-.102 1.357-.218.736-.28.826-.614.883-.289.05-.38.139-.41.402-.066.567.205.614 3.331.577l2.86-.034.793-1.039.794-1.039-.236-.537c-.245-.555-.308-.907-.274-1.53.019-.354.032-.36.555-.277.295.047.876.306 1.292.576 1.359.883 3.29 1.64 4.18 1.64.384 0 .422.106.277.785-.108.505-.172.592-.463.626-.283.032-.338.1-.338.417v.378l2.283.034c1.731.026 2.312-.004 2.406-.126.068-.088.34-.979.605-1.98.429-1.623.461-1.849.303-2.104a74.864 74.864 0 0 0-1.097-1.617c-1.135-1.64-1.286-1.992-1.286-3.01 0-1.17-.332-2.898-.747-3.886-.545-1.297-1.692-2.928-3.03-4.31-1.947-2.013-3.397-2.955-5.385-3.5-1.393-.382-2.919-.284-5.335.342-1.525.395-2.048.475-3.156.483-1.303.008-1.339.001-1.828-.384C15.44.274 14.78 0 14.032 0c-.898 0-1.546.242-2.676.997-.604.405-1.168.672-1.61.764-.89.184-2.256.848-3.047 1.48-.764.61-2.248 2.127-2.964 3.03-.484.612-.565.662-1.057.662-.645 0-1.013.3-1.221.996-.123.408-.113.56.059.903.195.39.191.452-.058 1.117-.324.86-.364 2.153-.087 2.797.183.427.177.52-.106 1.496-.394 1.36-.389 1.579.045 1.74.19.072.574.213.851.314.439.16.563.301.954 1.08.73 1.45.884 1.57 2.388 1.856 1.005.19 1.028.19 1.48-.09a9.498 9.498 0 0 0 1.043-.803c.353-.314.998-.685 1.63-.94.94-.38 1.106-.499 1.63-1.174l.582-.751.04.677c.07 1.203-.041 1.463-1.079 2.529-.525.54-1.059 1.014-1.187 1.055-.3.095-.307.64-.012.79.234.12 1.924.327 4.318.529 2.014.17 2.113.164 2.27-.13zm18.026-.9c0-.052.06-.378.135-.726.11-.514.217-.682.567-.899.238-.147.432-.322.432-.39s-.043-.097-.095-.064c-.151.093-3.067-.376-3.636-.586-2.16-.795-5.157-3.138-5.859-4.579-.214-.44-.312-.548-.346-.38-.071.358.317 1.256.934 2.156.306.447.556.831.556.854 0 .023-1.118.026-2.486.007-3.094-.044-3.916-.237-4.94-1.16l-.43-.386-.024-1.358c-.025-1.437-.35-2.717-.949-3.732-.26-.44-.6-.652-.46-.287.656 1.71.86 3.552.544 4.896-.11.466-.59 1.63-1.068 2.585-.477.955-1.057 2.247-1.288 2.871a33.14 33.14 0 0 1-.452 1.18c-.04.06-3.998-.247-4.071-.315-.03-.028.232-.348.584-.71.352-.363.713-.801.802-.974.37-.718.245-4.684-.154-4.93-.49-.301-1.26-1.01-1.933-1.78-.74-.848-1.51-1.44-1.627-1.25-.033.052-.054.269-.048.481.03 1.041-1.942 3.316-3.305 3.813-.42.153-1.118.521-1.55.817-.664.454-.833.52-1.074.412-.235-.105-.271-.193-.205-.495.062-.279.014-.438-.2-.666-.253-.27-.268-.352-.147-.83.115-.45.098-.603-.109-1.009-.453-.887-.17-2.648.464-2.889.402-.153.393-.62-.02-1.008-.293-.275-.385-.749-.15-.77.054-.005.47.061.923.147.635.12.86.122.975.007.114-.114.077-.203-.159-.38-.29-.22-.296-.248-.105-.53.349-.513 1.772-2.06 2.43-2.64C7.73 3.62 8.615 3.125 9.845 2.77a7.354 7.354 0 0 0 2.14-.982c1.884-1.242 2.903-1.06 5.333.955.9.746 1.174.91 1.163.693-.003-.052-.175-.293-.383-.536l-.378-.44.982-.1c.54-.054 1.832-.297 2.872-.54 2.356-.55 3.088-.628 4.129-.447 1.876.327 3.61 1.385 5.482 3.346 1.87 1.958 2.856 3.573 3.277 5.364.237 1.013.294 3.262.12 4.825-.051.468-.046.85.011.85.057 0 .229-.255.38-.567.278-.572.453-.698.566-.41.034.087.439.683.9 1.324l.838 1.165-.333 1.23c-.486 1.791-.388 1.693-1.638 1.652-.584-.019-1.062-.076-1.062-.128zM3.606 12.455c.323-.347.329-.755.014-1.04-.289-.26-.717-.169-.828.179-.086.273.24 1.137.43 1.137.07 0 .243-.124.384-.276zm18.044 7.367c.007-.121.052-.361.1-.533.077-.276.146-.308.605-.275.675.049.781-.154.294-.564-.55-.462-.901-1.196-.805-1.677l.077-.386h4.129v.76c0 .419.08.953.178 1.187.172.413.164.447-.284 1.064l-.462.637-1.922.004c-1.753.003-1.921-.016-1.91-.217zM5.205 18.078c-.4-.07-.55-.186-.851-.66-.2-.316-.365-.679-.365-.805 0-.304 1.362-1.183 2.218-1.432.507-.147.851-.38 1.531-1.036.483-.465 1.092-1.172 1.355-1.57l.478-.725 1.022.977c.563.537 1.009 1.018.992 1.068-.017.051-.37.571-.787 1.156-.607.855-.85 1.095-1.23 1.218-.26.084-.809.321-1.218.526l-.745.373-.47-.264c-.259-.145-.505-.264-.547-.264-.183 0-.053.328.26.654.185.193.313.37.283.393l-.423.321c-.246.186-.48.26-.694.217a44.044 44.044 0 0 0-.81-.147z" style="fill:#000;stroke-width:.126061"/></g><g style="display:inline" id="layer7"><path id="path506" d="m15.607 21.099 2.774-.036.198-.304c.147-.224.227-.822.305-2.28.105-1.961.136-2.216.395-3.241.144-.567.234-.635.47-.35.196.235 1.629.773 2.519.944.697.134.707.141.9.735.187.57.183.646-.091 1.583-.173.591-.348.972-.438.952-.493-.108-.901.716-.442.892.108.042 1.5.076 3.093.076h2.895l.778-1.021c.516-.679.748-1.086.693-1.216-.284-.656-.47-1.25-.41-1.31.038-.038.472.068.965.236.493.168 1.475.403 2.181.522l1.286.218.412.623.413.623-.356.284c-.342.272-.35.303-.212.818.078.294.202.689.273.878l.13.342h1.745c1.536 0 1.758-.026 1.857-.218.062-.12.152-1.523.2-3.118l.086-2.901-.4-.217c-.71-.385-2.171-1.375-2.397-1.624-.167-.185-.23-.52-.268-1.413-.059-1.421-.421-3.134-.934-4.414-1.284-3.208-4.525-6.082-7.805-6.92-1.482-.38-2.487-.328-5.093.264-1.388.315-2.717.537-3.445.576-1.173.062-1.19.06-1.854-.354-.545-.34-.824-.425-1.499-.463-1.14-.065-1.757.133-2.6.833-1.013.841-1.239.972-2.17 1.26-2.15.664-4.32 2.053-5.683 3.637-.246.287-.351.32-.838.265-.495-.056-.6-.02-.93.31-.458.458-.596.951-.408 1.45.122.324.095.495-.188 1.195-.391.966-.5 1.928-.303 2.658.132.484.108.621-.282 1.645-.234.615-.4 1.183-.37 1.262.03.08.496.351 1.033.603.872.41.986.503 1.054.864.042.222.266.801.5 1.287.546 1.142 1.04 1.538 1.916 1.538.9 0 1.21-.157 1.592-.808.387-.66.484-.71 3.05-1.564 2.07-.688 2.266-.845 2.818-2.251.259-.66.372-.821.548-.775.255.067.328.417.45 2.159.096 1.392-.03 2.107-.593 3.368-.27.605-.492.927-.689 1.002-.365.139-.395.674-.049.86.133.071.287.116.343.1.056-.015 1.35-.044 2.875-.064zm19.704-1.022c-.448-.01-.466-.42-.03-.704.414-.272.393-.475-.137-1.354-.418-.693-.433-.753-.227-.903.121-.089.196-.185.167-.214-.074-.073-1.316-.386-2.797-.705-2.198-.474-4.57-1.453-5.636-2.327a3.655 3.655 0 0 1-.81-1.011c-.272-.552-.29-.565-.327-.24-.053.462.404 1.344.993 1.92.264.258.48.5.48.537 0 .14-4.288-.117-4.999-.299-.844-.216-1.67-.605-2.077-.978-.226-.207-.281-.392-.283-.952-.002-.99-.308-2.158-.818-3.13-.733-1.394-1.43-1.899-.754-.546.938 1.88 1.007 3.495.253 5.945-.324 1.054-.547 2.667-.548 3.971l-.001.826-1.88.09c-1.033.05-1.902.068-1.931.038-.03-.029.087-.41.258-.848.504-1.285.606-2.16.445-3.831-.226-2.359-.168-2.22-1.095-2.661-.851-.407-2.184-1.63-3.28-3.008-.742-.935-.93-.94-.834-.017.065.635.037.756-.284 1.216-.857 1.23-2.613 2.65-3.583 2.9-.398.102-1.116.399-1.596.66-.716.387-.923.45-1.152.346-.237-.108-.268-.195-.207-.578.057-.353.018-.5-.178-.677-.234-.212-.238-.255-.063-.674.168-.402.166-.523-.015-1.167-.216-.773-.188-1.058.206-2.076.18-.462.321-.654.484-.654.127 0 .289-.109.36-.24.102-.192.064-.317-.183-.611-.606-.72-.313-1.047.644-.72.72.245 1.164.255 1.164.027 0-.094-.121-.252-.27-.35-.265-.177-.26-.188.406-.844 1.445-1.423 2.91-2.306 4.885-2.946.69-.224 1.31-.525 1.683-.817 1.706-1.334 2.13-1.486 3.257-1.163.946.271 1.682.716 2.541 1.533.395.376.755.647.8.603.044-.045-.093-.36-.306-.702l-.385-.62.397-.06c.219-.034.706-.095 1.083-.136.378-.042 1.444-.244 2.37-.45 2.204-.491 3.31-.568 4.412-.31 2.729.643 5.72 3.098 7.003 5.748.839 1.734 1.078 2.788 1.13 4.988.026 1.029.076 1.997.112 2.151.07.296.31.391.313.125a.748.748 0 0 1 .109-.324c.082-.13.234-.07.685.275.32.243.888.626 1.264.851l.684.41v.886c0 .488-.036 1.555-.08 2.371l-.08 1.485-.7-.024c-.384-.013-.853-.027-1.042-.031zM3.78 11.642c.315-.4.317-.419.07-.772-.28-.398-.776-.369-.882.052-.104.416.083.966.347 1.016.111.022.32-.112.465-.296zm20.213 6.816c.153-.567.132-.557.796-.373.484.134 1.7.046 1.7-.124 0-.05-.337-.251-.749-.448-.77-.368-1.62-1.047-1.62-1.294 0-.153 2.528-.198 3.513-.064.552.076.554.079.682.717.071.353.168.73.216.837.057.126-.066.388-.35.748l-.437.553-1.905.062c-1.048.035-1.923.025-1.944-.022-.021-.046.023-.313.098-.592zM4.61 17.607c-.47-.709-.859-1.92-.662-2.059.359-.253 1.446-.713 2.028-.858.896-.223 2.699-1.626 3.674-2.86l.451-.57 1.008.944 1.008.945-.462.998-.462.997-1.673.547c-.92.301-1.976.68-2.344.842-.37.163-.915.295-1.216.295-.606 0-.711.179-.234.396.366.167.374.207.118.574-.32.455-.862.371-1.234-.191z" style="fill:#000;stroke-width:.1247"/></g><g style="display:inline" id="layer8"><path id="path522" d="M18.738 21.131c2.084-.056 2.575-.102 2.67-.253.064-.1.117-1.392.118-2.869.002-2.36.025-2.676.19-2.612.243.093 1.523.3 2.394.388.675.067.678.07 1.027.735.24.46.517.774.888 1.008.297.188.54.405.54.484 0 .373-.488 1.24-.735 1.304-.208.055-.258.146-.227.417l.04.347 2.881.033 2.881.033.774-.766c.48-.476.773-.869.773-1.035 0-.207.056-.254.241-.206.21.055.246.19.276 1.059l.036.996.614.47c.682.524 1.025.548 1.88.129.432-.212.49-.322 1.335-2.494.487-1.25.888-2.367.892-2.483.005-.115-.227-.418-.514-.673-.287-.255-.978-.91-1.535-1.457l-1.014-.992v-.668c0-.892-.3-2.694-.623-3.746-.591-1.927-1.48-3.304-3.235-5.009C29.556 1.572 27.914.564 26.258.173c-1.366-.322-1.989-.244-5.23.655-2.226.617-3.113.743-3.405.487-.115-.102-.456-.309-.756-.46-.461-.232-.689-.266-1.478-.22C14.272.7 13.74.957 12.18 2.187c-.822.648-1.298.919-2.15 1.224-.603.215-1.4.594-1.77.842-.853.568-2.092 1.837-2.886 2.956-.58.815-.637.86-1.01.802-.332-.052-.467.008-.83.371-.346.347-.433.529-.433.91 0 .262.082.594.183.737.163.233.161.32-.014.796-.29.784-.29 2.378-.001 2.96.225.453.225.48-.031 1.536-.143.59-.26 1.146-.26 1.234 0 .088.194.24.43.34.432.18.535.342.307.483-.135.083-.163.55-.05.843.085.222 1.047.958 2.082 1.592l.741.454 1.593-.72c.875-.397 2.074-.93 2.662-1.183 1.906-.822 2.52-1.251 3.281-2.295.377-.518.744-1.038.815-1.156.112-.187.213-.104.77.633.352.467.785 1.142.963 1.5.298.602.31.69.168 1.167-.224.748-.86 1.964-1.126 2.15-.392.276-.247.71.264.789.168.026 1.455.017 2.86-.021zm15.965-1.228c-.235-.196-.277-.351-.277-1.03 0-.789.006-.801.367-.88.202-.045.392-.12.422-.169.03-.048-.836-.36-1.924-.694-3.814-1.169-6.845-2.974-7.525-4.482-.254-.562-.471-.655-.36-.153.13.577.644 1.547 1.046 1.972.211.224.365.42.34.437-.138.094-3.943-.182-4.404-.32-.462-.138-.554-.216-.558-.474-.003-.17-.34-.886-.75-1.591a92.523 92.523 0 0 1-1.284-2.297c-.5-.937-.725-1.21-.725-.88 0 .072.39 1.137.867 2.364l.867 2.232-.16.798c-.104.515-.153 1.597-.139 3.04l.022 2.243h-.575c-.316 0-1.12.037-1.785.081l-1.21.08.241-.48c.42-.834.673-1.761.595-2.177-.145-.77-1.027-2.171-2.311-3.669-.456-.532-.742-.746-1.2-.898-.887-.294-1.489-.965-2.044-2.277-.257-.606-.532-1.102-.612-1.102-.165 0-.295.275-.295.626 0 .13-.052.333-.115.45-.064.118-.29.573-.504 1.012-.76 1.562-2.029 2.905-3.355 3.548-.55.267-1.22.676-1.49.91-.422.366-.533.408-.82.308-.29-.1-.323-.165-.266-.514.053-.329.01-.434-.243-.6-.287-.189-.3-.236-.18-.708.11-.432.091-.58-.134-1.031-.456-.912-.278-2.614.3-2.878.4-.181.374-.512-.072-.939-.4-.384-.413-.414-.264-.65.08-.127.273-.132.939-.025.993.158 1.3.017.816-.378-.344-.28-.349-.27.854-1.765 1.187-1.476 2.056-2.094 3.829-2.724.626-.223 1.236-.581 2.057-1.208 1.607-1.228 2.102-1.469 2.99-1.454.914.016 2.069.562 2.81 1.329.289.3.567.546.618.547.176.004.09-.335-.168-.663-.142-.182-.24-.35-.215-.374.051-.048 3.281-.831 4.959-1.201 2.099-.464 3.549.035 6.13 2.108 2.755 2.213 4.274 5.325 4.262 8.731-.008 2.263.164 2.981.482 2.017l.145-.44.878.864c.483.475 1.03.98 1.216 1.124.186.144.339.326.34.406 0 .08-.317.986-.707 2.015-.59 1.562-.759 1.89-1.015 1.987-.412.155-.393.157-.706-.104zM5.49 13.358c.283-.403.237-.797-.119-1.03-.29-.19-.325-.19-.552.016-.292.264-.303.446-.055.925.223.432.466.461.726.089zm21.838 5.402c.161-.472.287-.575.601-.493.31.08 1.83-.086 1.83-.2 0-.05-.374-.22-.83-.379-1.632-.566-2.856-1.29-2.856-1.689 0-.12.114-.15.4-.108.219.034.647.093.951.132.775.1 3.665 1.491 4.075 1.961l.328.376-.383.4-.383.399h-3.87ZM5.65 18.48c-.456-.305-.828-.61-.828-.679 0-.259.414-.266.93-.016.59.288.836.167.474-.233-.21-.231-.205-.253.124-.597.366-.382 1.52-1.033 2.052-1.158.4-.094 2.056-1.874 2.76-2.968l.507-.785.297.418c.38.534 1.117 1.12 1.652 1.313.229.083.417.209.417.28 0 .07-.29.562-.645 1.09-.773 1.154-1.358 1.543-3.962 2.638-.946.398-1.94.84-2.21.983-.271.142-.548.261-.616.264-.069.003-.497-.244-.952-.55z" style="fill:#000;stroke-width:.12284"/></g><g style="display:inline" id="layer9"><path id="path538" d="M31.815 20.755c1.146-.857 1.058-.834 3.265-.871l2.043-.035.552-.936.551-.936-.357-1.887c-.474-2.498-.472-3.977.008-5.902l.345-1.38-.306-.84c-.852-2.34-2.483-4.234-5.519-6.412C31.292.763 30.46.386 29.246.128c-1.157-.245-2.085-.162-5.147.46-3.358.68-3.7.713-4.116.385-1.418-1.115-3.199-.977-4.91.381-1.234.98-1.588 1.181-2.72 1.552-1.655.541-2.71 1.149-3.802 2.19-.539.514-1.073 1.093-1.188 1.287-.176.298-.292.354-.73.354-.965 0-1.574 1.043-1.14 1.954.185.387.184.458-.008.896-.29.664-.3 2.592-.014 3.112.196.358.191.436-.103 1.545-.24.903-.277 1.207-.164 1.343.151.182 2.055.812 2.454.812.123 0 .55-.256.947-.568.719-.565 1.637-1.056 1.984-1.06.1-.002.336-.152.525-.332l.343-.329.135.504c.135.501.131.51-.806 1.849-.518.74-1.008 1.565-1.088 1.835-.095.317-.262.546-.47.646-.368.176-.48.518-.258.786.122.147.609.182 2.572.182h2.422l1.318-1.442c1.001-1.095 1.38-1.61 1.578-2.138.144-.383.26-.75.26-.816 0-.288.329-.03 1.905 1.5l1.672 1.62-.565.585c-.31.322-.72.667-.91.767-.346.182-.483.702-.225.861.209.13 5.705.217 5.881.094.402-.28.494-1.637.204-2.976l-.265-1.223c-.072-.337-.06-.345.5-.345.407 0 .62.065.737.225.56.769 2.088 1.406 3.375 1.406.408 0 .741.03.741.068 0 .038-.094.443-.209.9l-.209.833.397.332c.219.183.398.394.398.47 0 .19.358.534.555.534.089 0 .41-.186.713-.412zM21.01 19.81c0-.055.197-.292.439-.526.241-.235.439-.526.439-.65 0-.27-3.014-3.25-4.165-4.117-1.295-.975-1.86-1.873-2.863-4.55-.226-.604-.475-1.098-.554-1.098-.078 0-.21.155-.294.345-.62 1.41-1.15 2.171-2.343 3.357-1.012 1.006-1.39 1.298-1.908 1.474-.355.121-1 .482-1.434.8-.675.498-.835.565-1.111.468-.271-.096-.316-.179-.281-.522.03-.302-.031-.466-.238-.633-.246-.2-.265-.282-.159-.718.097-.4.072-.6-.131-1.058-.45-1.013-.238-2.658.373-2.89.428-.163.392-.613-.08-1.002-.28-.23-.361-.379-.297-.546.078-.203.182-.22.907-.142.45.048.894.117.986.152.268.103.193-.34-.098-.576-.261-.212-.257-.22.644-1.184 1.1-1.178 2.09-1.787 3.936-2.42.766-.263 1.595-.643 1.883-.863l1.126-.862c.805-.615 1.356-.834 2.096-.834.93 0 1.901.426 2.74 1.203.86.795 1.16.886.775.233-.145-.246-.263-.491-.263-.546 0-.055.438-.134.972-.175.535-.042 1.792-.254 2.792-.472 3.095-.675 4.713-.527 6.405.587 1.78 1.172 4.12 3.323 4.6 4.229.218.408.288 1.663.11 1.951-.058.095-.327-.235-.723-.889-.729-1.202-.704-1.17-.817-1.057-.101.101.251 1.147.67 1.99.163.325.295.77.295.988 0 .482-.464 1.555-1.324 3.063-1.041 1.824-1.007 1.742-.692 1.66.233-.061.401.129 1.206 1.364.515.789.936 1.483.936 1.542 0 .302-4.062 2.956-4.353 2.845-.3-.115-.323-.429-.095-1.27.156-.577.327-.91.578-1.12.196-.165.356-.318.356-.34 0-.021-.804-.042-1.788-.045-1.539-.006-1.866-.044-2.352-.269-1.073-.497-1.904-1.661-2.258-3.16-.164-.695-.12-3.498.06-3.937.053-.125.036-.22-.037-.22-.17 0-.61 1.36-.772 2.385-.174 1.108-.16 1.928.05 2.822.19.808.123.974-.368.912-.331-.043-.987-1.778-1.211-3.207l-.163-1.033-.882-.447a12.446 12.446 0 0 1-1.535-.939c-.723-.545-.79-.571-.79-.316 0 .097.528.675 1.173 1.286 1.164 1.103 1.172 1.115 1.245 1.825.04.394.422 1.748.85 3.009.592 1.752.791 2.524.842 3.269l.067.975h-1.586c-.873 0-1.586-.045-1.586-.101zM7.7 12.178c.311-.396.321-.53.065-.896-.32-.457-.934-.29-.934.254 0 .294.346.973.496.973.062 0 .23-.149.373-.33zm27.18 6.629.905-.766c.432-.366.818-.795.858-.954.08-.32.12-.245-1.313-2.457l-1.023-1.581.584-.866c.881-1.307 1.216-2.12 1.233-3 .014-.753.347-1.643.564-1.509.06.037.192.313.295.615.174.51.166.631-.117 1.788-.558 2.287-.539 3.295.132 6.815.173.91.172.92-.158 1.466l-.332.55h-.873c-.48 0-.82-.046-.754-.101zm-24.16-.126c0-.124.292-.647.648-1.16 1.187-1.713 1.242-1.775 1.423-1.624.195.162.38-.042.241-.267-.048-.078-.214-.638-.368-1.245l-.281-1.104.428-.416c.236-.228.633-.712.883-1.074l.454-.66.282.696c.352.865.982 1.914 1.453 2.418.435.466.437.524.052 1.506-.235.602-.56 1.053-1.411 1.964l-1.106 1.182-1.349.006c-1.219.005-1.349-.017-1.349-.222z" style="fill:#000;stroke-width:.125476"/></g><g style="display:inline" id="layer10"><path id="path554" d="M23.898 20.883c.312-.493.786-3.078.856-4.669.018-.406.082-.599.197-.599.4 0 2.675.271 3.28.39.618.123.684.174 1.095.848.24.395.634.908.876 1.142.425.41.434.438.28.88-.104.302-.256.48-.449.525-.403.095-.607.441-.428.726.118.187.375.226 1.695.256.855.02 1.622.091 1.703.159.19.157 1.305.496 1.638.498.32.002 2.162-1.845 2.703-2.711.467-.747.893-2.05.882-2.695-.006-.389-.093-.527-.566-.901-.621-.492-.613-.406-.18-1.956.425-1.52.404-3.441-.055-4.794-.712-2.104-1.917-3.627-4.393-5.552C30.982.836 29.56.177 27.85.025c-.748-.067-1.244-.01-2.801.316-2.531.531-4.576.889-5.087.89-.244 0-.586-.124-.82-.298-.706-.525-1.515-.755-2.326-.663-.892.101-1.648.48-2.912 1.458-.722.558-1.264.855-2.106 1.151-2.202.777-3.452 1.634-4.702 3.224-.619.788-.865 1.014-1.05.966-.365-.096-.922.187-1.16.59-.268.454-.276 1.243-.016 1.53.18.2.18.28 0 .885-.28.945-.256 2.143.06 2.876l.258.6-.25 1.12c-.15.67-.207 1.198-.143 1.316.107.201 2.138.827 2.579.795.132-.01.494-.262.804-.56l.563-.543-.077.505a9.905 9.905 0 0 1-.21.97c-.13.464-.135.466-1.103.629-1.105.186-1.417.412-1.417 1.026 0 .611.209.805 1.262 1.167 1.379.476 2.597.526 3.776.156l.937-.294.951-1.386c1.034-1.503 2.446-2.99 3.586-3.773.692-.475.736-.488 1.102-.314.331.157.438.349.808 1.449.234.697.607 1.653.83 2.124l.404.857-.614.63c-.338.346-.742.68-.898.742-.412.162-.387.715.04.878.178.067 1.51.123 2.962.123 2.599 0 2.641-.005 2.818-.284zm-4.085-.828c0-.057.175-.27.39-.473.648-.618.66-.714.188-1.498-.37-.614-.938-2.054-1.492-3.784-.14-.435-.266-.549-1.062-.952-1.029-.52-1.81-1.103-2.463-1.833-.502-.563-1.44-1.977-1.558-2.347-.097-.305-.438-.315-.438-.012 0 .125-.26.751-.578 1.391-.765 1.543-2.326 3.228-3.497 3.776a8.63 8.63 0 0 0-1.483.936c-.564.46-.754.55-.977.467-.213-.078-.278-.205-.278-.534 0-.316-.081-.484-.303-.63-.278-.181-.294-.243-.186-.723.102-.451.073-.614-.201-1.165-.353-.71-.384-1.036-.185-1.964.093-.433.23-.691.442-.83.423-.277.393-.704-.072-1.015-.39-.26-.445-.393-.276-.66.074-.116.318-.13.943-.055 1.017.122 1.298.003.86-.364-.275-.23-.287-.284-.135-.568.287-.536 1.665-1.891 2.393-2.354.637-.404 1.272-.683 2.954-1.298.34-.124 1.102-.594 1.691-1.044 1.453-1.108 2.01-1.343 2.948-1.245.93.097 1.855.564 2.7 1.362.708.67.956.665.545-.011-.14-.229-.236-.427-.215-.441.021-.014.578-.093 1.237-.175.66-.081 1.965-.329 2.902-.549 3.638-.855 4.966-.505 8.327 2.194 1.499 1.202 2.405 2.227 3.013 3.406.328.636.393.905.388 1.599l-.006.834-.305-.948c-.51-1.584-1.027-1.973-.636-.48.37 1.417.39 2.465.073 3.848-.156.681-.339 1.342-.405 1.468-.177.337.097.672 1.204 1.474 1.074.779 1.096.839.717 1.94-.302.88-.58 1.286-1.628 2.381-1.146 1.197-1.414 1.141-1.14-.237.152-.762.195-.834.612-1.01l.448-.19-1.388-.475c-2.451-.84-3.787-1.66-5.108-3.133-.751-.838-1.556-2.42-1.767-3.473-.21-1.04-.433-.809-.322.334.105 1.086.563 2.509 1.068 3.322.205.329.36.611.345.626-.016.016-.424-.023-.907-.087a74.54 74.54 0 0 0-1.605-.192l-.725-.076v-.552c0-.496-.06-.607-.59-1.095-.774-.712-2.818-2.823-3.038-3.136-.188-.27-.41-.327-.41-.106 0 .196 1.562 2.414 2.38 3.377l.682.805-.088 1.403c-.078 1.243-.464 3.931-.65 4.522-.058.187-.283.223-1.606.257-.846.022-1.58.052-1.633.067-.052.015-.094-.019-.094-.075zM7.115 12.649c.441-.44.35-1.095-.178-1.263-.557-.177-.837.589-.428 1.173.231.33.349.348.606.09zm24.329 6.436c.111-.245.238-.316.565-.316.231 0 .421-.056.421-.126s-.043-.128-.095-.13c-.165-.006-1.233-.981-1.157-1.057.04-.04.295.034.568.165.272.131.736.31 1.03.398.584.173.599.207.404.908l-.131.473H31.3Zm-23.055.11c-.448-.112-.815-.247-.815-.3 0-.14 1.295-.28 1.686-.182.25.063.333.036.333-.109 0-.105-.07-.216-.156-.244-.118-.04-.083-.357.145-1.304.459-1.905.515-2.072.692-2.072.277 0 2.551-2.442 2.979-3.2l.403-.714.35.475c.402.544.612.767 1.443 1.527.329.3.58.56.557.577-1.617 1.154-2.773 2.332-3.872 3.944-.434.637-.858 1.214-.94 1.283-.165.136-1.396.494-1.764.513-.125.006-.593-.08-1.041-.193zm27.925-7.207c.21-1.856.25-2.05.426-2.05.1 0 .117.27.058.909-.099 1.06-.471 2.623-.625 2.623-.015 0 .049-.667.141-1.482z" style="fill:#000;stroke-width:.126172"/></g><g style="display:inline" id="layer11"><path id="path570" d="M31.815 20.755c1.146-.857 1.058-.834 3.265-.871l2.043-.035.552-.936.551-.936-.357-1.887c-.474-2.498-.472-3.977.008-5.902l.345-1.38-.306-.84c-.852-2.34-2.483-4.234-5.519-6.412C31.292.763 30.46.386 29.246.128c-1.157-.245-2.085-.162-5.147.46-3.358.68-3.7.713-4.116.385-1.418-1.115-3.199-.977-4.91.381-1.234.98-1.588 1.181-2.72 1.552-1.655.541-2.71 1.149-3.802 2.19-.539.514-1.073 1.093-1.188 1.287-.176.298-.292.354-.73.354-.965 0-1.574 1.043-1.14 1.954.185.387.184.458-.008.896-.29.664-.3 2.592-.014 3.112.196.358.191.436-.103 1.545-.24.903-.277 1.207-.164 1.343.151.182 2.055.812 2.454.812.123 0 .55-.256.947-.568.719-.565 1.637-1.056 1.984-1.06.1-.002.336-.152.525-.332l.343-.329.135.504c.135.501.131.51-.806 1.849-.518.74-1.008 1.565-1.088 1.835-.095.317-.262.546-.47.646-.368.176-.48.518-.258.786.122.147.609.182 2.572.182h2.422l1.318-1.442c1.001-1.095 1.38-1.61 1.578-2.138.144-.383.26-.75.26-.816 0-.288.329-.03 1.905 1.5l1.672 1.62-.565.585c-.31.322-.72.667-.91.767-.346.182-.483.702-.225.861.209.13 5.705.217 5.881.094.402-.28.494-1.637.204-2.976a530.27 530.27 0 0 1-.265-1.223c-.072-.337-.06-.345.5-.345.407 0 .62.065.737.225.56.769 2.088 1.406 3.375 1.406.408 0 .741.03.741.068 0 .038-.094.443-.209.9l-.209.833.397.332c.219.183.398.394.398.47 0 .19.358.534.555.534.089 0 .41-.186.713-.412zM21.01 19.81c0-.055.197-.292.439-.526.241-.235.439-.526.439-.65 0-.27-3.014-3.25-4.165-4.117-1.295-.975-1.86-1.873-2.863-4.55-.226-.604-.475-1.098-.554-1.098-.078 0-.21.155-.294.345-.62 1.41-1.15 2.171-2.343 3.357-1.012 1.006-1.39 1.298-1.908 1.474-.355.121-1 .482-1.434.8-.675.498-.835.565-1.111.468-.271-.096-.316-.179-.281-.522.03-.302-.031-.466-.238-.633-.246-.2-.265-.282-.159-.718.097-.4.072-.6-.131-1.058-.45-1.013-.238-2.658.373-2.89.428-.163.392-.613-.08-1.002-.28-.23-.361-.379-.297-.546.078-.203.182-.22.907-.142.45.048.894.117.986.152.268.103.193-.34-.098-.576-.261-.212-.257-.22.644-1.184 1.1-1.178 2.09-1.787 3.936-2.42.766-.263 1.595-.643 1.883-.863l1.126-.862c.805-.615 1.356-.834 2.096-.834.93 0 1.901.426 2.74 1.203.86.795 1.16.886.775.233-.145-.246-.263-.491-.263-.546 0-.055.438-.134.972-.175.535-.042 1.792-.254 2.792-.472 3.095-.675 4.713-.527 6.405.587 1.78 1.172 4.12 3.323 4.6 4.229.218.408.288 1.663.11 1.951-.058.095-.327-.235-.723-.889-.729-1.202-.704-1.17-.817-1.057-.101.101.251 1.147.67 1.99.163.325.295.77.295.988 0 .482-.464 1.555-1.324 3.063-1.041 1.824-1.007 1.742-.692 1.66.233-.061.401.129 1.206 1.364.515.789.936 1.483.936 1.542 0 .302-4.062 2.956-4.353 2.845-.3-.115-.323-.429-.095-1.27.156-.577.327-.91.578-1.12.196-.165.356-.318.356-.34 0-.021-.804-.042-1.788-.045-1.539-.006-1.866-.044-2.352-.269-1.073-.497-1.904-1.661-2.258-3.16-.164-.695-.12-3.498.06-3.937.053-.125.036-.22-.037-.22-.17 0-.61 1.36-.772 2.385-.174 1.108-.16 1.928.05 2.822.19.808.123.974-.368.912-.331-.043-.987-1.778-1.211-3.207l-.163-1.033-.882-.447a12.446 12.446 0 0 1-1.535-.939c-.723-.545-.79-.571-.79-.316 0 .097.528.675 1.173 1.286 1.164 1.103 1.172 1.115 1.245 1.825.04.394.422 1.748.85 3.009.592 1.752.791 2.524.842 3.269l.067.975h-1.586c-.873 0-1.586-.045-1.586-.101zM7.7 12.178c.311-.396.321-.53.065-.896-.32-.457-.934-.29-.934.254 0 .294.346.973.496.973.062 0 .23-.149.373-.33zm27.18 6.629.905-.766c.432-.366.818-.795.858-.954.08-.32.12-.245-1.313-2.457l-1.023-1.581.584-.866c.881-1.307 1.216-2.12 1.233-3 .014-.753.347-1.643.564-1.509.06.037.192.313.295.615.174.51.166.631-.117 1.788-.558 2.287-.539 3.295.132 6.815.173.91.172.92-.158 1.466l-.332.55h-.873c-.48 0-.82-.046-.754-.101zm-24.16-.126c0-.124.292-.647.648-1.16 1.187-1.713 1.242-1.775 1.423-1.624.195.162.38-.042.241-.267-.048-.078-.214-.638-.368-1.245l-.281-1.104.428-.416c.236-.228.633-.712.883-1.074l.454-.66.282.696c.352.865.982 1.914 1.453 2.418.435.466.437.524.052 1.506-.235.602-.56 1.053-1.411 1.964l-1.106 1.182-1.349.006c-1.219.005-1.349-.017-1.349-.222z" style="fill:#000;stroke-width:.125476"/></g><g style="display:inline" id="layer12"><path id="path586" d="M31.815 20.755c1.146-.857 1.058-.834 3.265-.871l2.043-.035.552-.936.551-.936-.357-1.887c-.474-2.498-.472-3.977.008-5.902l.345-1.38-.306-.84c-.852-2.34-2.483-4.234-5.519-6.412C31.292.763 30.46.386 29.246.128c-1.157-.245-2.085-.162-5.147.46-3.358.68-3.7.713-4.116.385-1.418-1.115-3.199-.977-4.91.381-1.234.98-1.588 1.181-2.72 1.552-1.655.541-2.71 1.149-3.802 2.19-.539.514-1.073 1.093-1.188 1.287-.176.298-.292.354-.73.354-.965 0-1.574 1.043-1.14 1.954.185.387.184.458-.008.896-.29.664-.3 2.592-.014 3.112.196.358.191.436-.103 1.545-.24.903-.277 1.207-.164 1.343.151.182 2.055.812 2.454.812.123 0 .55-.256.947-.568.719-.565 1.637-1.056 1.984-1.06.1-.002.336-.152.525-.332l.343-.329.135.504c.135.501.131.51-.806 1.849-.518.74-1.008 1.565-1.088 1.835-.095.317-.262.546-.47.646-.368.176-.48.518-.258.786.122.147.609.182 2.572.182h2.422l1.318-1.442c1.001-1.095 1.38-1.61 1.578-2.138.144-.383.26-.75.26-.816 0-.288.329-.03 1.905 1.5l1.672 1.62-.565.585c-.31.322-.72.667-.91.767-.346.182-.483.702-.225.861.209.13 5.705.217 5.881.094.402-.28.494-1.637.204-2.976l-.265-1.223c-.072-.337-.06-.345.5-.345.407 0 .62.065.737.225.56.769 2.088 1.406 3.375 1.406.408 0 .741.03.741.068 0 .038-.094.443-.209.9l-.209.833.397.332c.219.183.398.394.398.47 0 .19.358.534.555.534.089 0 .41-.186.713-.412zM21.01 19.81c0-.055.197-.292.439-.526.241-.235.439-.526.439-.65 0-.27-3.014-3.25-4.165-4.117-1.295-.975-1.86-1.873-2.863-4.55-.226-.604-.475-1.098-.554-1.098-.078 0-.21.155-.294.345-.62 1.41-1.15 2.171-2.343 3.357-1.012 1.006-1.39 1.298-1.908 1.474-.355.121-1 .482-1.434.8-.675.498-.835.565-1.111.468-.271-.096-.316-.179-.281-.522.03-.302-.031-.466-.238-.633-.246-.2-.265-.282-.159-.718.097-.4.072-.6-.131-1.058-.45-1.013-.238-2.658.373-2.89.428-.163.392-.613-.08-1.002-.28-.23-.361-.379-.297-.546.078-.203.182-.22.907-.142.45.048.894.117.986.152.268.103.193-.34-.098-.576-.261-.212-.257-.22.644-1.184 1.1-1.178 2.09-1.787 3.936-2.42.766-.263 1.595-.643 1.883-.863l1.126-.862c.805-.615 1.356-.834 2.096-.834.93 0 1.901.426 2.74 1.203.86.795 1.16.886.775.233-.145-.246-.263-.491-.263-.546 0-.055.438-.134.972-.175.535-.042 1.792-.254 2.792-.472 3.095-.675 4.713-.527 6.405.587 1.78 1.172 4.12 3.323 4.6 4.229.218.408.288 1.663.11 1.951-.058.095-.327-.235-.723-.889-.729-1.202-.704-1.17-.817-1.057-.101.101.251 1.147.67 1.99.163.325.295.77.295.988 0 .482-.464 1.555-1.324 3.063-1.041 1.824-1.007 1.742-.692 1.66.233-.061.401.129 1.206 1.364.515.789.936 1.483.936 1.542 0 .302-4.062 2.956-4.353 2.845-.3-.115-.323-.429-.095-1.27.156-.577.327-.91.578-1.12.196-.165.356-.318.356-.34 0-.021-.804-.042-1.788-.045-1.539-.006-1.866-.044-2.352-.269-1.073-.497-1.904-1.661-2.258-3.16-.164-.695-.12-3.498.06-3.937.053-.125.036-.22-.037-.22-.17 0-.61 1.36-.772 2.385-.174 1.108-.16 1.928.05 2.822.19.808.123.974-.368.912-.331-.043-.987-1.778-1.211-3.207l-.163-1.033-.882-.447a12.446 12.446 0 0 1-1.535-.939c-.723-.545-.79-.571-.79-.316 0 .097.528.675 1.173 1.286 1.164 1.103 1.172 1.115 1.245 1.825.04.394.422 1.748.85 3.009.592 1.752.791 2.524.842 3.269l.067.975h-1.586c-.873 0-1.586-.045-1.586-.101zM7.7 12.178c.311-.396.321-.53.065-.896-.32-.457-.934-.29-.934.254 0 .294.346.973.496.973.062 0 .23-.149.373-.33zm27.18 6.629.905-.766c.432-.366.818-.795.858-.954.08-.32.12-.245-1.313-2.457l-1.023-1.581.584-.866c.881-1.307 1.216-2.12 1.233-3 .014-.753.347-1.643.564-1.509.06.037.192.313.295.615.174.51.166.631-.117 1.788-.558 2.287-.539 3.295.132 6.815.173.91.172.92-.158 1.466l-.332.55h-.873c-.48 0-.82-.046-.754-.101zm-24.16-.126c0-.124.292-.647.648-1.16 1.187-1.713 1.242-1.775 1.423-1.624.195.162.38-.042.241-.267-.048-.078-.214-.638-.368-1.245l-.281-1.104.428-.416c.236-.228.633-.712.883-1.074l.454-.66.282.696c.352.865.982 1.914 1.453 2.418.435.466.437.524.052 1.506-.235.602-.56 1.053-1.411 1.964l-1.106 1.182-1.349.006c-1.219.005-1.349-.017-1.349-.222z" style="fill:#000;stroke-width:.125476"/></g><g style="display:inline" id="layer13"><path id="path602" d="M21.012 21.003c1.126-.403 1.994-1.226 2.307-2.188.135-.415.128-.537-.048-.806-.308-.47-1.098-.578-1.9-.26-.16.064-.27-.075-.477-.603-.508-1.303-.566-1.21.72-1.159l1.13.045.786.807c.48.49 1.023.903 1.39 1.054.58.238.75.467.475.636-.07.044-.129.401-.129.793 0 .462-.068.782-.194.908-.237.237-.24.32-.026.614.159.217.247.22 1.585.033 1.764-.245 3.263-.712 4.23-1.32l.744-.465v-.831c0-.457.055-.831.123-.831s.323.13.567.29c.243.16.538.35.656.421.315.19.147 1.359-.195 1.359-.335 0-.551.447-.375.776.13.243.27.258 2.313.258 2.49 0 2.241.111 3.107-1.388.626-1.086.705-.753-.762-3.204l-.93-1.552.062-1.294c.034-.711.192-1.817.352-2.458l.29-1.164-.445-1.18c-.886-2.347-1.885-3.775-3.75-5.36C30.425 1.07 29.104.36 27.314.083c-.983-.154-1.522-.115-3.862.276-.82.136-2.273.34-3.23.451l-1.74.203-.716-.362c-.62-.314-.863-.362-1.815-.36-1.276.004-1.904.264-3.191 1.323-1.058.869-1.26.981-2.501 1.386-1.788.584-2.89 1.278-4.484 2.824-.697.676-.84.761-1.152.683-.837-.21-1.707.675-1.554 1.58.13.768.12.826-.25 1.704-.38.897-.472 2.081-.213 2.742.112.286.06.51-.31 1.358-.658 1.51-.665 1.493.816 2.187 1.206.565 1.275.582 1.584.385.825-.526 2.104-1.106 2.61-1.186.524-.082 2.069-.987 2.778-1.627.152-.138.302-.203.333-.144.03.058.017.689-.03 1.4l-.084 1.294-.72 1.1c-.852 1.3-1.444 1.963-1.974 2.213-.428.2-.56.544-.32.833.126.152.62.187 2.587.187h2.432l.948-1.238c.522-.68 1.129-1.522 1.35-1.87l.4-.631.864 1.277c1.098 1.622 2.178 2.642 3.083 2.911.802.238 1.43.244 2.058.02zm-1.927-1.187a3.375 3.375 0 0 1-.85-.55c-.514-.486-1.681-2.15-2.72-3.877-.772-1.284-.95-1.495-1.49-1.768-1.22-.619-2.746-2.617-2.944-3.856-.101-.631-.433-.66-.433-.039 0 .246.064.747.143 1.113l.143.667-.563.576c-.893.911-2.721 2.1-3.571 2.321-.41.107-1.157.416-1.662.688-.887.479-.927.488-1.212.273-.256-.194-.274-.26-.137-.517.134-.25.116-.351-.124-.676-.269-.363-.273-.405-.082-.883.182-.455.182-.548-.004-.993-.388-.928.027-2.576.737-2.929.433-.215.459-.621.069-1.084-.279-.331-.301-.42-.158-.617.128-.174.226-.199.416-.102.528.27 1.51.443 1.658.291.104-.106.056-.215-.18-.408L5.8 7.183l.885-.839c.487-.46 1.235-1.064 1.662-1.34.693-.448 1.246-.69 3.337-1.46.32-.118 1.019-.564 1.552-.99 1.42-1.136 1.913-1.337 3.105-1.268 1.116.065 2.117.458 2.889 1.136.564.495.774.425.368-.124-.155-.21-.282-.413-.282-.451 0-.039.444-.07.985-.07.542 0 1.866-.154 2.943-.343 4.236-.74 5.363-.443 8.663 2.288.881.73 1.248 1.112 1.195 1.248-.044.114.122.466.392.834.475.647.828 1.57.828 2.162v.327l-.404-.38c-.222-.209-.63-.661-.906-1.006-.367-.458-.5-.559-.5-.375 0 .296.515 1.3.98 1.91l.328.43-.283.56c-.395.78-1.43 2.23-2.89 4.042-1.225 1.524-1.426 1.886-1.046 1.886.106 0 .194-.058.194-.13 0-.07.056-.129.124-.129.201 0 .673 1.786.696 2.635l.02.786-.642.35c-.777.424-2.093.846-2.995.96-.662.084-.662.084-.72-.31-.072-.49.385-1.292.89-1.556l.36-.188-.322-.125c-2.264-.88-2.833-1.269-3.326-2.274-.339-.688-.359-.828-.352-2.412.007-1.346.062-1.844.278-2.49.312-.936.2-1.05-.252-.26-.74 1.296-1.22 3.114-1.101 4.173l.066.582h-.8c-1.276 0-1.301-.053-.846-1.792.211-.808.384-1.548.384-1.643 0-.096-.405-.437-.9-.757-.522-.337-1.044-.801-1.246-1.105-.343-.52-.57-.667-.57-.371 0 .38.584 1.297 1.184 1.859l.657.614-.404 1.436c-.57 2.024-.524 3.17.183 4.666.412.871.85 1.074 1.71.793.369-.12.369.022 0 .462a2.45 2.45 0 0 1-2.785.682zM4.933 12.215c.348-.37.36-.755.032-1.051-.293-.265-.775-.168-.805.162-.057.61.14 1.188.401 1.188.05 0 .218-.135.372-.3zm29.13 6.774v-.51l.679-.04.68-.039-.971-.654a35.864 35.864 0 0 0-1.553-.993c-.991-.577-2.07-1.84-2.07-2.424 0-.075.307-.47.681-.878 1.66-1.81 2.555-3.206 3.067-4.778.416-1.28.349-1.303.912.303.227.647.226.694-.017 1.617-.292 1.112-.447 2.921-.32 3.763.06.397.405 1.124 1.054 2.216l.965 1.625-.4.651-.4.652h-2.307Zm-24.58.437c0-.041.081-.155.18-.253.097-.098.518-.718.935-1.378.817-1.295.928-1.751.948-3.89.004-.48.04-.874.08-.874s.312.264.604.585c.293.322.812.757 1.154.967.381.235.652.506.701.703.106.422-.261 1.505-.667 1.969-.178.203-.649.79-1.047 1.307l-.724.938h-1.082c-.594 0-1.081-.034-1.081-.074z" style="fill:#000;stroke-width:.129363"/></g><g style="display:inline" id="layer14"><path id="path618" d="M21.012 21.003c1.126-.403 1.994-1.226 2.307-2.188.135-.415.128-.537-.048-.806-.308-.47-1.098-.578-1.9-.26-.16.064-.27-.075-.477-.603-.508-1.303-.566-1.21.72-1.159l1.13.045.786.807c.48.49 1.023.903 1.39 1.054.58.238.75.467.475.636-.07.044-.129.401-.129.793 0 .462-.068.782-.194.908-.237.237-.24.32-.026.614.159.217.247.22 1.585.033 1.764-.245 3.263-.712 4.23-1.32l.744-.465v-.831c0-.457.055-.831.123-.831s.323.13.567.29c.243.16.538.35.656.421.315.19.147 1.359-.195 1.359-.335 0-.551.447-.375.776.13.243.27.258 2.313.258 2.49 0 2.241.111 3.107-1.388.626-1.086.705-.753-.762-3.204l-.93-1.552.062-1.294c.034-.711.192-1.817.352-2.458l.29-1.164-.445-1.18c-.886-2.347-1.885-3.775-3.75-5.36C30.425 1.07 29.104.36 27.314.083c-.983-.154-1.522-.115-3.862.276-.82.136-2.273.34-3.23.451l-1.74.203-.716-.362c-.62-.314-.863-.362-1.815-.36-1.276.004-1.904.264-3.191 1.323-1.058.869-1.26.981-2.501 1.386-1.788.584-2.89 1.278-4.484 2.824-.697.676-.84.761-1.152.683-.837-.21-1.707.675-1.554 1.58.13.768.12.826-.25 1.704-.38.897-.472 2.081-.213 2.742.112.286.06.51-.31 1.358-.658 1.51-.665 1.493.816 2.187 1.206.565 1.275.582 1.584.385.825-.526 2.104-1.106 2.61-1.186.524-.082 2.069-.987 2.778-1.627.152-.138.302-.203.333-.144.03.058.017.689-.03 1.4l-.084 1.294-.72 1.1c-.852 1.3-1.444 1.963-1.974 2.213-.428.2-.56.544-.32.833.126.152.62.187 2.587.187h2.432l.948-1.238c.522-.68 1.129-1.522 1.35-1.87l.4-.631.864 1.277c1.098 1.622 2.178 2.642 3.083 2.911.802.238 1.43.244 2.058.02zm-1.927-1.187a3.375 3.375 0 0 1-.85-.55c-.514-.486-1.681-2.15-2.72-3.877-.772-1.284-.95-1.495-1.49-1.768-1.22-.619-2.746-2.617-2.944-3.856-.101-.631-.433-.66-.433-.039 0 .246.064.747.143 1.113l.143.667-.563.576c-.893.911-2.721 2.1-3.571 2.321-.41.107-1.157.416-1.662.688-.887.479-.927.488-1.212.273-.256-.194-.274-.26-.137-.517.134-.25.116-.351-.124-.676-.269-.363-.273-.405-.082-.883.182-.455.182-.548-.004-.993-.388-.928.027-2.576.737-2.929.433-.215.459-.621.069-1.084-.279-.331-.301-.42-.158-.617.128-.174.226-.199.416-.102.528.27 1.51.443 1.658.291.104-.106.056-.215-.18-.408L5.8 7.183l.885-.839c.487-.46 1.235-1.064 1.662-1.34.693-.448 1.246-.69 3.337-1.46.32-.118 1.019-.564 1.552-.99 1.42-1.136 1.913-1.337 3.105-1.268 1.116.065 2.117.458 2.889 1.136.564.495.774.425.368-.124-.155-.21-.282-.413-.282-.451 0-.039.444-.07.985-.07.542 0 1.866-.154 2.943-.343 4.236-.74 5.363-.443 8.663 2.288.881.73 1.248 1.112 1.195 1.248-.044.114.122.466.392.834.475.647.828 1.57.828 2.162v.327l-.404-.38c-.222-.209-.63-.661-.906-1.006-.367-.458-.5-.559-.5-.375 0 .296.515 1.3.98 1.91l.328.43-.283.56c-.395.78-1.43 2.23-2.89 4.042-1.225 1.524-1.426 1.886-1.046 1.886.106 0 .194-.058.194-.13 0-.07.056-.129.124-.129.201 0 .673 1.786.696 2.635l.02.786-.642.35c-.777.424-2.093.846-2.995.96-.662.084-.662.084-.72-.31-.072-.49.385-1.292.89-1.556l.36-.188-.322-.125c-2.264-.88-2.833-1.269-3.326-2.274-.339-.688-.359-.828-.352-2.412.007-1.346.062-1.844.278-2.49.312-.936.2-1.05-.252-.26-.74 1.296-1.22 3.114-1.101 4.173l.066.582h-.8c-1.276 0-1.301-.053-.846-1.792.211-.808.384-1.548.384-1.643 0-.096-.405-.437-.9-.757-.522-.337-1.044-.801-1.246-1.105-.343-.52-.57-.667-.57-.371 0 .38.584 1.297 1.184 1.859l.657.614-.404 1.436c-.57 2.024-.524 3.17.183 4.666.412.871.85 1.074 1.71.793.369-.12.369.022 0 .462a2.45 2.45 0 0 1-2.785.682zM4.933 12.215c.348-.37.36-.755.032-1.051-.293-.265-.775-.168-.805.162-.057.61.14 1.188.401 1.188.05 0 .218-.135.372-.3zm29.13 6.774v-.51l.679-.04.68-.039-.971-.654a35.864 35.864 0 0 0-1.553-.993c-.991-.577-2.07-1.84-2.07-2.424 0-.075.307-.47.681-.878 1.66-1.81 2.555-3.206 3.067-4.778.416-1.28.349-1.303.912.303.227.647.226.694-.017 1.617-.292 1.112-.447 2.921-.32 3.763.06.397.405 1.124 1.054 2.216l.965 1.625-.4.651-.4.652h-2.307zm-24.58.437c0-.041.081-.155.18-.253.097-.098.518-.718.935-1.378.817-1.295.928-1.751.948-3.89.004-.48.04-.874.08-.874s.312.264.604.585c.293.322.812.757 1.154.967.381.235.652.506.701.703.106.422-.261 1.505-.667 1.969-.178.203-.649.79-1.047 1.307l-.724.938h-1.082c-.594 0-1.081-.034-1.081-.074z" style="fill:#000;stroke-width:.129363"/></g><g style="display:inline" id="layer15"><path id="path634" d="M26.279 21.041a10.19 10.19 0 0 0 2.136-1.132l.53-.38.068-1.183c.036-.65.133-1.352.215-1.56l.149-.375.217.311c.35.505.682.748 1.734 1.271.97.482.988.5.742.723a.902.902 0 0 0-.253.586c0 .267-.07.368-.277.4-.386.057-.6.426-.417.717.127.203.4.226 2.636.226h2.493l1.065-2.243c1.23-2.59 1.25-2.11-.17-4.303-.696-1.076-.861-1.439-.953-2.086-.174-1.229-.74-3.495-1.082-4.338-.761-1.874-1.938-3.293-4.3-5.187-1.759-1.41-2.128-1.644-3.328-2.112-1.34-.523-3.169-.501-5.855.07-1.1.234-2.574.5-3.277.591-1.275.165-1.278.165-1.93-.172-.58-.3-.798-.338-1.947-.334-1.568.005-2.71.318-4.324 1.188-2.14 1.153-3.678 2.25-5.722 4.086-.99.89-1.03.91-1.624.87-.55-.04-.643-.004-.952.364-.431.513-.55.974-.371 1.447.12.319.083.48-.27 1.17-.385.75-.41.887-.41 2.155 0 1.255-.033 1.427-.435 2.35-.24.546-.402 1.081-.36 1.188.04.107.609.462 1.263.79l1.189.598 1.002-.534c.55-.293 1.396-.616 1.879-.717.865-.181.894-.201 2.11-1.446.678-.694 1.357-1.436 1.508-1.649.253-.357.291-.37.486-.178.275.27.44 1.57.445 3.508.004 1.635-.063 1.879-.663 2.383-.207.174-.49.541-.63.816-.14.275-.314.5-.385.5-.07 0-.194.143-.274.318-.111.244-.107.365.019.516.232.28 4.92.295 5.15.017.116-.139.385-.165 1.152-.113 1.453.1 2.981-.381 3.794-1.194.738-.738.22-1.866-.972-2.114l-.357-.074.469-.75c.353-.564.521-.728.68-.662.457.19 1.554.43 2.631.576.67.091 1.241.243 1.401.373l.27.218-.408.663c-.305.496-.495.672-.756.703-.289.033-.348.103-.348.413 0 .352.127.438 2.321 1.583 1.277.666 2.438 1.235 2.58 1.265.141.03.464-.023.716-.117zm-2.28-1.759c-.949-.5-1.725-.933-1.725-.96 0-.026.124-.258.275-.514.197-.334.334-.442.483-.381.617.25.94.338 1.005.273.04-.04-.252-.588-.649-1.217-1.062-1.684-1.149-1.947-1.13-3.432.018-1.27.185-2.172.673-3.61.27-.8.24-1.065-.076-.651-.353.462-1.333 2.565-1.555 3.338-.168.586-.202 1.02-.14 1.825l.082 1.057-.548-.065c-.775-.092-2.313-.406-2.395-.489-.038-.038.028-.378.147-.756.365-1.155.346-1.202-1.229-3.173-.83-1.037-1.494-1.76-1.559-1.695-.065.065.377.908 1.036 1.978l1.15 1.865-.167.574c-.092.316-.576 1.205-1.076 1.976-.987 1.526-1.307 2.297-1.055 2.548.115.115.337.112.935-.011.813-.168 1.15-.077 1.15.31 0 .512-1.554 1.13-2.83 1.125-1.157-.005-1.887-.31-1.992-.833-.116-.583-.088-2.483.053-3.57.067-.521.08-1.027.026-1.122-.054-.096-.56-.515-1.127-.932-1.63-1.202-2.05-1.69-2.302-2.674-.083-.325-.205-.603-.272-.616-.067-.014-.189.312-.271.724-.189.939-.805 1.853-2.192 3.254-.967.977-1.089 1.058-1.703 1.14-.363.048-1.109.313-1.657.588-.914.46-1.019.485-1.282.313-.253-.166-.27-.232-.143-.57.125-.33.107-.418-.133-.658-.267-.266-.27-.297-.073-.789.175-.436.181-.606.044-1.14-.19-.742-.102-1.384.297-2.174.191-.378.4-.601.605-.65.446-.104.472-.56.06-1.049-.312-.372-.321-.417-.128-.63.2-.222.23-.222.747 0 1.159.497 1.683.412 1.125-.183l-.279-.297 1.108-.985c2.611-2.323 5.6-4.143 7.67-4.667.583-.148 1.198-.196 2.063-.16 1.211.051 1.427.115 2.876.852.053.027.097-.038.097-.145 0-.145.218-.214.87-.276.48-.045 1.934-.282 3.234-.526 1.299-.244 2.636-.444 2.97-.444.794 0 1.973.308 2.834.74.9.45 3.8 2.787 4.518 3.638.51.606.566.74.606 1.465.054.992-.122 1.696-.49 1.953-.353.248-.407.181-.606-.749-.44-2.058-.888-2.12-.634-.089.142 1.145.136 1.481-.047 2.558-.355 2.088-1.755 4.512-3.174 5.494-.635.44-.692.62-.144.464.338-.097.384-.082.327.106-.186.614-.328 1.437-.33 1.918-.003.443-.069.586-.368.799-.29.206-1.596.861-1.812.908-.027.006-.825-.4-1.773-.9zM3.237 12.267c.285-.436.26-.791-.07-1.023-.555-.389-.984.332-.675 1.137.117.306.509.246.745-.114zm29.483 7.347c0-.209.977-1.097 1.208-1.099.151 0 .352-.05.446-.11.224-.142-.573-.608-2.016-1.18-.998-.394-2.346-1.363-2.346-1.685 0-.064.285-.471.634-.905.803-.995 1.262-2.217 1.456-3.872.14-1.195.167-1.273.443-1.273.247 0 .936-.558.954-.773.003-.036.082-.354.175-.707l.169-.642.285.642c.29.652.953 3.339 1.113 4.51.067.495.31.994 1.042 2.144l.955 1.5-.833 1.757-.833 1.757h-1.426c-.784 0-1.426-.029-1.426-.064zm-23.085-.24c0-.026.284-.33.631-.677l.63-.631.095-1.129c.051-.62.052-1.63 0-2.245l-.093-1.116.368.268.368.268.01 2.428c.004 1.336.054 2.53.11 2.654.092.206.001.226-1.009.226-.61 0-1.11-.02-1.11-.046z" style="fill:#000;stroke-width:.128964"/></g><g style="display:inline" id="layer16"><path id="path650" d="M25.51 20.89c.546-.324 1.836-1.36 2.117-1.7.093-.112.128-.333.088-.551-.071-.384.18-2.026.393-2.57.069-.176.237-.38.375-.454.213-.114.286-.087.5.185.588.747 2.782 1.745 4.203 1.912.726.085.84.292.257.464-.357.105-.386.151-.386.619 0 .278-.038.505-.085.505-.197 0-.339.476-.212.713.118.22.249.237 1.843.237 1.669 0 1.722-.007 1.899-.278.316-.483 1.724-3.64 1.724-3.868 0-.119-.566-.977-1.259-1.907l-1.26-1.692-.11-1.326c-.165-1.984-.566-3.258-1.458-4.635-.603-.93-1.098-1.456-2.27-2.414a182.35 182.35 0 0 1-2.17-1.809C27.948.836 26.583.287 24.605.271c-1.002-.007-1.219.038-2.91.61-1.005.338-2.101.644-2.436.679-.6.062-.616.055-1.11-.48-1.357-1.473-3.085-1.44-5.721.106-.616.362-1.707.941-2.426 1.289-1.555.751-2.09 1.204-3.433 2.897C5.573 6.63 5.55 6.649 5.06 6.649c-.42 0-.548.063-.842.413-.292.349-.342.507-.323 1.008.018.464-.065.775-.381 1.426-.372.763-.405.924-.41 1.96-.005 1.066-.03 1.178-.451 1.999-.254.494-.417.96-.38 1.079.067.208 1.912 1.32 2.193 1.32.08 0 .54-.19 1.022-.421.485-.234 1.155-.452 1.506-.492.738-.083.924-.167 1.64-.74.435-.348.495-.372.325-.13-.114.163-.375.623-.58 1.022-.305.595-.357.804-.288 1.169.112.595.856 1.385 1.874 1.99.445.264.81.52.81.567 0 .048-.11.186-.244.308a.62.62 0 0 0-.208.523l.035.303 2.555.032c2.89.037 2.852.049 2.852-.878 0-1.3.654-3.216 1.39-4.074.344-.4.349-.402.664-.196.175.115.703.33 1.173.48.813.257.863.294.994.73.22.736.707 1.605 1.234 2.202l.489.554-.625.5c-.344.276-.772.553-.951.617-.354.125-.452.555-.179.78.082.067.95.18 1.931.252.98.072 2.077.158 2.437.193.562.054.728.019 1.188-.255zm-2.901-.829-.823-.08.407-.343c.283-.24.505-.33.733-.302.18.023.327.003.327-.044 0-.048-.294-.453-.653-.9-1.583-1.975-1.895-2.732-1.88-4.559.009-1.062.166-1.77.694-3.12.18-.458-.149-.166-.57.507-.515.826-1.037 2.285-1.037 2.902 0 .494-.028.5-.857.186-.995-.377-.995-.376-.63-.926.175-.265.347-.693.381-.95.056-.416-.004-.567-.532-1.346a26.446 26.446 0 0 1-1.222-2.066c-.743-1.408-.662-1.289-.81-1.197-.158.098.289 1.296 1.127 3.02l.654 1.346-.289.377c-1.088 1.414-3.272 2.79-5.407 3.407-.537.156-.957.34-.934.408.023.07.144.126.269.126.185 0 .252.14.365.773.076.424.122.79.101.81-.02.022-.43-.153-.91-.387-1.067-.521-2.002-1.292-2.001-1.65 0-.308.593-1.316 1.572-2.673l.713-.988.27.254c.45.422.455.078.016-1.098-.361-.969-.421-1.293-.497-2.681-.058-1.074-.128-1.565-.218-1.535-.228.076-.68 2.21-.624 2.952.059.79-.036.968-1.103 2.071-1.21 1.252-1.64 1.545-2.506 1.709a7.477 7.477 0 0 0-1.506.494c-.626.297-.778.328-1.035.21-.241-.11-.279-.18-.188-.35.168-.313.14-.597-.085-.845-.185-.205-.185-.25-.005-.627.15-.316.18-.624.13-1.393-.061-.918-.042-1.034.272-1.641.193-.376.406-.64.498-.62.236.05.493-.204.493-.487 0-.134-.119-.37-.264-.525-.209-.222-.236-.322-.132-.483.158-.244.259-.235 1.143.105.863.331 1.106.191.588-.339l-.349-.356.883-1.114c1.331-1.68 1.658-1.976 2.765-2.508a43.607 43.607 0 0 0 2.258-1.2C14.246 1.214 14.88.959 15.766.955c.636-.004.887.058 1.417.347.732.398 1.431 1.209 1.74 2.016.27.71.499.542.306-.225a8.3 8.3 0 0 1-.135-.588c0-.03.307-.09.683-.136.376-.046 1.352-.302 2.169-.569 2.38-.777 3.808-.747 5.52.116.681.343 1.3.815 2.569 1.959.485.438 1.17 1.01 1.52 1.27 1.051.785 1.958 2.003 2.566 3.445.293.699.401 1.321.604 3.498.075.802.087.825 1.296 2.443l1.22 1.634-.69 1.538-.69 1.537-.856.036c-.85.035-1.328-.123-.869-.288.43-.153.644-.432.644-.839 0-.35.045-.41.36-.472.43-.086.555-.238.266-.323-.116-.034-.985-.285-1.933-.557-1.743-.501-3.047-1.058-3.77-1.61l-.396-.301.306-.364c.585-.695 1.13-2.139 1.304-3.452.073-.552.084-.564.491-.564.562 0 .813-.155 1.006-.62.285-.684.158-2.916-.192-3.378-.147-.194-.168-.052-.171 1.18-.005 1.582-.177 2.224-.598 2.224-.393 0-.615-.706-.686-2.173-.041-.86-.105-1.268-.193-1.238-.072.024-.15.146-.171.271a.682.682 0 0 1-.214.364c-.147.116-.152.259-.033.944.2 1.152.078 2.789-.287 3.84-.558 1.604-1.851 3.42-2.892 4.064-.39.242-.557.55-.228.424.14-.054.157.125.104 1.087-.074 1.327-.161 1.47-1.402 2.3-.67.45-.751.475-1.366.413-.36-.037-1.024-.103-1.476-.147zM5.412 11.746c.264-.335.205-.716-.145-.937-.423-.267-.786.293-.62.957.095.378.46.369.765-.02zm7.974 7.108c-.002-.114-.108-.502-.234-.862-.127-.359-.232-.88-.234-1.158-.003-.445.028-.505.264-.507.147 0 .72-.159 1.272-.351.553-.193 1.02-.336 1.037-.318.018.017-.073.309-.202.648-.177.465-.592 2.368-.592 2.712 0 .024-.294.044-.654.044-.542 0-.654-.036-.657-.208z" style="fill:#000;stroke-width:.118837"/></g><g style="display:inline" id="layer2"><path id="path666" d="M25.51 20.89c.546-.324 1.836-1.36 2.117-1.7.093-.112.128-.333.088-.551-.071-.384.18-2.026.393-2.57.069-.176.237-.38.375-.454.213-.114.286-.087.5.185.588.747 2.782 1.745 4.203 1.912.726.085.84.292.257.464-.357.105-.386.151-.386.619 0 .278-.038.505-.085.505-.197 0-.339.476-.212.713.118.22.249.237 1.843.237 1.669 0 1.722-.007 1.899-.278.316-.483 1.724-3.64 1.724-3.868 0-.119-.566-.977-1.259-1.907l-1.26-1.692-.11-1.326c-.165-1.984-.566-3.258-1.458-4.635-.603-.93-1.098-1.456-2.27-2.414-.589-.481-1.565-1.295-2.17-1.809C27.948.836 26.583.287 24.605.271c-1.002-.007-1.219.038-2.91.61-1.005.338-2.101.644-2.436.679-.6.062-.616.055-1.11-.48-1.357-1.473-3.085-1.44-5.721.106-.616.362-1.707.941-2.426 1.289-1.555.751-2.09 1.204-3.433 2.897C5.573 6.63 5.55 6.649 5.06 6.649c-.42 0-.548.063-.842.413-.292.349-.342.507-.323 1.008.018.464-.065.775-.381 1.426-.372.763-.405.924-.41 1.96-.005 1.066-.03 1.178-.451 1.999-.254.494-.417.96-.38 1.079.067.208 1.912 1.32 2.193 1.32.08 0 .54-.19 1.022-.421.485-.234 1.155-.452 1.506-.492.738-.083.924-.167 1.64-.74.435-.348.495-.372.325-.13-.114.163-.375.623-.58 1.022-.305.595-.357.804-.288 1.169.112.595.856 1.385 1.874 1.99.445.264.81.52.81.567 0 .048-.11.186-.244.308a.62.62 0 0 0-.208.523l.035.303 2.555.032c2.89.037 2.852.049 2.852-.878 0-1.3.654-3.216 1.39-4.074.344-.4.349-.402.664-.196.175.115.703.33 1.173.48.813.257.863.294.994.73.22.736.707 1.605 1.234 2.202l.488.554-.624.5c-.344.276-.772.553-.952.617-.353.125-.451.555-.178.78.082.067.95.18 1.931.252.98.072 2.077.158 2.436.193.563.054.729.019 1.189-.255zm-2.901-.829-.823-.08.407-.343c.283-.24.505-.33.733-.302.18.023.327.003.327-.044 0-.048-.294-.453-.653-.9-1.583-1.975-1.895-2.732-1.88-4.559.009-1.062.166-1.77.694-3.12.18-.458-.149-.166-.57.507-.515.826-1.037 2.285-1.037 2.902 0 .494-.028.5-.857.186-.995-.377-.995-.376-.63-.926.175-.265.347-.693.381-.95.056-.416-.004-.567-.532-1.346a26.446 26.446 0 0 1-1.222-2.066c-.743-1.408-.662-1.289-.81-1.197-.158.098.289 1.296 1.127 3.02l.654 1.346-.289.377c-1.088 1.414-3.272 2.79-5.407 3.407-.537.156-.957.34-.934.408.023.07.144.126.269.126.185 0 .252.14.365.773.076.424.122.79.101.81-.02.022-.43-.153-.91-.387-1.067-.521-2.002-1.292-2.001-1.65 0-.308.593-1.316 1.572-2.673l.713-.988.27.254c.45.422.455.078.016-1.098-.361-.969-.421-1.293-.497-2.681-.058-1.074-.128-1.565-.218-1.535-.228.076-.68 2.21-.624 2.952.059.79-.036.968-1.103 2.071-1.21 1.252-1.64 1.545-2.506 1.709a7.477 7.477 0 0 0-1.506.494c-.626.297-.778.328-1.035.21-.241-.11-.279-.18-.188-.35.168-.313.14-.597-.085-.845-.185-.205-.185-.25-.005-.627.15-.316.18-.624.13-1.393-.061-.918-.042-1.034.272-1.641.193-.376.406-.64.498-.62.236.05.493-.204.493-.487 0-.134-.119-.37-.264-.525-.209-.222-.236-.322-.132-.483.158-.244.259-.235 1.143.105.863.331 1.105.191.588-.339l-.349-.356.883-1.114c1.331-1.68 1.658-1.976 2.765-2.508a43.606 43.606 0 0 0 2.258-1.2C14.246 1.214 14.88.959 15.766.955c.636-.004.887.058 1.417.347.732.398 1.431 1.209 1.74 2.016.27.71.499.542.306-.225a8.3 8.3 0 0 1-.135-.588c0-.03.307-.09.683-.136.376-.046 1.352-.302 2.169-.569 2.38-.777 3.808-.747 5.52.116.681.343 1.3.815 2.569 1.959.485.438 1.17 1.01 1.52 1.27 1.051.785 1.958 2.003 2.566 3.445.293.699.401 1.321.604 3.498.075.802.087.825 1.296 2.443l1.22 1.634-.69 1.538-.69 1.537-.856.036c-.85.035-1.328-.123-.869-.288.43-.153.644-.432.644-.839 0-.35.045-.41.36-.472.43-.086.555-.238.266-.323-.116-.034-.985-.285-1.933-.557-1.743-.501-3.047-1.058-3.77-1.61l-.396-.301.306-.364c.585-.695 1.13-2.139 1.304-3.452.073-.552.084-.564.491-.564.562 0 .813-.155 1.006-.62.285-.684.158-2.916-.192-3.378-.147-.194-.168-.052-.171 1.18-.005 1.582-.177 2.224-.598 2.224-.393 0-.615-.706-.686-2.173-.041-.86-.105-1.268-.193-1.238-.072.024-.15.146-.171.271a.682.682 0 0 1-.214.364c-.147.116-.152.259-.033.944.2 1.152.078 2.789-.287 3.84-.558 1.604-1.851 3.42-2.892 4.064-.39.242-.557.55-.228.424.14-.054.157.125.104 1.087-.074 1.327-.161 1.47-1.402 2.3-.67.45-.751.475-1.366.413-.36-.037-1.024-.103-1.476-.147zM5.412 11.746c.264-.335.205-.716-.145-.937-.423-.267-.786.293-.62.957.095.378.46.369.765-.02zm7.974 7.108c-.002-.114-.108-.502-.234-.862-.127-.359-.232-.88-.234-1.158-.003-.445.028-.505.264-.507.147 0 .72-.159 1.272-.351.553-.193 1.02-.336 1.037-.318.018.017-.073.309-.202.648-.177.465-.592 2.368-.592 2.712 0 .024-.294.044-.654.044-.542 0-.654-.036-.657-.208z" style="fill:#000;stroke-width:.118837"/></g></svg>