<svg width="1796.9" height="173.79" version="1.1" viewBox="0 0 1796.9 173.79" xmlns="http://www.w3.org/2000/svg">
 <g transform="translate(1154.1 -262.12)" fill="#ff5544">
  <g>
   <path d="m632.73 417.05c5.5382-10.378 10.069-19.403 10.069-20.055s-1.7259-3.7477-3.8352-6.88c-2.1094-3.1323-5.5711-8.6201-7.6928-12.195l-3.8576-6.5-0.69295-14.5c-0.74373-15.563-1.9341-20.374-7.9888-32.289-7.9188-15.583-30.376-39.822-44.971-48.539-7.869-4.6996-19.338-8.1727-26.988-8.1727-2.5885 0-10.504 1.091-17.59 2.4245-16.063 3.0227-29.563 4.047-40.896 3.103-8.3527-0.69578-8.9432-0.90594-12.968-4.616-10.297-9.4918-17.365-9.0586-37.128 2.2761-4.3403 2.4893-10.592 5.5208-13.892 6.7367-14.138 5.2094-26.792 14.35-42.774 30.897-8.8849 9.1993-10.036 10.067-12.663 9.5416-3.7329-0.74658-8.5837 2.0662-10.171 5.8977-1.4696 3.548-1.4085 8.4127 0.12903 10.265 0.88888 1.071 0.54894 2.8919-1.4925 7.9948-2.9568 7.3909-3.5326 15.502-1.5626 22.012 1.088 3.5959 0.93936 4.8925-1.373 11.972-1.4262 4.3668-2.5932 8.9436-2.5932 10.171 0 2.3366 2.74 3.9085 13.54 7.7676l5.0399 1.8009 5.7139-3.6551c3.1426-2.0103 9.4247-4.8801 13.96-6.3774 5.1069-1.6859 11.197-4.7304 15.996-7.9973 4.2625-2.9013 7.75-4.977 7.75-4.6126s-0.84542 2.0656-1.8787 3.7805c-1.0333 1.7149-2.429 4.8382-3.1015 6.9407-1.1333 3.5428-0.98913 4.2973 1.9696 10.307 1.7558 3.5665 5.4445 9.1908 8.1971 12.498 2.7526 3.3076 4.8492 6.1311 4.6592 6.2744-3.6269 2.7341-5.4728 3.3698-8.4035 2.8942-3.0054-0.48771-3.4122-0.2641-4.0352 2.2182-0.88974 3.545 1.0769 5.1053 13.151 10.434 18.742 8.2715 23.622 7.8556 34.501-2.9404 6.3246-6.2766 18.925-22.503 27.961-36.009 2.392-3.575 4.4442-6.6405 4.5603-6.8123 0.11617-0.17176 2.7332 1.3862 5.8156 3.4622l5.6044 3.7745v5.7227c0 3.1475 0.47531 6.9729 1.0562 8.5009 0.86291 2.2696 0.5737 4.1012-1.58 10.006-2.2538 6.1796-3.009 7.273-5.2054 7.537-3.3417 0.40153-5.1632 3.17-3.6574 5.5587 0.99417 1.577 3.5377 1.7764 25.732 2.0174l24.629 0.26744 4.7625-6.1089c7.6767-9.847 7.9194-10.385 6.3884-14.163-1.9117-4.7176-3.0123-10.763-1.9595-10.763 2.2775 0 8.5797 3.3944 14.185 7.64 6.3532 4.8123 15.828 9.621 21.256 10.788 3.0515 0.65607 3.0924 0.74303 2.2936 4.87-0.44736 2.3111-0.83299 4.5395-0.85694 4.952-0.0239 0.4125-0.71855 0.75-1.5436 0.75s-2.4103 0.91031-3.5229 2.0229c-1.6067 1.6067-1.8052 2.4297-0.96481 4 0.9967 1.8624 2.1546 1.9771 19.954 1.9771h18.895zm-27.726 10.939-7.2953-0.0689 0.63264-3.75c1.0816-6.4114 1.4577-7.0865 5.2596-9.4418l3.6984-2.2911-4.5-0.82433c-12.286-2.2506-20.648-5.2386-27.466-9.8147-8.2417-5.5316-23.541-21.037-31.958-32.389-3.258-4.394-6.0705-8.1766-6.25-8.4057-0.17953-0.22916-0.58401-0.15907-0.89884 0.15576-0.8267 0.82669 3.9767 10.965 9.6653 20.4 2.6989 4.4764 4.9072 8.4442 4.9072 8.8174 0 0.37319-0.7875 0.44343-1.75 0.1561-0.9625-0.28734-8.6049-1.2244-16.983-2.0823-17.251-1.7665-26.745-4.6381-32.886-9.9462l-3.7328-3.2268-0.12685-14.928c-0.0993-11.682-0.51641-15.961-1.9182-19.678-0.98524-2.6125-2.0866-4.7501-2.4474-4.7502-0.3608-1.2e-4 -0.65915 7.0874-0.66301 15.75-7e-3 14.992-0.14165 16.069-2.8023 22.365-1.5374 3.6382-4.9116 9.2632-7.4981 12.5-2.5866 3.2368-8.4319 10.669-12.99 16.517-10.442 13.396-20.158 22.868-23.46 22.868-2.6918 0-13.718-3.575-15.01-4.8665-0.45151-0.45151 1.2344-2.5051 3.7466-4.5636 5.7994-4.7522 8.2814-9.6604 10.624-21.009 2.7933-13.534 2.566-16.897-1.4791-21.893-4.0811-5.0397-5.5965-7.9768-8.97-17.385-2.7411-7.6447-7.0502-15.283-8.6218-15.283-0.51818 0-1.2075 1.6875-1.5318 3.75-1.1569 7.3569-2.827 11.157-6.9997 15.927-5.3519 6.118-19.605 15.8-25.501 17.323-2.475 0.63918-8.1 3.0531-12.5 5.3642-9.7287 5.1101-11.75 5.0533-10.893-0.30585 0.50585-3.1634 0.24421-4.0492-1.5717-5.3211-2.0287-1.421-2.0927-1.8124-0.93065-5.691 1.0756-3.5899 0.99898-4.8574-0.55436-9.177-2.9032-8.0734 0.0179-21.042 5.0225-22.298 3.2438-0.81414 3.2086-4.4887-0.0725-7.5712-2.6002-2.4428-2.9818-3.6945-1.7273-5.6664 0.55924-0.87906 2.0874-0.81747 6.2026 0.25 6.9948 1.8144 10.025 1.8063 10.025-0.0269 0-0.79381-0.97436-2.1258-2.1652-2.9599-2.1328-1.4939-2.0317-1.6538 6.75-10.675 15.246-15.662 26.131-23.555 39.665-28.764 4.2626-1.6405 11.238-4.9722 15.5-7.4039 8.9521-5.1072 15.306-7.7535 18.615-7.7535 5.3245 0 18.309 10.75 25.629 21.218 1.8146 2.5951 3.6793 4.4835 4.1436 4.1965 0.88878-0.5493-1.2324-6.3735-3.6892-10.13-0.79676-1.2182-1.4468-2.5682-1.4445-3 2e-3 -0.43185 6.8648-0.81723 15.25-0.8564 11.243-0.0525 18.256-0.64324 26.71-2.25 25.439-4.8346 35.738-2.2106 53.8 13.707 16.774 14.783 30.39 33.596 34.544 47.729 2.9425 10.01 2.9933 16.817 0.26319 35.218-1.4144 9.5331-2.5716 17.611-2.5716 17.95 0 1.5219 2.4017-2.0538 5.453-8.1186l3.3238-6.6064 11.606 18.307-4.9413 9.5358c-11.94 23.042-11.247 21.99-14.22 21.597-1.4965-0.19789-6.0039-0.3908-10.016-0.42869zm-231.31-65.456c3.9367-4.1904 1.9839-10.159-3.0885-9.4401-1.6971 0.24057-2.3916 1.084-2.6331 3.1976-0.7846 6.8655 2.1394 10.056 5.7216 6.2425zm135.68 55.112c1.4268-4.1874 1.5381-4.267 5.4434-3.8946 6.9706 0.66476 7.2778-0.24573 1.8981-5.6255-4.5129-4.5129-4.9194-5.3123-4.9194-9.6736v-4.7542l3.25 0.57396c2.8421 0.50193 10.212 1.4457 25.5 3.2653 3.9158 0.46608 4.25 0.73581 4.25 3.4302 0 1.6084 0.5328 4.9164 1.184 7.3512 1.1482 4.2928 1.0801 4.5647-2.25 8.9834l-3.434 4.5566-32.379 0.0618 1.4566-4.2748zm-89.29-24.079-3.5594-5.854 1.7275-3.646c2.9319-6.1879 8.6379-15.146 9.6475-15.146 0.52744 0 1.2395 0.7875 1.5823 1.75 0.34282 0.9625 2.1728 3.6795 4.0665 6.0378l3.4432 4.2878-1.2022 8.7122c-0.6612 4.7917-2.0907 10.737-3.1767 13.212l-1.9745 4.5-3.4975-4c-1.9236-2.2-5.0992-6.6343-7.0569-9.854z"/>
   <path d="m158.53 431.05c0.59317-1.1084 2.2331-5.4529 3.6443-9.6546 2.0848-6.2071 14.809-36.114 15.784-37.097 0.14557-0.1469 2.9195 1.3336 6.1642 3.2901 3.2448 1.9564 6.9121 3.8129 8.1496 4.1255 1.9481 0.49208 2.25 1.2228 2.25 5.4456 0 2.6825 0.50629 6.7962 1.1251 9.1416 0.9418 3.5697 0.81071 5.3232-0.80471 10.764-1.7318 5.8329-2.2319 6.5515-4.8751 7.0047-2.2918 0.39303-3.014 1.0992-3.2552 3.1831-0.52105 4.5022 1.6316 4.8753 26.431 4.5814l22.682-0.26885 12.591-16.485-1.8761-4.2573c-1.9399-4.4022-2.4403-7.1963-2.1734-12.135 0.15184-2.8096 0.25622-2.8618 4.4055-2.2009 2.3375 0.37231 6.95 2.4298 10.25 4.5721 10.778 6.9971 26.095 13.007 33.151 13.007 3.0564 0 3.354 0.83947 2.2057 6.2233-0.85455 4.0068-1.3677 4.7002-3.675 4.9668-2.2442 0.25929-2.6818 0.7993-2.6818 3.3098v3l18.109 0.27201c13.737 0.20634 18.346-0.0351 19.09-1 0.53946-0.6996 2.6969-7.7659 4.7944-15.703 3.4042-12.882 3.6629-14.674 2.4099-16.7-0.77201-1.2482-4.6897-7.018-8.7059-12.822-9.0044-13.012-10.198-15.807-10.198-23.884 0-9.2739-2.638-22.983-5.9304-30.819-4.3236-10.29-13.417-23.23-24.032-34.196-15.45-15.962-26.95-23.435-42.717-27.76-11.051-3.0318-23.155-2.2565-42.321 2.7108-12.097 3.1352-16.247 3.77-25.04 3.8301-10.334 0.0707-10.618 0.0109-14.5-3.0448-6.6226-5.2133-11.852-7.3831-17.794-7.3831-7.1201 0-12.261 1.9161-21.222 7.9093-4.7985 3.2095-9.2684 5.3277-12.781 6.057-7.0557 1.4648-17.89 6.7274-24.163 11.737-6.0636 4.8425-17.835 16.882-23.511 24.047-3.8416 4.8491-4.4818 5.25-8.3855 5.25-5.1234 0-8.0357 2.373-9.6904 7.8956-0.97148 3.2425-0.89333 4.4376 0.46871 7.1679 1.5444 3.0958 1.5189 3.5844-0.46195 8.8565-2.5665 6.8308-2.885 17.079-0.68959 22.19 1.4547 3.3866 1.4028 4.1208-0.8398 11.863-3.1272 10.797-3.0822 12.526 0.35951 13.81 1.5125 0.56445 4.55 1.6845 6.75 2.489 3.4782 1.2719 4.4657 2.3895 7.5701 8.5676 5.7801 11.503 7.0089 12.458 18.942 14.722 7.9695 1.5118 8.1506 1.5008 11.733-0.71349 2.0014-1.2369 5.7257-4.1023 8.2761-6.3674 2.8044-2.4907 7.9174-5.4407 12.936-7.4639 7.4509-3.0034 8.7716-3.9549 12.921-9.3079l4.6214-5.9625 0.31263 5.3768c0.55494 9.544-0.32292 11.603-8.5515 20.059-4.1653 4.2802-8.403 8.0456-9.4172 8.3674-2.3736 0.75335-2.4384 5.0765-0.094 6.2739 1.8553 0.94757 15.264 2.5877 34.25 4.1893 15.979 1.348 16.76 1.3034 18.008-1.028zm142.99-7.1468c0-0.40676 0.48391-2.996 1.0754-5.7538 0.87405-4.0756 1.7165-5.4105 4.5-7.1308 1.8836-1.1641 3.4246-2.5564 3.4246-3.094 0-0.5376-0.33932-0.76774-0.75405-0.51142-1.2014 0.74247-24.33-2.9802-28.843-4.6424-17.135-6.3111-40.907-24.891-46.475-36.326-1.7002-3.4913-2.4818-4.3511-2.7465-3.0212-0.56627 2.8458 2.5164 9.9671 7.4053 17.107 2.4274 3.5451 4.4134 6.5949 4.4134 6.7775s-8.8732 0.20582-19.718 0.0517c-24.544-0.34874-31.066-1.8784-39.195-9.1933l-3.4129-3.0712-0.18617-10.765c-0.19726-11.406-2.7778-21.557-7.526-29.605-2.0614-3.4939-4.759-5.1794-3.6456-2.2779 5.2044 13.562 6.8263 28.175 4.3109 38.839-0.87197 3.6967-4.6837 12.922-8.4705 20.5-3.7868 7.5783-8.3863 17.829-10.221 22.779s-3.446 9.1625-3.5804 9.3612c-0.31881 0.47103-31.719-1.9575-32.297-2.4979-0.24277-0.22702 1.8432-2.7641 4.6354-5.638s5.656-6.3503 6.3639-7.7253c2.9297-5.6906 1.9411-37.152-1.2286-39.102-3.889-2.3919-9.9983-8.02-15.329-14.122-5.8775-6.7276-11.984-11.42-12.911-9.9209-0.25665 0.41526-0.42743 2.1336-0.37952 3.8186 0.23481 8.2586-15.407 26.307-26.214 30.247-3.3338 1.2156-8.8707 4.1334-12.304 6.4842-5.2615 3.6022-6.5992 4.1152-8.5092 3.2629-1.864-0.83176-2.1527-1.5276-1.627-3.9216 0.48645-2.2148 0.10616-3.4778-1.591-5.2844-2.008-2.1375-2.1238-2.7935-1.1617-6.5839 0.90692-3.573 0.77573-4.784-0.86716-8.0043-3.5908-7.0384-1.3467-21.007 3.6819-22.919 3.187-1.2117 3.1131-4.9201-0.15927-7.9943-2.3205-2.18-3.0517-5.9412-1.1878-6.1099 0.42385-0.0383 3.7192 0.48663 7.323 1.1666 5.0376 0.95053 6.8245 0.96332 7.7294 0.0553 0.90333-0.9064 0.6109-1.6087-1.2577-3.0206-2.3054-1.7419-2.3497-1.9648-0.83531-4.196 2.7659-4.075 14.059-16.341 19.28-20.942 8.1736-7.2019 15.185-11.123 24.946-13.952 6.5228-1.8901 11.469-4.1597 16.972-7.7882 14.945-9.8533 23.029-8.4059 42.311 7.5752 7.1424 5.9197 9.3128 7.2144 9.2199 5.5-0.0224-0.4125-1.389-2.325-3.037-4.25l-2.9964-3.5 7.787-0.78502c4.2829-0.4317 14.537-2.359 22.787-4.2828 18.69-4.3584 24.492-4.9871 32.749-3.5492 14.887 2.5925 28.641 10.986 43.493 26.542 14.829 15.532 22.656 28.348 25.988 42.555 1.8851 8.0369 2.3331 25.871 0.96133 38.27-0.41074 3.7125-0.37393 6.75 0.0818 6.75s1.8124-2.025 3.0149-4.5c2.2062-4.541 3.5905-5.5437 4.4867-3.25 0.26862 0.6875 3.4813 5.4109 7.1393 10.496l6.6509 9.2464-2.6452 9.7536c-3.8541 14.211-3.077 13.427-12.988 13.105-4.6372-0.15059-8.4313-0.60661-8.4313-1.0134zm-243.04-60.027c2.5634-2.7514 2.6068-5.9876 0.11062-8.2466-2.2915-2.0738-5.6901-1.3423-6.5646 1.4129-0.68722 2.1652 1.8991 9.0222 3.403 9.0222 0.55664 0 1.9296-0.98485 3.051-2.1886zm143.14 58.439c0.0548-0.9625 0.41022-2.8649 0.78978-4.2275 0.61089-2.1932 1.1616-2.4435 4.7986-2.1809 5.3586 0.38691 6.1985-1.2248 2.3332-4.4772-4.3539-3.6636-7.1474-9.4836-6.384-13.301l0.61276-3.0638h32.75v6.0321c0 3.3177 0.63607 7.5544 1.4135 9.4151 1.3692 3.2769 1.2987 3.5414-2.25 8.4384l-3.6635 5.0555-15.25 0.0295c-13.906 0.0269-15.241-0.12481-15.15-1.7205zm-130.45-13.847c-3.1755-0.54795-4.3654-1.4699-6.75-5.23-1.5922-2.5106-2.8949-5.3865-2.8949-6.3908 0-2.4077 10.804-9.3789 17.596-11.353 4.0227-1.1694 6.7534-3.0171 12.147-8.2189 3.8267-3.6906 8.6633-9.2971 10.748-12.459l3.7904-5.7484 8.1095 7.7478c4.4602 4.2613 8.0002 8.076 7.8666 8.4771-0.1336 0.40109-2.9425 4.5278-6.242 9.1704-4.8186 6.7801-6.7386 8.6807-9.7571 9.6587-2.0669 0.66969-6.4171 2.5484-9.6671 4.1749l-5.9091 2.9573-3.727-2.0947c-2.0499-1.1521-4.0033-2.0947-4.3409-2.0947-1.4484 0-0.41416 2.599 2.0632 5.1848 1.4724 1.5369 2.4849 2.9402 2.25 3.1186-0.23491 0.1784-1.7476 1.3256-3.3615 2.5494-1.9479 1.4771-3.7968 2.0554-5.5 1.7203-1.4111-0.27762-4.3004-0.80411-6.4207-1.17z" />
   <path d="m-162.44 433.34 22.239-0.28924 1.5942-2.433c1.1762-1.7952 1.8171-6.5912 2.4444-18.293 0.84274-15.721 1.0915-17.762 3.1689-25.986 1.1486-4.5472 1.8732-5.0881 3.764-2.8098 1.5706 1.8924 13.066 6.2024 20.201 7.5742 5.5935 1.0754 5.6675 1.1357 7.223 5.8914 1.4963 4.5746 1.461 5.1834-0.73518 12.7-1.3846 4.7385-2.7892 7.7893-3.5135 7.6312-3.951-0.86275-7.223 5.7447-3.5439 7.1565 0.86998 0.33385 12.032 0.60699 24.803 0.60699h23.222l6.2318-8.187c4.1436-5.4436 6.0056-8.7108 5.5568-9.75-2.2721-5.261-3.7634-10.028-3.2864-10.505 0.30434-0.30434 3.7877 0.54673 7.7408 1.8912 3.9531 1.3445 11.825 3.2293 17.494 4.1883l10.307 1.7438 6.6146 9.9961-2.8502 2.2727c-2.7415 2.186-2.8064 2.4363-1.703 6.5615 0.631 2.3588 1.6179 5.5263 2.193 7.0388l1.0458 2.75h13.99c12.312 0 14.098-0.2098 14.893-1.75 0.49705-0.9625 1.2165-12.217 1.5989-25.01l0.69513-23.26-3.2105-1.74c-5.7004-3.0895-17.413-11.025-19.221-13.023-1.3402-1.4809-1.8501-4.171-2.1474-11.329-0.47342-11.397-3.3806-25.137-7.4906-35.401-10.3-25.722-36.293-48.769-62.59-55.494-11.891-3.0411-19.946-2.623-40.848 2.1204-11.132 2.5262-21.785 4.3075-27.621 4.6185-9.4137 0.50167-9.5488 0.4759-14.87-2.8363-4.3726-2.7217-6.6055-3.4124-12.022-3.7184-9.149-0.51697-14.093 1.0671-20.85 6.6805-8.1232 6.7485-9.9327 7.7992-17.409 10.108-17.238 5.3244-34.641 16.464-45.563 29.164-1.978 2.3002-2.8185 2.5658-6.726 2.1253-3.9635-0.44674-4.8023-0.16647-7.462 2.4932-3.6642 3.6642-4.7751 7.6232-3.263 11.629 0.97734 2.5893 0.7605 3.9646-1.5095 9.5736-3.1372 7.752-4.016 15.466-2.4285 21.317 1.0528 3.8803 0.86421 4.9801-2.2622 13.195-1.8759 4.9289-3.2108 9.4824-2.9666 10.119 0.24424 0.6365 3.9726 2.8131 8.2852 4.8369 6.9892 3.2798 7.9072 4.0319 8.4494 6.922 0.33455 1.7833 2.1355 6.4293 4.0022 10.324 4.3892 9.1588 8.3489 12.336 15.373 12.336 7.222 0 9.7027-1.2599 12.763-6.4823 3.1036-5.2959 3.8844-5.6962 24.457-12.538 16.596-5.5193 18.177-6.7823 22.6-18.058 2.076-5.2913 2.9882-6.5805 4.3957-6.2125 2.0426 0.53414 2.6278 3.3465 3.6026 17.313 0.77926 11.165-0.22849 16.896-4.7493 27.006-2.1702 4.8536-3.9462 7.4377-5.5239 8.0375-2.9287 1.1135-3.1723 5.41-0.3911 6.8984 1.0638 0.56935 2.3013 0.93174 2.75 0.80531s10.824-0.36002 23.055-0.5191zm158.01-8.1943c-3.5948-0.0742-3.7403-3.3618-0.25-5.6487 3.3238-2.1779 3.1602-3.8046-1.0918-10.856-3.3511-5.5576-3.4706-6.033-1.8204-7.2397 0.97142-0.71032 1.5741-1.481 1.3392-1.7127-0.59425-0.58623-10.556-3.1005-22.427-5.6602-17.631-3.8019-36.643-11.65-45.199-18.657-2.3093-1.8915-5.2343-5.5412-6.5-8.1106-2.1793-4.424-2.318-4.5255-2.6182-1.9152-0.42492 3.6944 3.2395 10.774 7.9652 15.388 2.1185 2.0687 3.8521 4.0074 3.8524 4.3083 1e-3 1.12-34.389-0.93671-40.092-2.3978-6.7715-1.7348-13.397-4.8539-16.659-7.8424-1.8132-1.6612-2.2529-3.1439-2.2648-7.6371-0.0211-7.9404-2.4704-17.303-6.5647-25.095-5.8759-11.182-11.458-15.228-6.0419-4.3798 7.5229 15.069 8.0744 28.025 2.0292 47.677-2.5998 8.4512-4.3867 21.384-4.3996 31.845l-8e-3 6.622-15.068 0.72662c-8.2874 0.39964-15.26 0.53516-15.494 0.30117-0.234-0.234 0.69968-3.2964 2.0748-6.8054 4.039-10.306 4.8526-17.313 3.5672-30.72-1.8138-18.918-1.3526-17.797-8.7807-21.342-6.8283-3.2588-17.517-13.061-26.3-24.119-5.9582-7.5017-7.46-7.5316-6.6965-0.13324 0.52556 5.0922 0.30036 6.0579-2.2738 9.75-6.8744 9.86-20.951 21.253-28.734 23.255-3.1876 0.8201-8.9457 3.1989-12.796 5.2861-5.7412 3.1126-7.4025 3.6122-9.2382 2.7784-1.9027-0.86429-2.1516-1.5588-1.66-4.6327 0.45253-2.83 0.14216-4.0106-1.4278-5.4314-1.8782-1.6997-1.9104-2.0442-0.50578-5.4059 1.345-3.2191 1.3328-4.1873-0.1185-9.3596-1.7385-6.196-1.512-8.4821 1.6489-16.642 1.4358-3.7067 2.5771-5.25 3.8823-5.25 1.0168 0 2.3129-0.8674 2.8803-1.9275 0.81993-1.532 0.51938-2.5363-1.4648-4.8944-4.8541-5.7687-2.5092-8.3926 5.1638-5.7782 5.7804 1.9696 9.3398 2.0542 9.3398 0.22208 0-0.75791-0.97277-2.0239-2.1617-2.8133-2.134-1.4169-2.0923-1.5036 3.25-6.7633 11.587-11.407 23.336-18.494 39.172-23.625 5.5289-1.7916 10.508-4.2066 13.5-6.5476 13.677-10.702 17.084-11.918 26.118-9.3275 7.5842 2.1752 13.491 5.7385 20.379 12.294 3.1666 3.0136 6.0493 5.1874 6.4061 4.8306s-0.74356-2.8883-2.4452-5.6256l-3.0938-4.977 3.1878-0.48387c1.7531-0.26612 5.6626-0.7547 8.6876-1.0857s11.575-1.9545 19-3.6078c17.676-3.9358 26.544-4.5568 35.38-2.4775 21.887 5.1508 45.875 24.836 56.159 46.088 6.7275 13.902 8.6453 22.358 9.0717 40 0.19937 8.25 0.60216 16.012 0.89508 17.25 0.56113 2.3706 2.4836 3.1366 2.5098 1 8e-3 -0.6875 0.39878-1.855 0.86746-2.5946 0.66426-1.0481 1.8768-0.56242 5.4993 2.2026 2.5559 1.951 7.1156 5.0237 10.133 6.8282l5.4854 3.281v7.1094c0 3.9102-0.2878 12.468-0.63955 19.016l-0.63955 11.907-5.6104-0.19323c-3.0858-0.10627-6.848-0.21877-8.3605-0.25zm-252.86-67.64c2.5271-3.2127 2.5405-3.3615 0.55642-6.1942-2.2368-3.1934-6.2206-2.9579-7.0679 0.41792-0.83755 3.337 0.66658 7.744 2.7821 8.1514 0.88892 0.17119 2.5671-0.89762 3.7293-2.3751zm162.09 54.658c1.2252-4.5502 1.0543-4.4702 6.3832-2.9905 3.8781 1.0768 13.637 0.36563 13.637-0.99381 0-0.39726-2.705-2.0152-6.0111-3.5954-6.1716-2.9497-12.989-8.3975-12.989-10.38 0-1.224 20.27-1.5881 28.165-0.50594 4.4291 0.60707 4.4481 0.62702 5.4757 5.75 0.56716 2.8274 1.346 5.8447 1.7307 6.705 0.45448 1.0162-0.52911 3.1181-2.8078 6l-3.5073 4.4358-15.278 0.5c-8.4031 0.275-15.417 0.19595-15.587-0.17567-0.1697-0.37162 0.18514-2.5091 0.78855-4.75zm-155.43-6.8256c-3.7606-5.6826-6.8823-15.395-5.3057-16.507 2.8781-2.03 11.597-5.72 16.26-6.8815 7.1908-1.7912 21.645-13.042 29.465-22.936l3.6198-4.5794 16.164 15.155-7.4077 15.999-13.421 4.388c-7.3814 2.4134-15.839 5.4509-18.795 6.75-2.967 1.304-7.3345 2.362-9.75 2.362-4.8574 0-5.7046 1.4373-1.8756 3.182 2.934 1.3368 3.0001 1.659 0.9433 4.5955-2.5585 3.6528-6.9136 2.98-9.8974-1.5288z"/>
   <path d="m-458.87 434.88c16.963-0.45335 20.962-0.83162 21.735-2.0556 0.52053-0.825 0.95332-11.336 0.96174-23.357 0.0135-19.222 0.2001-21.786 1.5482-21.269 1.9716 0.75656 12.395 2.4458 19.482 3.1573 5.4961 0.55177 5.5252 0.57263 8.3614 5.9897 1.9591 3.7418 4.2133 6.2997 7.2329 8.2074 2.4127 1.5242 4.3876 3.2965 4.3886 3.9384 5e-3 3.0378-3.9652 10.091-5.9755 10.617-1.6928 0.44268-2.0988 1.1885-1.8463 3.3918l0.3236 2.8244 46.908 0.53786 6.296-6.24c3.9036-3.8689 6.296-7.0704 6.296-8.4253 0-1.6786 0.45477-2.0664 1.9613-1.6724 1.7127 0.44788 1.9979 1.5401 2.25 8.6184l0.28872 8.1055 5 3.8374c5.5516 4.2608 8.3456 4.4509 15.301 1.0413 3.5158-1.7234 3.9951-2.6185 10.873-20.303 3.9575-10.175 7.2247-19.269 7.2603-20.21 0.0356-0.94034-1.8477-3.4082-4.1852-5.4842-2.3375-2.076-7.9625-7.4106-12.5-11.855l-8.25-8.0801-4e-3 -5.4357c-5e-3 -7.2596-2.4453-21.931-5.0713-30.493-4.8123-15.692-12.052-26.903-26.332-40.777-14.239-13.834-27.607-22.04-41.084-25.219-11.123-2.6236-16.193-1.9895-42.582 5.3255-18.121 5.023-25.335 6.0549-27.715 3.9642-0.94126-0.82695-3.7096-2.5088-6.1518-3.7375-3.757-1.8902-5.6097-2.1663-12.038-1.7941-9.0882 0.52611-13.42 2.6217-26.114 12.632-6.689 5.2752-10.567 7.4828-17.507 9.9651-4.9027 1.7538-11.386 4.8376-14.407 6.8531-6.9397 4.6292-17.025 14.959-23.493 24.065-4.716 6.6383-5.1831 7.0093-8.2235 6.5323-2.7013-0.42381-3.7947 0.0655-6.75 3.0208-2.8227 2.8227-3.5265 4.3004-3.5265 7.404 0 2.1326 0.67027 4.8344 1.4895 6.004 1.3243 1.8907 1.3114 2.6085-0.11599 6.4725-2.3581 6.3831-2.3618 19.362-7e-3 24.101 1.834 3.6909 1.8297 3.9033-0.25178 12.5-1.1646 4.8099-2.1169 9.3308-2.1162 10.046 7.2e-4 0.71556 1.5763 1.9591 3.5013 2.7634 3.5179 1.4699 4.3557 2.7887 2.5 3.9356-1.1019 0.681-1.3309 4.4742-0.41428 6.8628 0.69493 1.811 8.5268 7.7988 16.951 12.96l6.0365 3.6982 12.963-5.8666c7.1299-3.2266 16.885-7.5574 21.678-9.6239 15.513-6.6886 20.509-10.184 26.705-18.686 3.0689-4.2108 6.053-8.4447 6.6313-9.4088 0.91388-1.5235 1.7337-0.84895 6.2663 5.1559 2.8682 3.7998 6.3968 9.2946 7.8413 12.211 2.4258 4.8969 2.5305 5.6226 1.3702 9.5-1.8221 6.089-7.0061 15.987-9.168 17.505-3.1915 2.2406-2.0077 5.7771 2.1488 6.4196 1.3695 0.21168 11.845 0.13486 23.278-0.17072zm129.96-9.9992c-1.9107-1.594-2.25-2.8587-2.25-8.3873 0-6.415 0.0437-6.5199 2.9885-7.1666 1.6437-0.36102 3.1865-0.97667 3.4284-1.3681s-6.8047-2.9324-15.659-5.6464c-31.048-9.5167-55.724-24.216-61.259-36.49-2.0635-4.576-3.8346-5.3318-2.9235-1.2475 1.0481 4.6983 5.2328 12.598 8.5073 16.06 1.7219 1.8205 2.9702 3.4194 2.7741 3.5531-1.1269 0.76807-32.101-1.4825-35.857-2.6053-3.7578-1.1235-4.5072-1.7595-4.5437-3.856-0.024-1.3808-2.7677-7.2111-6.0971-12.956-3.3293-5.7451-8.0347-14.158-10.456-18.695-4.0739-7.6325-5.9029-9.8543-5.9029-7.1704 0 0.59433 3.1756 9.2568 7.0568 19.25l7.0568 18.169-1.3068 6.5c-0.84176 4.1868-1.2423 12.995-1.1254 24.75l0.18144 18.25-4.6814 5e-3c-2.5748 3e-3 -9.1142 0.29869-14.532 0.65744l-9.8506 0.65226 1.9636-3.9074c3.4137-6.7933 5.4732-14.338 4.838-17.725-1.1754-6.2656-8.3599-17.672-18.811-29.866-3.7112-4.33-6.0387-6.0711-9.7742-7.3118-7.2131-2.3958-12.116-7.8575-16.637-18.534-2.0892-4.9339-4.3308-8.9707-4.9813-8.9707-1.3429 0-2.3968 2.2405-2.3968 5.0954 0 1.0625-0.42288 2.7132-0.93974 3.6682s-2.3619 4.6614-4.1001 8.2364c-6.1816 12.714-16.519 23.644-27.314 28.88-4.4805 2.1733-9.9372 5.5049-12.126 7.4034-3.4377 2.982-4.3466 3.324-6.6755 2.5122-2.3594-0.8225-2.6302-1.3451-2.169-4.1865 0.43446-2.6773 0.0875-3.5346-1.9784-4.8882-2.3376-1.5317-2.4354-1.9167-1.461-5.7553 0.89451-3.5241 0.73738-4.7282-1.0962-8.3995-3.707-7.4226-2.2588-21.28 2.4481-23.425 3.2442-1.4782 3.0371-4.1682-0.58844-7.6417-3.2646-3.1277-3.3653-3.3759-2.1477-5.2952 0.65368-1.0304 2.2157-1.0725 7.6406-0.20591 8.0864 1.2918 10.576 0.14079 6.6436-3.0721-2.8004-2.2882-2.8425-2.2012 6.9498-14.374 9.665-12.014 16.739-17.047 31.172-22.175 5.0926-1.8096 10.062-4.7274 16.742-9.8308 13.082-9.9939 17.117-11.956 24.338-11.834 7.4437 0.1257 16.846 4.571 22.876 10.815 2.3575 2.4413 4.6238 4.4461 5.0363 4.4552 1.4344 0.0316 0.73694-2.7304-1.364-5.4013-1.1627-1.4781-1.9502-2.8454-1.75-3.0383 0.41155-0.39655 26.708-6.7704 40.364-9.7835 17.088-3.7704 28.893 0.2901 49.9 17.164 22.43 18.017 34.796 43.347 34.701 71.075-0.0632 18.424 1.3345 24.271 3.9252 16.421l1.1812-3.5791 7.1463 7.0295c3.9305 3.8662 8.3838 7.9845 9.8963 9.1517 1.5125 1.1672 2.7565 2.652 2.7644 3.2996 8e-3 0.64758-2.5796 8.0321-5.75 16.41-4.8118 12.715-6.1775 15.388-8.2644 16.171-3.3567 1.2599-3.1956 1.2836-5.75-0.8473zm-237.81-53.279c2.2976-3.2803 1.9269-6.4888-0.96892-8.3862-2.3651-1.5496-2.6511-1.5413-4.5 0.13194-2.3736 2.1481-2.4622 3.6329-0.4487 7.5265 1.8187 3.517 3.7938 3.7599 5.9176 0.72783zm177.77 43.973c1.3128-3.8376 2.3396-4.679 4.8945-4.0109 2.5177 0.6584 14.89-0.69912 14.89-1.6338 0-0.40451-3.0375-1.7895-6.75-3.0777-13.291-4.6119-23.25-10.5-23.25-13.747 0-0.98124 0.92393-1.2308 3.25-0.87792 1.7875 0.27119 5.275 0.75438 7.75 1.0738 6.3055 0.81367 29.833 12.136 33.17 15.962l2.67 3.0616-6.2324 6.5h-31.504zm-176.48-2.2711c-3.7066-2.4866-6.7393-4.9757-6.7393-5.5314 0-2.1081 3.373-2.1649 7.5669-0.12731 4.8159 2.3398 6.8096 1.3583 3.8605-1.9005-1.7032-1.8821-1.6659-2.0614 1.0116-4.856 2.9829-3.1135 12.374-8.4132 16.709-9.4297 3.2552-0.76324 16.731-15.253 22.471-24.161l4.1188-6.3926 2.4202 3.4015c3.0927 4.3466 9.0924 9.1177 13.445 10.692 1.8684 0.67564 3.3973 1.7005 3.3974 2.2775 1.7e-4 0.57701-2.3623 4.5731-5.25 8.8802-6.2958 9.3905-11.052 12.557-32.25 21.47-7.7 3.2375-15.8 6.8368-18 7.9986-2.2 1.1617-4.4548 2.1321-5.0107 2.1564-0.55587 0.0243-4.0434-1.9903-7.75-4.4769z"/>
   <path d="m-719.41 430.65c2.4714-3.9065 6.2294-24.395 6.7865-37 0.1424-3.2219 0.64505-4.75 1.5625-4.75 3.1614 0 21.195 2.1486 25.99 3.0966 4.9028 0.96926 5.4247 1.3731 8.6801 6.7173 1.905 3.1273 5.0296 7.1976 6.9435 9.045 3.3686 3.2515 3.4398 3.4746 2.2273 6.9768-0.83006 2.3976-2.0326 3.802-3.5653 4.1639-3.1963 0.75454-4.811 3.4935-3.39 5.7505 0.93496 1.485 2.969 1.7928 13.431 2.0323 6.7812 0.15525 12.857 0.72017 13.502 1.2554 1.5034 1.2478 10.336 3.9374 12.977 3.9515 2.5406 0.0136 17.136-14.625 21.425-21.489 3.6974-5.9167 7.0773-16.24 6.992-21.355-0.0514-3.0838-0.74164-4.1832-4.4855-7.1447-4.9264-3.8968-4.8638-3.2166-1.4273-15.5 3.3708-12.048 3.197-27.275-0.4337-38-5.6452-16.676-15.196-28.744-34.822-44-16.252-12.634-27.51-17.86-41.069-19.065-5.9261-0.52668-9.8595-0.0825-22.202 2.5073-20.061 4.2093-36.265 7.0434-40.317 7.0515-1.933 4e-3 -4.6448-0.98062-6.5-2.3598-5.5936-4.1583-12.006-5.9859-18.437-5.2551-7.0685 0.80324-13.06 3.8024-23.079 11.553-5.724 4.428-10.018 6.7772-16.688 9.1288-17.453 6.1541-27.364 12.948-37.266 25.547-4.9094 6.2462-6.8561 8.0377-8.3186 7.6552-2.9031-0.75918-7.3159 1.4865-9.2049 4.6843-2.1215 3.5915-2.1851 9.8494-0.12311 12.128 1.4233 1.5727 1.4233 2.2175 0 7.0102-2.2236 7.4877-2.0253 16.98 0.47626 22.795l2.0437 4.7508-1.9774 8.8743c-1.1857 5.3213-1.6421 9.499-1.1399 10.435 0.8549 1.5929 16.951 6.5531 20.441 6.2993 1.0512-0.0764 3.9203-2.074 6.3759-4.439l4.4647-4.3-0.61711 4c-0.3394 2.2-1.0847 5.6604-1.6563 7.6899-1.0344 3.6729-1.0746 3.6958-8.7432 4.9844-8.7609 1.4721-11.235 3.2635-11.235 8.1346 0 4.8423 1.6561 6.374 10 9.2488 10.932 3.7663 20.583 4.1636 29.927 1.2319l7.427-2.3302 7.5442-10.98c8.1888-11.918 19.385-23.701 28.415-29.905 5.4855-3.7688 5.8337-3.8681 8.739-2.4922 2.6243 1.2429 3.4733 2.7668 6.3983 11.485 1.8549 5.5286 4.8154 13.106 6.5788 16.838l3.2064 6.7863-4.8678 4.9943c-2.6773 2.7469-5.8803 5.3925-7.1178 5.8792-3.2647 1.284-3.066 5.6736 0.3151 6.9591 1.4108 0.53639 11.975 0.97525 23.477 0.97525 20.598 0 20.933-0.0338 22.335-2.25zm-32.377-6.5629c0-0.4471 1.3887-2.1346 3.0861-3.75 5.1445-4.8962 5.24-5.6532 1.4978-11.868-2.9304-4.8665-7.4322-16.282-11.827-29.99-1.1071-3.4531-2.1106-4.3529-8.4164-7.5457-8.1534-4.1283-14.349-8.7418-19.518-14.534-3.9786-4.4582-11.423-15.666-12.354-18.6-0.76673-2.4157-3.4683-2.4909-3.4683-0.0965 0 0.99204-2.0601 5.9558-4.5781 11.031-6.0672 12.228-18.436 25.58-27.722 29.925-3.4176 1.5993-8.7072 4.9387-11.755 7.4209-4.4635 3.6356-5.9691 4.3547-7.7431 3.6985-1.681-0.62184-2.2022-1.6234-2.2022-4.2318 0-2.5047-0.64164-3.8376-2.4028-4.9916-2.1973-1.4397-2.3229-1.93-1.4687-5.7318 0.80358-3.5765 0.58042-4.8671-1.5972-9.237-2.7992-5.6173-3.0425-8.2047-1.4636-15.567 0.73476-3.426 1.8262-5.4756 3.5-6.5723 3.3577-2.2 3.1189-5.5851-0.56771-8.0476-3.0927-2.0658-3.5309-3.1159-2.1847-5.2354 0.58131-0.91522 2.5167-1.0268 7.4681-0.43075 8.0607 0.97041 10.291 0.0257 6.8152-2.8871-2.1724-1.8206-2.2743-2.2501-1.0683-4.5035 2.2727-4.2466 13.196-14.986 18.97-18.651 5.0486-3.2044 10.083-5.4163 23.411-10.286 2.7009-0.9869 8.7325-4.7104 13.404-8.2745 11.516-8.7868 15.923-10.649 23.364-9.8708 7.377 0.77104 14.703 4.4682 21.395 10.797 5.6129 5.3085 7.5794 5.2669 4.3208-0.0914-1.1011-1.8107-1.8653-3.384-1.6982-3.4962 0.16714-0.11222 4.5789-0.73429 9.8039-1.3824 5.225-0.64809 15.575-2.6061 23-4.3512 28.827-6.7752 39.358-4.0015 65.998 17.383 11.877 9.5338 19.055 17.651 23.877 27.001 2.6002 5.0416 3.1174 7.1702 3.0783 12.669l-0.0469 6.6095-2.4209-7.5148c-4.0427-12.549-8.1438-15.637-5.043-3.7966 2.9402 11.227 3.0984 19.531 0.58106 30.493-1.2402 5.4003-2.6848 10.636-3.2102 11.636-1.4023 2.6672 0.77105 5.3286 9.5405 11.683 8.5152 6.1701 8.6919 6.648 5.6869 15.382-2.3986 6.9716-4.5986 10.188-12.908 18.868-9.0781 9.4839-11.203 9.0417-9.0324-1.8796 1.2014-6.0442 1.547-6.6154 4.8465-8.0096l3.5528-1.5012-11-3.7685c-19.427-6.6557-30.016-13.15-40.484-24.831-5.9527-6.6423-12.332-19.178-14.007-27.523-1.6549-8.2475-3.429-6.4096-2.5525 2.6444 0.8335 8.6106 4.4612 19.886 8.4704 26.327 1.6243 2.6097 2.8526 4.8455 2.7296 4.9685-0.12301 0.12302-3.3585-0.18967-7.1901-0.69486-3.8315-0.50518-9.5539-1.1902-12.716-1.5222l-5.75-0.60369v-4.373c0-3.927-0.47697-4.812-4.6771-8.678-6.1341-5.6461-22.33-22.37-24.072-24.857-1.4948-2.1341-3.2513-2.5887-3.2513-0.84145 0 1.5594 12.382 19.138 18.856 26.769l5.4126 6.3803-0.69891 11.122c-0.61887 9.8481-3.6782 31.155-5.1464 35.842-0.46329 1.479-2.245 1.7636-12.731 2.0338-6.7057 0.17275-12.53 0.4114-12.942 0.53032s-0.75-0.14959-0.75-0.59669zm-100.64-58.693c3.4965-3.4965 2.7658-8.6836-1.41-10.009-4.4199-1.4028-6.6376 4.6648-3.3964 9.2924 1.8325 2.6162 2.7674 2.7556 4.8064 0.71659zm192.82 51.006c0.88401-1.9402 1.8869-2.5 4.4786-2.5 1.8367 0 3.3395-0.45 3.3395-1s-0.3375-1.0134-0.75-1.0298c-1.3132-0.0523-9.7722-7.7813-9.1725-8.381 0.31647-0.31646 2.341 0.27346 4.499 1.3109 2.158 1.0375 5.8361 2.4556 8.1736 3.1514 4.62 1.3752 4.7398 1.6448 3.1974 7.1985l-1.0414 3.75h-13.863zm-182.73 0.87843c-3.5505-0.89187-6.4555-1.965-6.4555-2.3848 0-1.1113 10.262-2.2171 13.359-1.4396 1.9897 0.49938 2.6407 0.28679 2.6407-0.86229 0-0.83879-0.55709-1.7108-1.238-1.9377-0.93621-0.31207-0.65547-2.8309 1.1517-10.333 3.6373-15.1 4.0781-16.421 5.4823-16.421 2.2009 0 20.225-19.358 23.612-25.36l3.1947-5.6607 2.7768 3.7603c3.1876 4.3165 4.8525 6.079 11.431 12.101 2.608 2.3874 4.5951 4.4454 4.4158 4.5734-12.816 9.1504-21.978 18.483-30.689 31.262-3.4403 5.047-6.7942 9.6239-7.4532 10.171-1.2978 1.0771-11.062 3.9142-13.979 4.062-0.98697 0.05-4.6995-0.63885-8.25-1.5307zm221.33-57.128c1.6665-14.707 1.9873-16.25 3.3781-16.25 0.79066 0 0.92568 2.1397 0.45475 7.2068-0.78074 8.4005-3.7308 20.793-4.9499 20.793-0.11793 0 0.38474-5.2875 1.117-11.75z"/>
   <path d="m-941.54 430.08c9.1365-6.8301 8.4347-6.6429 26.026-6.9402l16.28-0.27512 8.7922-14.918-2.8522-15.041c-3.7754-19.909-3.7579-31.697 0.0699-47.041l2.7442-11-2.4394-6.6961c-6.7898-18.637-19.787-33.737-43.978-51.094-8.8112-6.3217-15.45-9.3296-25.116-11.379-9.2216-1.9555-16.619-1.2959-41.019 3.6574-26.759 5.4323-29.484 5.6881-32.801 3.079-11.306-8.8935-25.495-7.7933-39.135 3.0345-9.8295 7.8028-12.653 9.4137-21.678 12.366-13.189 4.3145-21.593 9.1567-30.3 17.457-4.29 4.0899-8.5496 8.7048-9.4656 10.256-1.401 2.3718-2.3241 2.8194-5.8135 2.8194-7.6965 0-12.549 8.3145-9.0876 15.572 1.4694 3.0814 1.4645 3.6533-0.062 7.1388-2.3173 5.2914-2.3908 20.66-0.1187 24.801 1.5693 2.86 1.528 3.4811-0.8177 12.316-1.9102 7.1947-2.2063 9.6221-1.3058 10.707 1.2023 1.4487 16.374 6.4651 19.553 6.4651 0.9862 0 4.3854-2.0366 7.5537-4.5258 5.7239-4.4969 13.043-8.4102 15.809-8.4523 0.7949-0.0121 2.6756-1.2007 4.1793-2.6413l2.734-2.6194 1.081 4.0145c1.0758 3.9952 1.045 4.0659-6.4235 14.734-4.1275 5.8958-8.0317 12.479-8.6761 14.63-0.7562 2.524-2.0833 4.3472-3.7435 5.1429-2.9313 1.405-3.8267 4.1327-2.0566 6.2656 0.9772 1.1775 4.8528 1.452 20.502 1.452h19.297l10.506-11.494c7.9786-8.7285 11.005-12.827 12.58-17.038 1.1409-3.0491 2.0743-5.977 2.0743-6.5064 0-2.2886 2.6135-0.23052 15.179 11.953l13.321 12.916-4.5 4.6643c-2.475 2.5654-5.7375 5.3148-7.25 6.1098-2.7649 1.4533-3.8494 5.5966-1.797 6.8651 1.6652 1.0291 45.465 1.7252 46.869 0.74482 3.2004-2.2344 3.9401-13.045 1.6227-23.716-0.83613-3.85-1.7846-8.2375-2.1076-9.75-0.57338-2.6844-0.47842-2.75 3.9809-2.75 3.2425 0 4.9475 0.52095 5.875 1.7951 4.462 6.1297 16.644 11.205 26.896 11.205 3.251 0 5.9109 0.24502 5.9109 0.54448 0 0.29947-0.74997 3.5301-1.6666 7.1792l-1.6666 6.6348 3.1666 2.6436c1.7416 1.454 3.1666 3.1412 3.1666 3.7493 0 1.5113 2.8527 4.2486 4.4276 4.2486 0.70662 0 3.262-1.4781 5.6786-3.2846zm-86.106-7.5192c0-0.44211 1.575-2.3304 3.5-4.1962s3.5-4.1918 3.5-5.169c0-2.1629-24.02-25.913-33.192-32.818-10.323-7.7726-14.825-14.927-22.817-36.263-1.8026-4.8125-3.7894-8.75-4.4152-8.75-0.6257 0-1.6812 1.2375-2.3455 2.75-4.937 11.241-9.1683 17.303-18.671 26.75-8.0652 8.0176-11.079 10.348-15.205 11.754-2.83 0.96469-7.9732 3.8357-11.429 6.38-5.3823 3.9623-6.6528 4.4961-8.8546 3.7205-2.1603-0.76101-2.5182-1.4244-2.2425-4.1564 0.243-2.4075-0.2476-3.7171-1.8911-5.0479-1.9662-1.5921-2.1109-2.2447-1.2692-5.7236 0.7715-3.1888 0.5748-4.772-1.0472-8.4265-3.585-8.0772-1.8907-21.186 2.9774-23.037 3.4127-1.2975 3.1226-4.8851-0.6457-7.9832-2.2286-1.8323-2.8739-3.0203-2.3633-4.3509 0.6218-1.6203 1.4517-1.7502 7.2309-1.1312 3.5908 0.38453 7.1252 0.92808 7.8543 1.2079 2.1412 0.82165 1.5448-2.7073-0.775-4.5858-2.0865-1.6896-2.0517-1.7536 5.1282-9.4418 8.7626-9.3829 16.662-14.238 31.374-19.285 6.1014-2.0931 12.706-5.1201 15-6.8751 2.2545-1.7245 6.2952-4.8148 8.9795-6.8674 6.4097-4.9013 10.802-6.6498 16.704-6.6498 7.4137 0 15.148 3.3954 21.834 9.5848 6.8497 6.3416 9.252 7.0638 6.1806 1.858-1.1544-1.9564-2.0988-3.9147-2.0988-4.3518 0-0.43705 3.4875-1.0646 7.75-1.3946 4.2625-0.32998 14.275-2.0227 22.25-3.7615 24.663-5.3776 37.559-4.1942 51.041 4.6838 14.183 9.3393 32.83 26.476 36.668 33.698 1.7302 3.2553 2.2909 13.256 0.87184 15.552-0.46582 0.75371-2.6045-1.8765-5.7608-7.0849-5.8079-9.5839-5.6099-9.3275-6.5097-8.4276-0.80919 0.80919 1.9967 9.1407 5.3416 15.861 1.2913 2.5942 2.3478 6.1379 2.3478 7.875 0 3.8422-3.6993 12.397-10.555 24.408-8.2968 14.537-8.0249 13.885-5.515 13.228 1.8563-0.48543 3.1981 1.032 9.6135 10.871 4.1008 6.2896 7.4561 11.823 7.4561 12.296 0 2.4037-32.373 23.559-34.69 22.669-2.3842-0.91491-2.5718-3.4183-0.75823-10.118 1.2461-4.6036 2.6111-7.2478 4.6094-8.9292 1.5614-1.3139 2.8388-2.5304 2.8387-2.7034-1.5e-4 -0.17301-6.4126-0.33862-14.25-0.36802-12.268-0.046-14.876-0.34356-18.75-2.1389-8.5468-3.9609-15.175-13.239-17.992-25.184-1.3067-5.5412-0.96343-27.88 0.48215-31.373 0.4137-0.99975 0.28453-1.75-0.3013-1.75-1.3543 0-4.8592 10.832-6.1479 19-1.3929 8.8286-1.277 15.362 0.39902 22.488 1.5151 6.4414 0.9782 7.7687-2.9396 7.2678-2.6363-0.33709-7.8593-14.167-9.6512-25.555l-1.2957-8.2343-7.0265-3.5617c-3.8647-1.9589-9.3698-5.3264-12.234-7.4831-5.7628-4.3399-6.2929-4.5521-6.2929-2.5193 0 0.77119 4.2025 5.3837 9.339 10.25 9.2825 8.7942 9.3426 8.8824 9.9226 14.548 0.3209 3.1348 3.3679 13.925 6.7711 23.978 4.7257 13.959 6.3135 20.114 6.7203 26.05l0.5328 7.7723h-12.643c-6.9536 0-12.643-0.36172-12.643-0.80383zm-106.07-60.831c2.4824-3.1559 2.5596-4.2248 0.5159-7.1426-2.5519-3.6433-7.4433-2.3112-7.4433 2.0272 0 2.3422 2.7584 7.7503 3.9531 7.7503 0.4959 0 1.8344-1.1857 2.9743-2.6349zm216.62 52.826c0.5225-0.44462 3.7658-3.192 7.2074-6.1053 3.4416-2.9133 6.5172-6.3322 6.8348-7.5974 0.63895-2.5458 0.95658-1.9512-10.462-19.586l-8.157-12.597 4.6564-6.9027c7.0261-10.416 9.6919-16.9 9.827-23.903 0.11589-6.0056 2.7648-13.099 4.4927-12.032 0.4751 0.29362 1.533 2.4979 2.351 4.8984 1.3866 4.0696 1.324 5.0326-0.92663 14.249-4.4527 18.234-4.2978 26.263 1.0484 54.32 1.3815 7.2502 1.3738 7.3209-1.2586 11.679l-2.6485 4.3848h-6.9573c-3.8265 0-6.5298-0.36378-6.0073-0.80841zm-192.55-0.998c0-0.99353 2.3222-5.156 5.1605-9.25 9.4624-13.649 9.895-14.142 11.339-12.944 1.5594 1.2942 3.0307-0.33282 1.9225-2.1259-0.3829-0.61956-1.7035-5.0855-2.9347-9.9243l-2.2386-8.7978 3.4158-3.3108c1.8787-1.8209 5.0439-5.6746 7.0337-8.5636l3.6178-5.2529 2.2517 5.5402c2.8035 6.898 7.8257 15.258 11.578 19.273 3.4671 3.7098 3.4833 4.1789 0.4163 12.005-1.8782 4.7925-4.4622 8.386-11.25 15.645l-8.8118 9.4237-10.75 0.0444c-9.7157 0.0401-10.75-0.12937-10.75-1.762z" fill="#ff5544"/>
  </g>
 </g>
</svg>
