<?xml version="1.0" encoding="UTF-8" standalone="no"?>
<svg
   xmlns:dc="http://purl.org/dc/elements/1.1/"
   xmlns:cc="http://creativecommons.org/ns#"
   xmlns:rdf="http://www.w3.org/1999/02/22-rdf-syntax-ns#"
   xmlns:svg="http://www.w3.org/2000/svg"
   xmlns="http://www.w3.org/2000/svg"
   viewBox="0 0 1796.9062 173.79343"
   height="150"
   width="1080"
   id="svg10"
   version="1.1">
  <metadata
     id="metadata16">
    <rdf:RDF>
      <cc:Work
         rdf:about="">
        <dc:format>image/svg+xml</dc:format>
        <dc:type
           rdf:resource="http://purl.org/dc/dcmitype/StillImage" />
        <dc:title></dc:title>
      </cc:Work>
    </rdf:RDF>
  </metadata>
  <defs
     id="defs14" />
  <g
     transform="translate(1154.1069,-262.1218)"
     id="g18">
    <g
       id="g110">
      <path
         style="fill:#000000"
         d="m 632.73007,417.04522 c 5.53815,-10.3785 10.06937,-19.40319 10.06937,-20.05487 0,-0.65168 -1.72586,-3.74768 -3.83523,-6.88 -2.10938,-3.13232 -5.57114,-8.62013 -7.69281,-12.19513 l -3.85757,-6.5 -0.69295,-14.5 c -0.74373,-15.56268 -1.93411,-20.37392 -7.98877,-32.28871 -7.91881,-15.58319 -30.37624,-39.82197 -44.97138,-48.53856 -7.86901,-4.69958 -19.3379,-8.17273 -26.98764,-8.17273 -2.58853,0 -10.50405,1.09101 -17.59004,2.42447 -16.06265,3.0227 -29.56285,4.04705 -40.8957,3.10303 -8.35273,-0.69578 -8.94315,-0.90594 -12.96806,-4.61597 -10.2974,-9.49181 -17.36494,-9.05855 -37.12832,2.27609 -4.34034,2.48926 -10.59153,5.52076 -13.89153,6.73668 -14.13831,5.2094 -26.79194,14.3495 -42.77367,30.89673 -8.88491,9.19929 -10.03646,10.06694 -12.66342,9.54155 -3.73291,-0.74658 -8.58368,2.06624 -10.17072,5.89771 -1.46964,3.54801 -1.40849,8.41268 0.12903,10.26528 0.88888,1.07103 0.54894,2.89194 -1.49252,7.99477 -2.95684,7.39094 -3.53259,15.50162 -1.56258,22.01229 1.08805,3.59589 0.93936,4.8925 -1.37296,11.97226 -1.42624,4.36679 -2.59316,8.94355 -2.59316,10.17057 0,2.33661 2.73999,3.90851 13.53988,7.76762 l 5.03989,1.8009 5.71389,-3.65514 c 3.14264,-2.01032 9.4247,-4.88014 13.96012,-6.37738 5.10692,-1.6859 11.19661,-4.73045 15.99622,-7.99733 4.2625,-2.90129 7.75,-4.97698 7.75,-4.61264 0,0.36434 -0.84542,2.06556 -1.87872,3.78048 -1.0333,1.71491 -2.42898,4.83821 -3.10152,6.94066 -1.1333,3.54282 -0.98913,4.29729 1.96956,10.30724 1.7558,3.56654 5.44451,9.19084 8.19712,12.49844 2.75262,3.3076 4.84924,6.13106 4.65916,6.27435 -3.62686,2.73407 -5.47278,3.36982 -8.40352,2.89423 -3.00541,-0.48771 -3.41221,-0.2641 -4.03522,2.21819 -0.88974,3.54499 1.07693,5.10533 13.15112,10.43398 18.74241,8.2715 23.62184,7.85564 34.50051,-2.94039 6.32459,-6.27655 18.92459,-22.50293 27.96121,-36.00867 2.39201,-3.575 4.44416,-6.64053 4.56032,-6.81228 0.11617,-0.17176 2.73318,1.38622 5.8156,3.46217 l 5.60438,3.77446 v 5.72273 c 0,3.14749 0.47531,6.97288 1.05625,8.50086 0.86291,2.26964 0.5737,4.10118 -1.58005,10.0064 -2.25381,6.17956 -3.00903,7.27305 -5.20538,7.53696 -3.3417,0.40153 -5.16323,3.17001 -3.65737,5.5587 0.99417,1.57702 3.53772,1.77644 25.73238,2.01744 l 24.62917,0.26744 4.7625,-6.10891 c 7.67667,-9.84696 7.91943,-10.38515 6.38842,-14.16339 -1.91167,-4.71764 -3.01226,-10.76258 -1.95953,-10.76258 2.27748,0 8.57971,3.39445 14.18465,7.64001 6.35318,4.81232 15.82784,9.62102 21.2559,10.78806 3.05147,0.65607 3.09242,0.74303 2.29355,4.86996 -0.44736,2.31109 -0.83299,4.53947 -0.85694,4.95197 -0.0239,0.4125 -0.71855,0.75 -1.54355,0.75 -0.825,0 -2.41031,0.91031 -3.52292,2.02292 -1.60672,1.60672 -1.80522,2.42968 -0.96481,4 0.9967,1.86235 2.15457,1.97708 19.95354,1.97708 h 18.89545 z m -27.72594,10.9389 -7.29532,-0.0689 0.63264,-3.75 c 1.08162,-6.41145 1.45769,-7.08654 5.25962,-9.4418 l 3.69837,-2.29111 -4.5,-0.82433 c -12.28615,-2.25064 -20.64778,-5.23859 -27.46587,-9.81468 -8.24168,-5.53157 -23.54066,-21.03702 -31.95771,-32.38901 -3.25797,-4.39399 -6.07047,-8.17657 -6.25,-8.40574 -0.17953,-0.22916 -0.58401,-0.15907 -0.89884,0.15576 -0.8267,0.82669 3.97667,10.9648 9.66527,20.39979 2.69893,4.47638 4.90715,8.4442 4.90715,8.81738 0,0.37319 -0.7875,0.44343 -1.75,0.1561 -0.9625,-0.28734 -8.60489,-1.22438 -16.98308,-2.08233 -17.2507,-1.76651 -26.74501,-4.63806 -32.88568,-9.94625 l -3.73284,-3.22678 -0.12685,-14.9285 c -0.0993,-11.68202 -0.51641,-15.96148 -1.9182,-19.6785 -0.98524,-2.6125 -2.08655,-4.7501 -2.44735,-4.75023 -0.3608,-1.2e-4 -0.65915,7.08738 -0.66301,15.75 -0.007,14.9916 -0.14165,16.06885 -2.80229,22.36522 -1.53741,3.63824 -4.91156,9.26324 -7.49811,12.5 -2.58656,3.23675 -8.43193,10.66933 -12.98971,16.51683 -10.44173,13.39643 -20.1585,22.86818 -23.45978,22.86818 -2.69176,0 -13.71814,-3.57504 -15.00961,-4.86651 -0.45151,-0.45151 1.23445,-2.50514 3.74656,-4.56363 5.79943,-4.7522 8.28139,-9.66045 10.6236,-21.00894 2.79327,-13.53397 2.56603,-16.89736 -1.47912,-21.89262 -4.08111,-5.03968 -5.59654,-7.97682 -8.96999,-17.38521 -2.74106,-7.6447 -7.05017,-15.28309 -8.62177,-15.28309 -0.51818,0 -1.2075,1.6875 -1.53183,3.75 -1.15686,7.35686 -2.82699,11.15707 -6.99967,15.92707 -5.35187,6.118 -19.60502,15.8 -25.50127,17.32273 -2.475,0.63918 -8.1,3.05307 -12.5,5.3642 -9.72872,5.11009 -11.75028,5.05333 -10.89331,-0.30585 0.50585,-3.16338 0.24421,-4.04917 -1.57168,-5.32108 -2.02872,-1.42096 -2.09273,-1.81239 -0.93065,-5.69104 1.07555,-3.58987 0.99898,-4.85735 -0.55436,-9.17705 -2.90315,-8.07338 0.0179,-21.04175 5.02248,-22.29782 3.2438,-0.81414 3.20863,-4.48872 -0.0725,-7.57116 -2.60025,-2.44281 -2.98181,-3.69451 -1.72731,-5.66645 0.55924,-0.87906 2.0874,-0.81747 6.20262,0.25 6.9948,1.81442 10.02471,1.80631 10.02471,-0.0269 0,-0.79381 -0.97436,-2.12576 -2.16525,-2.95989 -2.13281,-1.49388 -2.0317,-1.6538 6.75,-10.6752 15.24583,-15.66197 26.13059,-23.55526 39.66545,-28.76414 4.26261,-1.64046 11.23761,-4.97223 15.5,-7.40394 8.95207,-5.10717 15.30555,-7.75353 18.615,-7.75353 5.32449,0 18.30868,10.74964 25.629,21.21831 1.81463,2.59507 3.67926,4.4835 4.14363,4.19651 0.88878,-0.5493 -1.23237,-6.3735 -3.68917,-10.12964 -0.79676,-1.21815 -1.44681,-2.56815 -1.44454,-3 0.002,-0.43185 6.86476,-0.81723 15.25,-0.8564 11.24318,-0.0525 18.25582,-0.64324 26.71044,-2.25 25.43937,-4.83462 35.73842,-2.21064 53.79979,13.7071 16.77374,14.78293 30.38981,33.59597 34.54406,47.7288 2.94247,10.01036 2.99333,16.81667 0.26319,35.21831 -1.41438,9.53314 -2.5716,17.61064 -2.5716,17.95 0,1.52187 2.4017,-2.05381 5.45305,-8.11855 l 3.32385,-6.60635 5.80284,9.15361 5.80285,9.15362 -4.9413,9.53575 c -11.94017,23.04227 -11.24708,21.98966 -14.22031,21.59652 -1.49654,-0.19789 -6.00387,-0.3908 -10.01629,-0.42869 z M 373.69299,362.52853 c 3.93669,-4.19041 1.98391,-10.15914 -3.08851,-9.44007 -1.69708,0.24057 -2.39157,1.08395 -2.63312,3.19759 -0.7846,6.86551 2.13935,10.05564 5.72163,6.24248 z m 135.68441,55.11191 c 1.42678,-4.18738 1.53808,-4.26701 5.44338,-3.89458 6.97064,0.66476 7.27785,-0.24573 1.8981,-5.62548 -4.5129,-4.5129 -4.91944,-5.31233 -4.91944,-9.67359 v -4.75415 l 3.25,0.57396 c 2.84207,0.50193 10.21224,1.44569 25.5,3.26531 3.91581,0.46608 4.25,0.73581 4.25,3.43023 0,1.60841 0.5328,4.91644 1.18399,7.35119 1.14816,4.29283 1.08006,4.56473 -2.25,8.98343 l -3.43399,4.55662 -16.1893,0.0309 -16.1893,0.0309 1.45656,-4.27478 z m -89.28978,-24.07925 -3.55938,-5.85404 1.72749,-3.64596 c 2.93188,-6.18787 8.6379,-15.14597 9.6475,-15.14597 0.52744,0 1.23946,0.7875 1.58227,1.75 0.34282,0.9625 2.17276,3.67951 4.06654,6.0378 l 3.44325,4.2878 -1.20218,8.7122 c -0.6612,4.79171 -2.09069,10.7372 -3.17666,13.2122 l -1.97448,4.5 -3.49749,-4 c -1.92361,-2.2 -5.0992,-6.63432 -7.05686,-9.85403 z"
         id="path22" />
      <path
         style="fill:#000000"
         d="m 158.53116,431.04922 c 0.59317,-1.10835 2.23311,-5.4529 3.6443,-9.65455 2.08477,-6.20713 14.80908,-36.11368 15.78378,-37.09737 0.14557,-0.1469 2.91947,1.33363 6.16423,3.29007 3.24476,1.95645 6.91206,3.81293 8.14956,4.12552 1.9481,0.49208 2.25,1.22276 2.25,5.44558 0,2.68248 0.50629,6.7962 1.12508,9.14159 0.9418,3.56967 0.81071,5.32317 -0.80471,10.76401 -1.73184,5.83294 -2.23191,6.55146 -4.87508,7.00474 -2.29183,0.39303 -3.01405,1.09925 -3.25522,3.18309 -0.52105,4.50218 1.63164,4.87531 26.43074,4.58136 l 22.68184,-0.26885 6.29566,-8.24273 6.29566,-8.24273 -1.87606,-4.25727 c -1.93991,-4.40216 -2.44034,-7.19627 -2.17343,-12.13508 0.15184,-2.80962 0.25622,-2.86177 4.40552,-2.20087 2.3375,0.37231 6.95,2.42977 10.25,4.57213 10.77798,6.99706 26.09497,13.00655 33.15108,13.00655 3.05645,0 3.35398,0.83947 2.20571,6.22334 -0.85455,4.00675 -1.36768,4.70024 -3.67501,4.96682 -2.24424,0.25929 -2.68178,0.7993 -2.68178,3.30984 v 3 l 18.10928,0.27201 c 13.73698,0.20634 18.3461,-0.0351 19.09013,-1 0.53946,-0.6996 2.69693,-7.76591 4.79438,-15.7029 3.40418,-12.88186 3.66286,-14.67448 2.40987,-16.70027 -0.77201,-1.24816 -4.68966,-7.01804 -8.70587,-12.82195 -9.00441,-13.01244 -10.19779,-15.80741 -10.19779,-23.88378 0,-9.2739 -2.63802,-22.98326 -5.9304,-30.81937 -4.32357,-10.2904 -13.41709,-23.22979 -24.03248,-34.19639 -15.45034,-15.96151 -26.94995,-23.43479 -42.71652,-27.76029 -11.05105,-3.03181 -23.15458,-2.25654 -42.3206,2.71077 -12.09682,3.13516 -16.24694,3.76995 -25.04044,3.83008 -10.33366,0.0707 -10.61813,0.0109 -14.5,-3.04484 -6.62262,-5.21326 -11.85209,-7.38307 -17.794,-7.38307 -7.12007,0 -12.26135,1.91613 -21.22187,7.90929 -4.79854,3.20946 -9.26843,5.32773 -12.78117,6.05697 -7.05573,1.46477 -17.88981,6.72738 -24.16252,11.73686 -6.0636,4.84249 -17.8352,16.88238 -23.51101,24.04688 -3.84156,4.84914 -4.48182,5.25 -8.3855,5.25 -5.12335,0 -8.03574,2.37299 -9.69037,7.89565 -0.97148,3.24251 -0.89333,4.43765 0.46871,7.16793 1.54441,3.09584 1.51892,3.58445 -0.46195,8.85651 -2.56652,6.83077 -2.885,17.07896 -0.68959,22.18993 1.45472,3.38662 1.40275,4.12079 -0.8398,11.8633 -3.12722,10.79689 -3.08221,12.5259 0.35951,13.81031 1.5125,0.56445 4.55,1.68448 6.75,2.48897 3.47822,1.2719 4.46571,2.3895 7.57012,8.56755 5.78013,11.50294 7.00894,12.45797 18.94197,14.72163 7.96949,1.51178 8.15064,1.50077 11.73338,-0.71349 2.00141,-1.23694 5.72566,-4.10229 8.27611,-6.36745 2.80437,-2.49068 7.91739,-5.44074 12.93638,-7.4639 7.45088,-3.00345 8.7716,-3.95488 12.92062,-9.30793 l 4.62142,-5.96253 0.31263,5.37676 c 0.55494,9.54405 -0.32292,11.60321 -8.55148,20.05884 -4.16526,4.2802 -8.40299,8.04555 -9.41718,8.36744 -2.3736,0.75335 -2.43835,5.07654 -0.094,6.2739 1.8553,0.94757 15.26442,2.58772 34.25,4.18934 15.97899,1.34798 16.76044,1.30337 18.00813,-1.02795 z m 142.99187,-7.1468 c 0,-0.40676 0.48391,-2.99597 1.07536,-5.75381 0.87405,-4.07555 1.71646,-5.41046 4.5,-7.13078 1.88355,-1.16409 3.42464,-2.55639 3.42464,-3.094 0,-0.5376 -0.33932,-0.76774 -0.75405,-0.51142 -1.20135,0.74247 -24.33022,-2.98019 -28.84319,-4.6424 -17.13488,-6.3111 -40.90665,-24.89146 -46.47499,-36.32554 -1.70025,-3.49131 -2.48183,-4.35107 -2.74646,-3.02121 -0.56627,2.84579 2.51638,9.9671 7.4053,17.10718 2.42737,3.54507 4.41339,6.59493 4.41339,6.77747 0,0.18254 -8.87319,0.20582 -19.7182,0.0517 -24.54447,-0.34874 -31.06592,-1.87838 -39.19468,-9.19328 l -3.41287,-3.07117 -0.18617,-10.76539 c -0.19726,-11.40633 -2.7778,-21.55748 -7.52595,-29.60498 -2.06143,-3.49387 -4.759,-5.1794 -3.64558,-2.27788 5.20436,13.56235 6.8263,28.17497 4.31094,38.83881 -0.87197,3.69673 -4.6837,12.92173 -8.4705,20.5 -3.78681,7.57827 -8.3863,17.82867 -10.2211,22.77867 -1.8348,4.95 -3.446,9.16252 -3.58044,9.36117 -0.31881,0.47103 -31.71896,-1.95751 -32.29686,-2.49789 -0.24277,-0.22702 1.84317,-2.76413 4.63542,-5.63802 2.79225,-2.87389 5.65601,-6.35026 6.36389,-7.72526 2.92968,-5.6906 1.9411,-37.15202 -1.22864,-39.10155 -3.88902,-2.39191 -9.99826,-8.02005 -15.32926,-14.1221 -5.87748,-6.72757 -11.98413,-11.42006 -12.91068,-9.92087 -0.25665,0.41526 -0.42743,2.13362 -0.37952,3.81858 0.23481,8.25858 -15.40655,26.30661 -26.21371,30.24709 -3.33375,1.21555 -8.87071,4.13344 -12.30435,6.4842 -5.26154,3.60219 -6.59924,4.11515 -8.50916,3.26292 -1.86403,-0.83176 -2.15274,-1.52765 -1.62695,-3.92157 0.48645,-2.21476 0.10616,-3.4778 -1.59104,-5.2844 -2.00804,-2.13746 -2.1238,-2.79351 -1.16168,-6.58394 0.90692,-3.57301 0.77573,-4.78396 -0.86716,-8.0043 -3.59075,-7.03844 -1.34669,-21.00692 3.68193,-22.9188 3.18702,-1.21171 3.11314,-4.92006 -0.15927,-7.99433 -2.32053,-2.18002 -3.05172,-5.94123 -1.18778,-6.10988 0.42385,-0.0383 3.7192,0.48663 7.323,1.16662 5.03762,0.95053 6.82446,0.96332 7.72937,0.0553 0.90333,-0.9064 0.6109,-1.60873 -1.25771,-3.02063 -2.30537,-1.74191 -2.34974,-1.96481 -0.83531,-4.19601 2.7659,-4.07496 14.05855,-16.34074 19.28026,-20.94172 8.17356,-7.20193 15.184723,-11.12306 24.94608,-13.9516 6.52281,-1.89011 11.46874,-4.15972 16.97214,-7.78824 14.94457,-9.85332 23.02916,-8.40588 42.31099,7.57519 7.14235,5.91968 9.31281,7.21444 9.21991,5.5 -0.0224,-0.4125 -1.38902,-2.325 -3.03703,-4.25 l -2.99639,-3.5 7.78703,-0.78502 c 4.28287,-0.4317 14.53703,-2.35899 22.78703,-4.28281 18.69032,-4.35839 24.49178,-4.98714 32.74887,-3.54923 14.88711,2.59248 28.64065,10.98559 43.49276,26.5415 14.82907,15.53177 22.65559,28.34768 25.98813,42.55549 1.8851,8.03689 2.33309,25.8711 0.96133,38.27013 -0.41074,3.7125 -0.37393,6.75 0.0818,6.75 0.45573,0 1.81241,-2.025 3.01486,-4.5 2.20619,-4.54101 3.59047,-5.54374 4.48668,-3.25 0.26862,0.6875 3.48131,5.41086 7.1393,10.49637 l 6.6509,9.24636 -2.64524,9.75364 c -3.85407,14.21092 -3.077,13.42686 -12.98806,13.10501 -4.63724,-0.15059 -8.43133,-0.60661 -8.43133,-1.01337 z M 58.48407,363.87585 c 2.56335,-2.75143 2.60676,-5.98761 0.11062,-8.24659 -2.29151,-2.07378 -5.69013,-1.3423 -6.5646,1.4129 -0.68722,2.16524 1.89906,9.02225 3.40296,9.02225 0.55664,0 1.9296,-0.98485 3.05102,-2.18856 z m 143.13864,58.43856 c 0.0548,-0.9625 0.41022,-2.86488 0.78978,-4.22752 0.61089,-2.19316 1.16165,-2.44347 4.79858,-2.18088 5.35858,0.38691 6.19847,-1.22477 2.33319,-4.47719 -4.35393,-3.66359 -7.1474,-9.48358 -6.38399,-13.30059 l 0.61276,-3.06382 h 16.375 16.375 v 6.03212 c 0,3.31766 0.63607,7.55445 1.41349,9.41508 1.36919,3.27692 1.29866,3.54144 -2.25,8.43843 l -3.66349,5.05546 -15.25,0.0295 c -13.90563,0.0269 -15.24121,-0.12481 -15.15032,-1.72054 z M 71.16792,408.4676 c -3.17553,-0.54795 -4.36542,-1.46989 -6.75,-5.22998 -1.59219,-2.51062 -2.89489,-5.38648 -2.89489,-6.3908 0,-2.40774 10.80421,-9.37891 17.59576,-11.35327 4.02272,-1.16944 6.75342,-3.01709 12.14689,-8.21886 3.82667,-3.69065 8.663273,-9.29707 10.748,-12.4587 l 3.79041,-5.74842 8.10947,7.74785 c 4.46021,4.26132 8.00017,8.07601 7.86658,8.4771 -0.1336,0.40109 -2.94249,4.52776 -6.24198,9.17037 -4.8186,6.78009 -6.73859,8.68072 -9.75711,9.65874 -2.06691,0.66969 -6.417117,2.5484 -9.66713,4.17492 l -5.90911,2.95729 -3.72705,-2.09472 c -2.04987,-1.15209 -4.00327,-2.09471 -4.34088,-2.09471 -1.4484,0 -0.41416,2.59899 2.06325,5.18485 1.4724,1.53686 2.4849,2.94025 2.25,3.11864 -0.23491,0.1784 -1.74757,1.32563 -3.36149,2.54939 -1.94794,1.47706 -3.79685,2.05535 -5.5,1.72028 -1.41108,-0.27762 -4.30041,-0.80411 -6.42072,-1.16997 z"
         id="path38" />
      <path
         style="fill:#000000"
         d="m -162.44296,433.34448 22.23947,-0.28924 1.59418,-2.43303 c 1.17623,-1.79516 1.81708,-6.59116 2.44436,-18.29313 0.84274,-15.72135 1.09153,-17.76152 3.16892,-25.98563 1.14861,-4.54722 1.87316,-5.08809 3.76398,-2.8098 1.57055,1.8924 13.06577,6.20242 20.20102,7.57417 5.59351,1.07535 5.66749,1.1357 7.22299,5.89138 1.49627,4.57457 1.46102,5.18336 -0.73518,12.69958 -1.38457,4.7385 -2.78921,7.78933 -3.5135,7.63117 -3.95095,-0.86275 -7.22298,5.74472 -3.54391,7.15651 0.86998,0.33385 12.03154,0.60699 24.80346,0.60699 h 23.22167 l 6.23177,-8.187 c 4.14357,-5.44362 6.00558,-8.71075 5.55676,-9.75 -2.27206,-5.26103 -3.76344,-10.02835 -3.28643,-10.50535 0.30434,-0.30434 3.78768,0.54673 7.74075,1.89125 3.95308,1.34453 11.82535,3.22929 17.49395,4.18834 l 10.306529,1.74375 3.30731,4.99803 3.30732,4.99804 -2.85022,2.27268 c -2.74148,2.18599 -2.80645,2.43631 -1.70295,6.56147 0.631,2.35884 1.61787,5.52629 2.19303,7.03879 l 1.04576,2.75 H 1.7576497 c 12.3124503,0 14.0979003,-0.2098 14.8932803,-1.75 0.49705,-0.9625 1.21654,-12.21699 1.59886,-25.00997 l 0.69513,-23.25997 -3.21047,-1.74003 c -5.70036,-3.08952 -17.4125805,-11.02532 -19.2207507,-13.02332 -1.34018,-1.48089 -1.85007,-4.17095 -2.14742,-11.32935 -0.47342,-11.39746 -3.38057,-25.13691 -7.4905503,-35.4011 C -23.42386,295.8577 -49.41744,272.8109 -75.71423,266.08532 c -11.89057,-3.0411 -19.94605,-2.62295 -40.84755,2.12035 -11.13192,2.52622 -21.78458,4.30747 -27.62064,4.61849 -9.4137,0.50167 -9.54878,0.4759 -14.87004,-2.83632 -4.37261,-2.72173 -6.60554,-3.41239 -12.02192,-3.71844 -9.14899,-0.51697 -14.09296,1.06713 -20.84976,6.68049 -8.12316,6.74849 -9.93273,7.79921 -17.40883,10.10834 -17.23833,5.32438 -34.641,16.46356 -45.56253,29.16387 -1.97804,2.3002 -2.81847,2.56576 -6.72596,2.12533 -3.96348,-0.44674 -4.80232,-0.16647 -7.462,2.49321 -3.66421,3.66421 -4.77507,7.62325 -3.26301,11.62915 0.97734,2.58926 0.7605,3.96457 -1.50946,9.57364 -3.13718,7.75198 -4.01595,15.46576 -2.42846,21.31691 1.05276,3.88028 0.86421,4.98007 -2.26217,13.19476 -1.87586,4.92891 -3.21082,9.48241 -2.96657,10.1189 0.24424,0.6365 3.97258,2.81309 8.2852,4.83688 6.98924,3.27984 7.90722,4.03188 8.44941,6.92201 0.33455,1.78332 2.13554,6.42926 4.0022,10.32432 4.38923,9.15879 8.34891,12.33624 15.37319,12.33624 7.22201,0 9.70268,-1.25991 12.76323,-6.48234 3.10359,-5.29588 3.88441,-5.69616 24.45748,-12.53818 16.59584,-5.51931 18.17656,-6.78231 22.60034,-18.05779 2.07596,-5.29128 2.9882,-6.58054 4.39571,-6.21247 2.04256,0.53414 2.62775,3.3465 3.60256,17.31344 0.77926,11.16513 -0.22849,16.89553 -4.74934,27.00621 -2.17021,4.85358 -3.94617,7.43767 -5.52391,8.03753 -2.92871,1.11349 -3.1723,5.40996 -0.3911,6.89842 1.06384,0.56935 2.30134,0.93174 2.75,0.80531 0.44866,-0.12643 10.8235,-0.36002 23.0552,-0.5191 z m 158.0105393,-8.19426 c -3.59484,-0.0742 -3.74034,-3.36177 -0.25,-5.64873 3.3238302,-2.17786 3.1602402,-3.80456 -1.09179,-10.85622 -3.3511,-5.55756 -3.47065,-6.03299 -1.82043,-7.23967 0.97142,-0.71032 1.57407,-1.48104 1.33922,-1.71273 -0.59425,-0.58623 -10.5563703,-3.10051 -22.4269993,-5.6602 -17.63131,-3.80188 -36.64316,-11.64959 -45.1988,-18.65717 -2.30934,-1.89148 -5.23434,-5.54123 -6.5,-8.11056 -2.17931,-4.42405 -2.31799,-4.5255 -2.61823,-1.91523 -0.42492,3.69436 3.23952,10.77392 7.96517,15.3884 2.11853,2.06868 3.8521,4.00741 3.85239,4.30829 10e-4,1.12003 -34.38853,-0.93671 -40.09154,-2.39775 -6.77147,-1.73477 -13.3972,-4.85389 -16.65899,-7.84237 -1.81318,-1.66124 -2.25287,-3.14394 -2.26478,-7.63714 -0.0211,-7.94044 -2.47037,-17.30345 -6.56472,-25.09503 -5.87587,-11.1818 -11.45794,-15.22825 -6.0419,-4.37977 7.52294,15.06864 8.07442,28.02548 2.02923,47.67654 -2.59982,8.45121 -4.38666,21.38443 -4.39963,31.84453 l -0.008,6.62195 -15.0681,0.72662 c -8.28745,0.39964 -15.25954,0.53516 -15.49353,0.30117 -0.234,-0.234 0.69968,-3.29643 2.07484,-6.8054 4.03905,-10.30642 4.85265,-17.31292 3.56721,-30.72005 -1.81375,-18.91758 -1.3526,-17.79673 -8.78072,-21.34185 -6.82826,-3.25882 -17.51704,-13.06137 -26.2997,-24.11913 -5.95824,-7.50169 -7.46004,-7.53157 -6.69646,-0.13324 0.52556,5.09224 0.30036,6.05792 -2.27377,9.75 -6.87445,9.86005 -20.95133,21.25275 -28.73404,23.25505 -3.18765,0.8201 -8.94573,3.19886 -12.79573,5.28614 -5.74118,3.11259 -7.4025,3.61222 -9.23822,2.77836 -1.9027,-0.86429 -2.15155,-1.55875 -1.66,-4.6327 0.45253,-2.82996 0.14216,-4.01064 -1.42776,-5.4314 -1.87817,-1.69972 -1.9104,-2.04417 -0.50578,-5.4059 1.34503,-3.2191 1.33277,-4.18726 -0.1185,-9.35955 -1.7385,-6.19597 -1.51199,-8.48206 1.64889,-16.64203 1.43584,-3.70671 2.57709,-5.25 3.88233,-5.25 1.01677,0 2.31289,-0.8674 2.88026,-1.92754 0.81993,-1.53205 0.51938,-2.53629 -1.46481,-4.89436 -4.85407,-5.76873 -2.50915,-8.39265 5.1638,-5.77821 5.78036,1.96956 9.33979,2.0542 9.33979,0.22208 0,-0.75791 -0.97277,-2.02392 -2.16171,-2.81334 -2.13399,-1.41693 -2.09234,-1.50361 3.25,-6.76327 11.58682,-11.40748 23.33635,-18.49392 39.17151,-23.62534 5.52888,-1.79165 10.50815,-4.20663 13.5,-6.54759 13.67711,-10.7016 17.08441,-11.91845 26.1181,-9.32754 7.58421,2.17519 13.49092,5.73854 20.37949,12.29437 3.16657,3.01361 6.0493,5.18738 6.40607,4.83061 0.35677,-0.35677 -0.74356,-2.8883 -2.44518,-5.62563 l -3.09385,-4.97696 3.18779,-0.48387 c 1.75308,-0.26612 5.66258,-0.7547 8.68758,-1.08571 3.025,-0.33101 11.575,-1.95452 19,-3.6078 17.67608,-3.93582 26.54426,-4.55682 35.37986,-2.47751 21.88728,5.15081 45.87461,24.83636 56.15888,46.08761 6.727509,13.90161 8.645339,22.35796 9.071689,40 0.19937,8.25 0.60216,16.0125 0.89508,17.25 0.56113,2.37056 2.48363,3.13656 2.5098,1 0.008,-0.6875 0.39878,-1.85505 0.86746,-2.59456 0.6642603,-1.0481 1.8768203,-0.56242 5.4992503,2.20264 2.55591,1.95097 7.1155504,5.02366 10.1325404,6.8282 l 5.4854403,3.28098 v 7.10937 c 0,3.91015 -0.2878,12.46752 -0.63955,19.01637 l -0.6395503,11.907 -5.61045,-0.19323 c -3.08575,-0.10627 -6.8479504,-0.21877 -8.3604504,-0.25 z M -257.29554,357.51013 c 2.52713,-3.21273 2.5405,-3.3615 0.55642,-6.19417 -2.23678,-3.19345 -6.22063,-2.95788 -7.0679,0.41792 -0.83755,3.33704 0.66658,7.74397 2.78214,8.15139 0.88892,0.17119 2.56712,-0.89762 3.72934,-2.37514 z m 162.09311,54.65765 c 1.22524,-4.55023 1.05432,-4.47015 6.38323,-2.99049 3.87807,1.07682 13.63678,0.36563 13.63678,-0.99381 0,-0.39726 -2.70501,-2.01517 -6.01113,-3.59535 -6.17155,-2.94973 -12.98887,-8.39753 -12.98887,-10.37955 0,-1.22401 20.26997,-1.58813 28.16537,-0.50594 4.4291,0.60707 4.4481,0.62702 5.47573,5.75 0.56716,2.82744 1.34599,5.84469 1.73073,6.70499 0.45448,1.01623 -0.52911,3.11809 -2.80778,6 l -3.50731,4.43582 -15.27837,0.5 c -8.4031,0.275 -15.41722,0.19595 -15.58693,-0.17567 -0.1697,-0.37162 0.18514,-2.50912 0.78855,-4.75 z m -155.43409,-6.8256 c -3.76055,-5.68258 -6.88231,-15.39512 -5.30567,-16.50719 2.87813,-2.03005 11.59683,-5.72 16.25977,-6.88149 7.19079,-1.79115 21.64538,-13.04243 29.46542,-22.93552 l 3.6198,-4.57939 8.08201,7.57772 8.08202,7.57771 -3.70387,7.99972 -3.70387,7.99971 -13.42076,4.38799 c -7.38141,2.41339 -15.83924,5.45089 -18.79518,6.75 -2.96695,1.30395 -7.33447,2.36201 -9.75,2.36201 -4.8574,0 -5.70461,1.43732 -1.87557,3.18195 2.93401,1.33683 3.00014,1.65899 0.9433,4.59554 -2.55849,3.65275 -6.91361,2.98005 -9.8974,-1.52876 z"
         id="path54" />
      <path
         style="fill:#000000"
         d="m -458.87206,434.88359 c 16.96288,-0.45335 20.96243,-0.83162 21.73469,-2.05559 0.52053,-0.825 0.95332,-11.33564 0.96174,-23.35699 0.0135,-19.22215 0.2001,-21.78608 1.54822,-21.26875 1.97157,0.75656 12.39531,2.44583 19.48238,3.15731 5.49609,0.55177 5.52521,0.57263 8.36143,5.98973 1.95911,3.74185 4.21331,6.29974 7.23292,8.20737 2.41273,1.52423 4.38759,3.29652 4.38857,3.93842 0.005,3.03775 -3.96519,10.09101 -5.97548,10.61671 -1.69279,0.44268 -2.09877,1.1885 -1.84633,3.39183 l 0.3236,2.82437 23.45399,0.26893 23.454,0.26893 6.296,-6.24004 c 3.9036,-3.8689 6.29601,-7.07042 6.29601,-8.42531 0,-1.67856 0.45477,-2.06635 1.96128,-1.67238 1.71272,0.44788 1.99787,1.5401 2.25,8.61842 l 0.28872,8.10554 5,3.83744 c 5.55161,4.2608 8.34563,4.45094 15.30145,1.04132 3.51575,-1.72337 3.99514,-2.61848 10.87342,-20.30285 3.95753,-10.175 7.22467,-19.26936 7.26032,-20.20969 0.0356,-0.94034 -1.84769,-3.40824 -4.18519,-5.48423 -2.3375,-2.076 -7.9625,-7.41056 -12.5,-11.85459 l -8.25,-8.08006 -0.004,-5.43572 c -0.005,-7.25958 -2.44527,-21.93054 -5.07127,-30.49329 -4.81226,-15.69159 -12.05184,-26.90252 -26.33196,-40.77666 -14.23864,-13.83384 -27.60732,-22.04001 -41.08407,-25.21888 -11.12266,-2.62359 -16.19276,-1.98951 -42.58245,5.32546 -18.1212,5.02303 -25.33515,6.05488 -27.71484,3.96422 -0.94126,-0.82695 -3.70957,-2.50882 -6.1518,-3.73751 -3.75703,-1.89017 -5.60971,-2.16629 -12.03831,-1.79414 -9.08818,0.52611 -13.42022,2.62169 -26.11386,12.63236 -6.68901,5.27519 -10.56737,7.48282 -17.50665,9.96506 -4.90273,1.75376 -11.38607,4.83764 -14.40742,6.85307 -6.93972,4.62925 -17.02455,14.95944 -23.49335,24.06495 -4.71604,6.63831 -5.18307,7.00929 -8.22346,6.5323 -2.70134,-0.42381 -3.79469,0.0655 -6.75,3.02081 -2.82273,2.82273 -3.52654,4.30039 -3.52654,7.40403 0,2.13263 0.67027,4.83445 1.4895,6.00405 1.32431,1.89072 1.31144,2.60852 -0.11599,6.47251 -2.35806,6.3831 -2.36176,19.3615 -0.007,24.10065 1.83401,3.6909 1.82974,3.90327 -0.25178,12.5 -1.16462,4.80991 -2.1169,9.33076 -2.11617,10.04633 7.2e-4,0.71556 1.57632,1.9591 3.50132,2.76342 3.5179,1.46987 4.35566,2.78869 2.5,3.93555 -1.10188,0.681 -1.33086,4.47422 -0.41428,6.86279 0.69493,1.81096 8.52678,7.79879 16.95082,12.95972 l 6.03653,3.69825 12.96347,-5.86658 c 7.1299,-3.22661 16.88505,-7.55737 21.67811,-9.6239 15.51348,-6.68864 20.50874,-10.1839 26.70548,-18.68618 3.06893,-4.21075 6.05302,-8.4447 6.63132,-9.40879 0.91388,-1.52353 1.73374,-0.84895 6.26628,5.15591 2.86816,3.79983 6.39675,9.29463 7.8413,12.21067 2.4258,4.89686 2.53048,5.62261 1.37017,9.5 -1.82214,6.08905 -7.00611,15.98702 -9.16799,17.50481 -3.19147,2.24065 -2.00771,5.77714 2.14881,6.41961 1.36949,0.21168 11.8447,0.13486 23.27824,-0.17072 z m 129.96174,-9.99915 c -1.91072,-1.59398 -2.25,-2.85873 -2.25,-8.38728 0,-6.41497 0.0437,-6.51986 2.98853,-7.16664 1.6437,-0.36102 3.18648,-0.97667 3.42841,-1.36812 0.24193,-0.39145 -6.8047,-2.93235 -15.65918,-5.64644 -31.04756,-9.51674 -55.72377,-24.21576 -61.25888,-36.49044 -2.0635,-4.57603 -3.83464,-5.33181 -2.92351,-1.24752 1.04811,4.69828 5.23275,12.598 8.50729,16.05995 1.72192,1.82047 2.97025,3.41936 2.77406,3.55309 -1.12687,0.76807 -32.10123,-1.4825 -35.85672,-2.60532 -3.75781,-1.12351 -4.50721,-1.75947 -4.54372,-3.85595 -0.024,-1.3808 -2.76774,-7.21107 -6.09709,-12.95615 -3.32934,-5.74509 -8.03467,-14.15768 -10.45627,-18.69463 -4.07386,-7.63251 -5.90292,-9.85431 -5.90292,-7.17039 0,0.59433 3.17557,9.25683 7.05683,19.25 l 7.05683,18.1694 -1.30683,6.5 c -0.84176,4.18679 -1.24226,12.99478 -1.1254,24.75 l 0.18144,18.25 -4.68144,0.005 c -2.57478,0.003 -9.11422,0.29869 -14.53207,0.65744 l -9.85064,0.65226 1.96355,-3.90744 c 3.41374,-6.79328 5.47324,-14.3385 4.838,-17.72461 -1.17543,-6.26563 -8.35986,-17.67204 -18.81143,-29.86613 -3.71121,-4.32995 -6.03872,-6.0711 -9.77419,-7.31182 -7.21312,-2.39582 -12.11562,-7.85751 -16.63657,-18.5342 -2.0892,-4.93387 -4.33079,-8.97067 -4.98132,-8.97067 -1.34289,0 -2.39676,2.24046 -2.39676,5.09536 0,1.06248 -0.42288,2.71317 -0.93974,3.66821 -0.51686,0.95504 -2.36188,4.66143 -4.10006,8.23643 -6.1816,12.71406 -16.51891,23.64429 -27.31385,28.8805 -4.48049,2.17332 -9.93715,5.50487 -12.1259,7.40345 -3.4377,2.98196 -4.34661,3.32401 -6.67547,2.51217 -2.35941,-0.8225 -2.63016,-1.34507 -2.16905,-4.18652 0.43446,-2.67729 0.0875,-3.53459 -1.97835,-4.88818 -2.3376,-1.53166 -2.43535,-1.91672 -1.46102,-5.75529 0.89451,-3.52409 0.73738,-4.72816 -1.09618,-8.3995 -3.70702,-7.42258 -2.25878,-21.28039 2.44806,-23.42497 3.24424,-1.47818 3.0371,-4.16817 -0.58844,-7.64166 -3.26457,-3.12766 -3.36527,-3.37593 -2.14771,-5.29523 0.65368,-1.03044 2.21571,-1.07254 7.64059,-0.20591 8.08645,1.29182 10.57562,0.14079 6.64357,-3.07208 -2.80044,-2.28824 -2.84251,-2.20123 6.94982,-14.37379 9.66501,-12.01432 16.73913,-17.04673 31.17159,-22.17499 5.09262,-1.80955 10.06181,-4.72742 16.74214,-9.83085 13.08189,-9.9939 17.11703,-11.95597 24.33759,-11.83404 7.44372,0.1257 16.84631,4.57097 22.87612,10.81517 2.35746,2.44128 4.62379,4.44612 5.03629,4.4552 1.43443,0.0316 0.73694,-2.73037 -1.364,-5.40128 -1.16271,-1.47814 -1.95021,-2.84536 -1.75,-3.03826 0.41155,-0.39655 26.7083,-6.77039 40.364,-9.78348 17.08819,-3.77045 28.89292,0.2901 49.89965,17.16431 22.42961,18.01736 34.79635,43.34692 34.70131,71.0754 -0.0632,18.42371 1.33448,24.2707 3.92515,16.42089 l 1.18121,-3.57911 7.14634,7.02948 c 3.93049,3.86622 8.38384,7.98448 9.89634,9.15169 1.5125,1.16722 2.75646,2.65205 2.76436,3.29963 0.008,0.64758 -2.57961,8.03213 -5.75,16.41011 -4.81176,12.71539 -6.1775,15.38776 -8.26436,16.17105 -3.35667,1.25991 -3.19562,1.28365 -5.75,-0.8473 z m -237.8067,-53.27895 c 2.2976,-3.28028 1.92689,-6.48882 -0.96892,-8.38624 -2.36506,-1.54964 -2.65114,-1.54126 -4.5,0.13194 -2.37363,2.1481 -2.46215,3.63289 -0.4487,7.52647 1.81871,3.517 3.79385,3.75993 5.91762,0.72783 z M -388.9445,415.578 c 1.31279,-3.83759 2.3396,-4.67902 4.89451,-4.0109 2.5177,0.6584 14.88967,-0.69912 14.88967,-1.63376 0,-0.40451 -3.0375,-1.78947 -6.75,-3.07768 -13.29095,-4.61186 -23.25,-10.50046 -23.25,-13.74729 0,-0.98124 0.92393,-1.23082 3.25,-0.87792 1.7875,0.27119 5.275,0.75438 7.75,1.07376 6.30553,0.81367 29.83279,12.13555 33.17001,15.9622 l 2.67001,3.06159 -3.11618,3.25 -3.11617,3.25 h -15.75182 -15.75181 z m -176.4765,-2.27106 c -3.70662,-2.48659 -6.73932,-4.97571 -6.73932,-5.53139 0,-2.10813 3.37297,-2.16488 7.56691,-0.12731 4.81591,2.33975 6.8096,1.35827 3.86047,-1.90049 -1.70324,-1.88206 -1.66589,-2.06136 1.01159,-4.85605 2.9829,-3.11348 12.37381,-8.41324 16.70896,-9.42971 3.25518,-0.76324 16.73114,-15.25284 22.47092,-24.16114 l 4.11884,-6.39257 2.4202,3.40148 c 3.09267,4.34664 9.09239,9.11768 13.44497,10.69159 1.86843,0.67564 3.39728,1.70053 3.39744,2.27754 1.7e-4,0.57701 -2.36233,4.5731 -5.25,8.88019 -6.29578,9.39047 -11.05227,12.55697 -32.2503,21.46972 -7.7,3.23748 -15.8,6.83683 -18,7.99857 -2.2,1.16173 -4.4548,2.13213 -5.01068,2.15643 -0.55587,0.0243 -4.04337,-1.99028 -7.75,-4.47686 z"
         id="path70" />
      <path
         style="fill:#000000"
         d="m -719.40793,430.64881 c 2.47142,-3.90654 6.22935,-24.39489 6.78646,-37 0.1424,-3.22194 0.64505,-4.75 1.56249,-4.75 3.16137,0 21.19511,2.14862 25.99015,3.09659 4.9028,0.96926 5.42468,1.37314 8.68008,6.71734 1.905,3.12734 5.02958,7.19757 6.94352,9.04496 3.36861,3.25149 3.43983,3.47457 2.22733,6.97677 -0.83006,2.39758 -2.03263,3.80204 -3.56531,4.16386 -3.1963,0.75454 -4.81099,3.49354 -3.39001,5.75048 0.93496,1.48498 2.96903,1.79275 13.43132,2.03228 6.78122,0.15525 12.85713,0.72017 13.50201,1.25538 1.50345,1.24775 10.33614,3.93738 12.97671,3.95152 2.54061,0.0136 17.13573,-14.62516 21.42512,-21.48918 3.69742,-5.91673 7.07733,-16.23978 6.99203,-21.35534 -0.0514,-3.08383 -0.74164,-4.18323 -4.48552,-7.14466 -4.92644,-3.89685 -4.8638,-3.21662 -1.42729,-15.5 3.3708,-12.0485 3.19701,-27.27508 -0.4337,-38 -5.64525,-16.67571 -15.19585,-28.74372 -34.82178,-44.00033 -16.25212,-12.6339 -27.50987,-17.85999 -41.06892,-19.06504 -5.92609,-0.52668 -9.85947,-0.0825 -22.20202,2.50726 -20.06148,4.20934 -36.26503,7.04338 -40.31672,7.05148 -1.93302,0.004 -4.64476,-0.98062 -6.5,-2.3598 -5.59365,-4.15827 -12.00571,-5.9859 -18.43693,-5.25508 -7.06848,0.80324 -13.05979,3.80242 -23.07861,11.55291 -5.72397,4.42802 -10.0183,6.77721 -16.68755,9.12883 -17.45317,6.15409 -27.36355,12.94794 -37.26606,25.54694 -4.90941,6.24625 -6.85612,8.03771 -8.31865,7.65525 -2.90309,-0.75918 -7.31592,1.48646 -9.20491,4.68426 -2.12153,3.59147 -2.18506,9.84944 -0.12311,12.12786 1.42328,1.57271 1.42328,2.21753 0,7.01025 -2.2236,7.48768 -2.02528,16.98022 0.47626,22.79519 l 2.04371,4.75075 -1.97739,8.87431 c -1.18571,5.32134 -1.6421,9.49901 -1.13994,10.43463 0.8549,1.59286 16.95086,6.55314 20.4411,6.29933 1.05115,-0.0764 3.9203,-2.07399 6.37587,-4.43899 l 4.46468,-4.30001 -0.61711,4 c -0.3394,2.2 -1.08473,5.66045 -1.65628,7.68989 -1.0344,3.67293 -1.07459,3.69584 -8.74315,4.98438 -8.76094,1.4721 -11.23521,3.26354 -11.23521,8.1346 0,4.84231 1.65607,6.37397 10,9.24877 10.93156,3.76633 20.58273,4.16359 29.92696,1.23186 l 7.42695,-2.33019 7.54422,-10.97966 c 8.18882,-11.91779 19.38458,-23.70063 28.41487,-29.90488 5.48553,-3.76883 5.83373,-3.86813 8.739,-2.49222 2.62433,1.24286 3.47332,2.76681 6.39833,11.48506 1.85487,5.52863 4.81535,13.10587 6.57884,16.83831 l 3.20636,6.78626 -4.86777,4.99428 c -2.67727,2.74686 -5.88026,5.39248 -7.11776,5.87916 -3.26473,1.28395 -3.06597,5.67365 0.3151,6.95913 1.4108,0.53639 11.97543,0.97525 23.47695,0.97525 20.59793,0 20.93321,-0.0338 22.33528,-2.25 z m -32.37733,-6.56291 c 0,-0.4471 1.38873,-2.1346 3.08606,-3.75 5.14448,-4.89616 5.24004,-5.65324 1.49785,-11.86776 -2.93043,-4.86646 -7.43216,-16.2816 -11.82698,-29.98996 -1.10706,-3.45313 -2.11062,-4.35288 -8.41644,-7.54572 -8.15338,-4.12832 -14.34897,-8.74179 -19.51778,-14.53365 -3.97863,-4.45822 -11.42337,-15.66642 -12.35437,-18.59977 -0.76673,-2.41573 -3.46834,-2.49093 -3.46834,-0.0965 0,0.99204 -2.06013,5.95579 -4.57807,11.03056 -6.0672,12.22816 -18.43586,25.57989 -27.72205,29.92542 -3.41757,1.59927 -8.70716,4.93868 -11.75467,7.4209 -4.46348,3.63556 -5.96911,4.35473 -7.74306,3.69851 -1.68099,-0.62184 -2.20215,-1.62335 -2.20215,-4.23185 0,-2.50469 -0.64164,-3.83763 -2.40283,-4.9916 -2.19729,-1.43972 -2.32292,-1.93002 -1.46873,-5.73176 0.80358,-3.57648 0.58042,-4.86711 -1.59717,-9.23696 -2.79923,-5.61733 -3.04249,-8.20474 -1.46356,-15.56705 0.73476,-3.42602 1.82622,-5.47556 3.5,-6.57227 3.35768,-2.20004 3.11888,-5.58514 -0.56771,-8.04759 -3.09272,-2.06577 -3.53093,-3.11589 -2.18471,-5.23537 0.58131,-0.91522 2.51668,-1.02685 7.46813,-0.43075 8.06066,0.97041 10.29072,0.0257 6.8152,-2.88707 -2.1724,-1.82065 -2.27426,-2.2501 -1.06826,-4.50354 2.2727,-4.24658 13.19586,-14.98611 18.96964,-18.65074 5.04863,-3.20438 10.08278,-5.41631 23.41067,-10.28631 2.70087,-0.9869 8.73252,-4.71042 13.40366,-8.27449 11.51618,-8.78682 15.92305,-10.64861 23.36436,-9.87084 7.37696,0.77104 14.70291,4.46815 21.39481,10.79707 5.61294,5.30848 7.57935,5.26688 4.32079,-0.0914 -1.10114,-1.81067 -1.86531,-3.38395 -1.69818,-3.49617 0.16714,-0.11222 4.57889,-0.73429 9.80389,-1.38237 5.225,-0.64809 15.575,-2.60614 23,-4.35122 28.82731,-6.77524 39.35815,-4.0015 65.99796,17.38339 11.87654,9.5338 19.05477,17.65127 23.8768,27.00101 2.60017,5.04164 3.11736,7.17017 3.07834,12.66925 l -0.0469,6.60954 -2.42086,-7.51478 c -4.04267,-12.54919 -8.14384,-15.63676 -5.04298,-3.79661 2.94021,11.22668 3.09845,19.53094 0.58106,30.49271 -1.24018,5.40027 -2.68477,10.63636 -3.21021,11.63574 -1.40231,2.66718 0.77105,5.32861 9.54046,11.68294 8.51517,6.17011 8.69186,6.64803 5.6869,15.38212 -2.39859,6.97161 -4.59862,10.18756 -12.90751,18.86788 -9.0781,9.48391 -11.20317,9.04169 -9.03237,-1.87959 1.2014,-6.04424 1.547,-6.61538 4.84649,-8.00955 l 3.55283,-1.50122 -11,-3.76849 c -19.42747,-6.65566 -30.01601,-13.15021 -40.48428,-24.83128 -5.95267,-6.64232 -12.33223,-19.17826 -14.00667,-27.52334 -1.65486,-8.24751 -3.42897,-6.40958 -2.55254,2.64437 0.8335,8.61057 4.46122,19.88618 8.47037,26.32745 1.62429,2.60966 2.85261,4.84549 2.72959,4.96851 -0.12301,0.12302 -3.35854,-0.18967 -7.19007,-0.69486 -3.83152,-0.50518 -9.5539,-1.19018 -12.7164,-1.52222 l -5.75,-0.60369 v -4.37299 c 0,-3.92704 -0.47697,-4.81201 -4.67713,-8.67804 -6.1341,-5.64612 -22.33004,-22.37028 -24.07155,-24.85663 -1.49479,-2.13412 -3.25132,-2.58871 -3.25132,-0.84145 0,1.55936 12.382,19.1376 18.85587,26.76894 l 5.41257,6.38029 -0.69891,11.1219 c -0.61887,9.84807 -3.6782,31.15453 -5.14638,35.84157 -0.46329,1.47902 -2.24497,1.76365 -12.73092,2.03378 -6.70572,0.17275 -12.52973,0.4114 -12.94223,0.53032 -0.4125,0.11892 -0.75,-0.14959 -0.75,-0.59669 z M -852.4222,365.39289 c 3.49648,-3.49648 2.76576,-8.68364 -1.40999,-10.00897 -4.41988,-1.40282 -6.63761,4.66485 -3.39637,9.29238 1.83247,2.61622 2.76735,2.7556 4.80636,0.71659 z m 192.81889,51.00592 c 0.88401,-1.94019 1.88687,-2.5 4.47857,-2.5 1.83671,0 3.33948,-0.45 3.33948,-1 0,-0.55 -0.3375,-1.01343 -0.75,-1.02984 -1.31322,-0.0523 -9.77221,-7.78129 -9.17251,-8.38099 0.31647,-0.31646 2.34099,0.27346 4.49895,1.31093 2.15796,1.03748 5.83606,2.45561 8.17356,3.1514 4.62003,1.37522 4.73976,1.64478 3.19742,7.1985 l -1.04143,3.75 h -6.93156 -6.93155 z m -182.72643,0.87843 c -3.55054,-0.89187 -6.45552,-1.96502 -6.45552,-2.38478 0,-1.11131 10.2615,-2.21711 13.35927,-1.43962 1.98967,0.49938 2.64073,0.28679 2.64073,-0.86229 0,-0.83879 -0.55709,-1.71077 -1.23797,-1.93773 -0.93621,-0.31207 -0.65547,-2.83093 1.15167,-10.33333 3.63727,-15.10023 4.07812,-16.42068 5.48226,-16.42068 2.20093,0 20.22459,-19.35795 23.61184,-25.35983 l 3.1947,-5.6607 2.77677,3.76027 c 3.18755,4.31654 4.85246,6.07903 11.43091,12.10092 2.60801,2.38736 4.59513,4.4454 4.41583,4.57341 -12.81631,9.15035 -21.97775,18.48303 -30.68874,31.26237 -3.44029,5.04704 -6.79421,9.62388 -7.45315,10.17075 -1.29777,1.07706 -11.06152,3.91424 -13.9786,4.06195 -0.98697,0.05 -4.69947,-0.63885 -8.25,-1.53071 z m 221.32907,-57.12843 c 1.66653,-14.70688 1.98731,-16.25 3.37806,-16.25 0.79066,0 0.92568,2.13973 0.45475,7.20676 -0.78074,8.40051 -3.73085,20.79324 -4.94986,20.79324 -0.11793,0 0.38474,-5.2875 1.11705,-11.75 z"
         id="path86" />
      <path
         style="fill:#000000"
         d="m -941.54158,430.07929 c 9.13647,-6.83008 8.43469,-6.64294 26.02641,-6.94024 l 16.27967,-0.27512 4.3961,-7.45921 4.39609,-7.45921 -2.85224,-15.04079 c -3.77541,-19.90904 -3.7579,-31.69707 0.0699,-47.04079 l 2.74417,-11 -2.43945,-6.69606 c -6.78979,-18.63734 -19.78672,-33.73715 -43.97806,-51.09365 -8.81119,-6.32173 -15.44999,-9.32958 -25.11607,-11.37934 -9.22156,-1.95551 -16.61904,-1.29592 -41.01874,3.65739 -26.7592,5.43232 -29.4843,5.68812 -32.8013,3.07895 -11.3063,-8.89347 -25.495,-7.79328 -39.135,3.03451 -9.8295,7.80283 -12.6533,9.4137 -21.6777,12.3659 -13.1886,4.31447 -21.5931,9.15667 -30.3002,17.45737 -4.29,4.08986 -8.5496,8.70484 -9.4656,10.25551 -1.401,2.37175 -2.3241,2.81942 -5.8135,2.81942 -7.6965,0 -12.5486,8.31449 -9.0876,15.5723 1.4694,3.08145 1.4645,3.65333 -0.062,7.13875 -2.3173,5.29142 -2.3908,20.65959 -0.1187,24.80083 1.5693,2.85999 1.528,3.48109 -0.8177,12.31592 -1.9102,7.1947 -2.2063,9.62212 -1.3058,10.7071 1.2023,1.4487 16.3742,6.4651 19.5534,6.4651 0.9862,0 4.3854,-2.03659 7.5537,-4.52576 5.7239,-4.49694 13.0434,-8.41025 15.8092,-8.45228 0.7949,-0.0121 2.6756,-1.20068 4.1793,-2.64133 l 2.734,-2.61937 1.081,4.0145 c 1.0758,3.99524 1.045,4.06594 -6.4235,14.73409 -4.1275,5.89578 -8.0317,12.47917 -8.6761,14.62975 -0.7562,2.52396 -2.0833,4.34716 -3.7435,5.14288 -2.9313,1.40495 -3.8267,4.13274 -2.0566,6.26556 0.9772,1.17749 4.8528,1.45196 20.5021,1.45196 h 19.2971 l 10.5062,-11.49364 c 7.9786,-8.72851 11.0052,-12.82737 12.5804,-17.03751 1.1409,-3.04913 2.0743,-5.97699 2.0743,-6.50636 0,-2.28862 2.6135,-0.23052 15.1793,11.9534 l 13.3207,12.91589 -4.5,4.66431 c -2.475,2.56538 -5.7375,5.31478 -7.25,6.1098 -2.7649,1.45328 -3.8494,5.59662 -1.797,6.86509 1.6652,1.02914 45.46518,1.72518 46.86934,0.74482 3.20035,-2.23444 3.94007,-13.04545 1.62271,-23.7158 -0.83613,-3.85 -1.78457,-8.2375 -2.10764,-9.75 -0.57338,-2.6844 -0.47842,-2.75 3.98091,-2.75 3.24254,0 4.94751,0.52095 5.875,1.79511 4.46197,6.12973 16.64419,11.20489 26.89579,11.20489 3.251,0 5.91091,0.24502 5.91091,0.54448 0,0.29947 -0.74997,3.53013 -1.6666,7.17924 l -1.66659,6.63475 3.16659,2.64359 c 1.74163,1.45398 3.1666,3.14118 3.1666,3.74934 0,1.51127 2.85268,4.2486 4.42763,4.2486 0.70662,0 3.26198,-1.47809 5.67857,-3.28464 z m -86.10622,-7.51919 c 0,-0.44211 1.575,-2.33039 3.5,-4.19617 1.925,-1.86578 3.5,-4.19185 3.5,-5.16903 0,-2.16287 -24.0203,-25.91263 -33.1918,-32.81802 -10.3234,-7.7726 -14.8252,-14.92744 -22.8169,-36.26295 -1.8026,-4.8125 -3.7894,-8.75 -4.4152,-8.75 -0.6257,0 -1.6812,1.2375 -2.3455,2.75 -4.937,11.24091 -9.1683,17.30297 -18.6713,26.75 -8.0652,8.01764 -11.0793,10.3477 -15.2047,11.75396 -2.83,0.96469 -7.9732,3.83567 -11.4294,6.37997 -5.3823,3.96228 -6.6528,4.49608 -8.8546,3.72046 -2.1603,-0.76101 -2.5182,-1.42443 -2.2425,-4.1564 0.243,-2.40748 -0.2476,-3.71706 -1.8911,-5.04788 -1.9662,-1.59214 -2.1109,-2.2447 -1.2692,-5.72357 0.7715,-3.18879 0.5748,-4.77204 -1.0472,-8.42654 -3.585,-8.07725 -1.8907,-21.18642 2.9774,-23.03727 3.4127,-1.29752 3.1226,-4.88511 -0.6457,-7.98323 -2.2286,-1.8323 -2.8739,-3.02028 -2.3633,-4.35089 0.6218,-1.62032 1.4517,-1.75016 7.2309,-1.13125 3.5908,0.38453 7.1252,0.92808 7.8543,1.20788 2.1412,0.82165 1.5448,-2.70731 -0.775,-4.58575 -2.0865,-1.68955 -2.0517,-1.75363 5.1282,-9.4418 8.7626,-9.38288 16.6616,-14.23843 31.3735,-19.28542 6.1014,-2.09311 12.7057,-5.12012 15,-6.87511 2.2545,-1.72453 6.2952,-4.81485 8.9795,-6.86739 6.4097,-4.90131 10.8018,-6.64977 16.7042,-6.64977 7.4137,0 15.1484,3.39545 21.8336,9.58479 6.8497,6.3416 9.252,7.06381 6.1806,1.85805 -1.1544,-1.95644 -2.0988,-3.91474 -2.0988,-4.35178 0,-0.43705 3.4875,-1.06461 7.75,-1.39458 4.2625,-0.32998 14.275,-2.02266 22.25002,-3.76152 24.6634,-5.37757 37.55897,-4.19421 51.04099,4.68379 14.18254,9.3393 32.83011,26.47606 36.66837,33.69754 1.73021,3.25529 2.29086,13.25631 0.87184,15.55232 -0.46582,0.75371 -2.60448,-1.87652 -5.76084,-7.08494 -5.80794,-9.58388 -5.60988,-9.32748 -6.50974,-8.42763 -0.80919,0.80919 1.99671,9.14068 5.34161,15.86072 1.29128,2.59421 2.34777,6.13794 2.34777,7.87495 0,3.84216 -3.6993,12.39712 -10.55453,24.40829 -8.29681,14.53698 -8.0249,13.88479 -5.51505,13.22845 1.85627,-0.48543 3.19812,1.032 9.61349,10.87138 4.10085,6.28956 7.45609,11.82287 7.45609,12.29625 0,2.40366 -32.37269,23.55862 -34.6901,22.66934 -2.38422,-0.91491 -2.57182,-3.4183 -0.75823,-10.11823 1.24613,-4.6036 2.61111,-7.24782 4.60937,-8.92924 1.56143,-1.31386 2.83884,-2.53038 2.83868,-2.70339 -1.5e-4,-0.17301 -6.41265,-0.33862 -14.25,-0.36802 -12.26758,-0.046 -14.87567,-0.34356 -18.74972,-2.13893 -8.54676,-3.96088 -15.17541,-13.23916 -17.99233,-25.18428 -1.30673,-5.54122 -0.96343,-27.87994 0.48215,-31.37333 0.4137,-0.99975 0.28453,-1.75 -0.3013,-1.75 -1.3543,0 -4.85915,10.83173 -6.14789,19 -1.39291,8.82857 -1.27698,15.36233 0.39902,22.48794 1.51507,6.44143 0.9782,7.76874 -2.93965,7.26779 -2.63632,-0.33709 -7.85932,-14.16688 -9.65122,-25.55513 l -1.2957,-8.23434 -7.0265,-3.56169 c -3.8647,-1.95894 -9.3698,-5.32635 -12.2337,-7.48314 -5.7628,-4.33988 -6.2929,-4.55213 -6.2929,-2.51926 0,0.77119 4.2025,5.38369 9.339,10.25 9.2825,8.79423 9.3426,8.88236 9.9226,14.5475 0.3209,3.13482 3.3679,13.92477 6.7711,23.97767 4.7257,13.95946 6.3135,20.11437 6.7203,26.05033 l 0.5328,7.77233 h -12.6429 c -6.9536,0 -12.6429,-0.36172 -12.6429,-0.80383 z m -106.0726,-60.83103 c 2.4824,-3.15588 2.5596,-4.22478 0.5159,-7.14263 -2.5519,-3.64332 -7.4433,-2.31116 -7.4433,2.02715 0,2.34218 2.7584,7.75034 3.9531,7.75034 0.4959,0 1.8344,-1.18569 2.9743,-2.63486 z m 216.62262,52.82645 c 0.5225,-0.44462 3.76582,-3.19203 7.20739,-6.10534 3.44156,-2.91332 6.51721,-6.33215 6.83477,-7.59741 0.63895,-2.54581 0.95658,-1.9512 -10.46237,-19.58615 l -8.15698,-12.59731 4.65639,-6.90269 c 7.0261,-10.41557 9.6919,-16.89969 9.82704,-23.90269 0.11589,-6.00556 2.76484,-13.09943 4.49274,-12.03153 0.4751,0.29362 1.53303,2.4979 2.35096,4.8984 1.38663,4.06955 1.32401,5.03258 -0.92663,14.24883 -4.45274,18.23372 -4.29778,26.26273 1.04837,54.3204 1.38146,7.25015 1.37383,7.32093 -1.25862,11.67913 l -2.6485,4.38477 h -6.95728 c -3.8265,0 -6.52978,-0.36378 -6.00728,-0.80841 z m -192.55002,-0.998 c 0,-0.99353 2.3222,-5.15603 5.1605,-9.25 9.4624,-13.64861 9.895,-14.14243 11.3388,-12.94415 1.5594,1.29417 3.0307,-0.33282 1.9225,-2.1259 -0.3829,-0.61956 -1.7035,-5.08548 -2.9347,-9.92428 l -2.2386,-8.79781 3.4158,-3.31075 c 1.8787,-1.82091 5.0439,-5.67455 7.0337,-8.56365 l 3.6178,-5.25291 2.2517,5.54016 c 2.8035,6.89801 7.8257,15.25802 11.578,19.27293 3.4671,3.70977 3.4833,4.1789 0.4163,12.00505 -1.8782,4.79248 -4.4622,8.38605 -11.25,15.64518 l -8.8118,9.42367 -10.75,0.0444 c -9.7157,0.0401 -10.75,-0.12937 -10.75,-1.76198 z"
         id="path102" />
    </g>
  </g>
</svg>
